<?xml version="1.0" encoding="UTF-8" standalone="no"?>
<!-- Created with Inkscape (http://www.inkscape.org/) -->

<svg
   width="33pc"
   height="27.062pc"
   viewBox="0 0 528 432.99191"
   version="1.1"
   id="svg5"
   inkscape:version="1.3.2 (1:1.3.2+202311252150+091e20ef0f)"
   sodipodi:docname="blank-building.svg"
   xmlns:inkscape="http://www.inkscape.org/namespaces/inkscape"
   xmlns:sodipodi="http://sodipodi.sourceforge.net/DTD/sodipodi-0.dtd"
   xmlns:xlink="http://www.w3.org/1999/xlink"
   xmlns="http://www.w3.org/2000/svg"
   xmlns:svg="http://www.w3.org/2000/svg">
  <sodipodi:namedview
     id="namedview7"
     pagecolor="#ffffff"
     bordercolor="#666666"
     borderopacity="1.0"
     inkscape:pageshadow="2"
     inkscape:pageopacity="0.0"
     inkscape:pagecheckerboard="0"
     inkscape:document-units="px"
     showgrid="false"
     inkscape:zoom="0.94149958"
     inkscape:cx="256.50569"
     inkscape:cy="336.69691"
     inkscape:window-width="1874"
     inkscape:window-height="1016"
     inkscape:window-x="46"
     inkscape:window-y="907"
     inkscape:window-maximized="1"
     inkscape:current-layer="layer2"
     showguides="true"
     inkscape:guide-bbox="true"
     units="pt"
     inkscape:showpageshadow="2"
     inkscape:deskcolor="#d1d1d1" />
  <defs
     id="defs2">
    <linearGradient
       id="linear-gradient"
       x1="10.52"
       y1="52.75"
       x2="18.59"
       y2="52.75"
       gradientUnits="userSpaceOnUse">
      <stop
         offset="0"
         stop-color="#00b4d8"
         id="stop4" />
      <stop
         offset="1"
         stop-color="#0096c7"
         id="stop6" />
    </linearGradient>
    <linearGradient
       id="linear-gradient-2-9"
       x1="38.669998"
       y1="63.200001"
       x2="44.509998"
       y2="73.330002"
       xlink:href="#linear-gradient" />
    <linearGradient
       id="linear-gradient-3-1"
       x1="80.419998"
       y1="44.16"
       x2="79.809998"
       y2="44.16"
       xlink:href="#linear-gradient" />
    <linearGradient
       id="linear-gradient-4-2"
       x1="53.459999"
       y1="28.6"
       x2="52.849998"
       y2="28.6"
       xlink:href="#linear-gradient" />
    <linearGradient
       id="linear-gradient-5"
       x1="76.760002"
       y1="64"
       x2="66.25"
       y2="64"
       gradientUnits="userSpaceOnUse">
      <stop
         offset="0"
         stop-color="#ffd500"
         id="stop12" />
      <stop
         offset="1"
         stop-color="#fdc500"
         id="stop14" />
    </linearGradient>
    <linearGradient
       id="linear-gradient-6-9"
       x1="73.309998"
       y1="66"
       x2="62.790001"
       y2="66"
       xlink:href="#linear-gradient-5" />
    <linearGradient
       id="linear-gradient-7-3"
       x1="69.800003"
       y1="68"
       x2="59.279999"
       y2="68"
       xlink:href="#linear-gradient-5" />
    <linearGradient
       id="linear-gradient-8-6"
       x1="66.389999"
       y1="70"
       x2="55.880001"
       y2="70"
       xlink:href="#linear-gradient-5" />
    <linearGradient
       id="linear-gradient-9-0"
       x1="80.220001"
       y1="62"
       x2="69.709999"
       y2="62"
       xlink:href="#linear-gradient-5" />
    <linearGradient
       id="linear-gradient-10-6"
       x1="83.68"
       y1="60"
       x2="73.160004"
       y2="60"
       xlink:href="#linear-gradient-5" />
    <linearGradient
       id="linear-gradient-11-2"
       x1="87.150002"
       y1="58"
       x2="76.629997"
       y2="58"
       xlink:href="#linear-gradient-5" />
    <linearGradient
       id="linear-gradient-12-6"
       x1="22.25"
       y1="34"
       x2="32.759998"
       y2="34"
       xlink:href="#linear-gradient-5" />
    <linearGradient
       id="linear-gradient-13-1"
       x1="18.799999"
       y1="36"
       x2="29.309999"
       y2="36"
       xlink:href="#linear-gradient-5" />
    <linearGradient
       id="linear-gradient-14-8"
       x1="15.28"
       y1="38"
       x2="25.799999"
       y2="38"
       xlink:href="#linear-gradient-5" />
    <linearGradient
       id="linear-gradient-15-7"
       x1="11.88"
       y1="40"
       x2="22.4"
       y2="40"
       xlink:href="#linear-gradient-5" />
    <linearGradient
       id="linear-gradient-16-9"
       x1="25.709999"
       y1="32"
       x2="36.220001"
       y2="32"
       xlink:href="#linear-gradient-5" />
    <linearGradient
       id="linear-gradient-17-2"
       x1="29.16"
       y1="30"
       x2="39.68"
       y2="30"
       xlink:href="#linear-gradient-5" />
    <linearGradient
       id="linear-gradient-18-0"
       x1="32.630001"
       y1="28"
       x2="43.139999"
       y2="28"
       xlink:href="#linear-gradient-5" />
    <linearGradient
       id="linear-gradient-19-2"
       x1="26.68"
       y1="23.92"
       x2="70.32"
       y2="67.559998"
       xlink:href="#linear-gradient" />
    <linearGradient
       inkscape:collect="always"
       xlink:href="#linear-gradient-20"
       id="linearGradient1165"
       gradientUnits="userSpaceOnUse"
       x1="20.15"
       y1="46"
       x2="77.82"
       y2="46" />
    <linearGradient
       id="linear-gradient-20"
       x1="20.15"
       y1="46"
       x2="77.82"
       y2="46"
       gradientUnits="userSpaceOnUse">
      <stop
         offset="0"
         stop-color="#caf0f8"
         id="stop31" />
      <stop
         offset="1"
         stop-color="#90e0ef"
         id="stop33" />
    </linearGradient>
    <linearGradient
       id="linear-gradient-21-5"
       x1="25.620001"
       y1="43.029999"
       x2="71.980003"
       y2="43.029999"
       xlink:href="#linear-gradient" />
    <linearGradient
       id="linear-gradient-22-9"
       x1="6.29"
       y1="48.990002"
       x2="7.4899998"
       y2="48.990002"
       xlink:href="#linear-gradient" />
    <linearGradient
       id="linear-gradient-23-2"
       x1="90.690002"
       y1="50.650002"
       x2="89.5"
       y2="50.650002"
       xlink:href="#linear-gradient" />
    <linearGradient
       id="linear-gradient-24-2"
       x1="10.53"
       y1="50.700001"
       x2="7.4699998"
       y2="50.700001"
       xlink:href="#linear-gradient" />
    <linearGradient
       id="linear-gradient-25-8"
       x1="18.629999"
       y1="55.82"
       x2="17.969999"
       y2="55.82"
       xlink:href="#linear-gradient" />
    <linearGradient
       id="linear-gradient-26-9"
       x1="18.610001"
       y1="61.700001"
       x2="37.490002"
       y2="61.700001"
       xlink:href="#linear-gradient" />
    <linearGradient
       id="linear-gradient-27-7"
       x1="45.59"
       y1="71.389999"
       x2="44.93"
       y2="71.389999"
       xlink:href="#linear-gradient" />
    <linearGradient
       id="linear-gradient-28-3"
       x1="52.860001"
       y1="62.110001"
       x2="89.519997"
       y2="62.110001"
       xlink:href="#linear-gradient" />
    <linearGradient
       id="linear-gradient-29-6"
       x1="45.57"
       y1="72.290001"
       x2="47.209999"
       y2="72.290001"
       xlink:href="#linear-gradient" />
    <linearGradient
       id="linear-gradient-30-1"
       x1="52.880001"
       y1="73.099998"
       x2="47.200001"
       y2="73.099998"
       xlink:href="#linear-gradient" />
    <linearGradient
       id="linear-gradient-31-2"
       x1="14.59"
       y1="43.23"
       x2="16.59"
       y2="43.23"
       xlink:href="#linear-gradient-5" />
    <linearGradient
       id="linear-gradient-32-9"
       x1="17.41"
       y1="41.59"
       x2="19.41"
       y2="41.59"
       xlink:href="#linear-gradient-5" />
    <linearGradient
       id="linear-gradient-33-3"
       x1="20.23"
       y1="39.950001"
       x2="22.23"
       y2="39.950001"
       xlink:href="#linear-gradient-5" />
    <linearGradient
       id="linear-gradient-34-1"
       x1="23.049999"
       y1="38.310001"
       x2="25.049999"
       y2="38.310001"
       xlink:href="#linear-gradient-5" />
    <linearGradient
       id="linear-gradient-35-9"
       x1="71.230003"
       y1="54.689999"
       x2="73.220001"
       y2="54.689999"
       xlink:href="#linear-gradient-5" />
    <linearGradient
       id="linear-gradient-36-4"
       x1="74.040001"
       y1="53.060001"
       x2="76.040001"
       y2="53.060001"
       xlink:href="#linear-gradient-5" />
    <linearGradient
       id="linear-gradient-37-7"
       x1="76.860001"
       y1="51.419998"
       x2="78.860001"
       y2="51.419998"
       xlink:href="#linear-gradient-5" />
    <linearGradient
       id="linear-gradient-38-8"
       x1="79.68"
       y1="49.779999"
       x2="81.68"
       y2="49.779999"
       xlink:href="#linear-gradient-5" />
    <linearGradient
       id="linear-gradient-39-4"
       x1="25.610001"
       y1="44.259998"
       x2="26.23"
       y2="44.259998"
       xlink:href="#linear-gradient" />
    <linearGradient
       id="linear-gradient-40-5"
       x1="71.360001"
       y1="45.91"
       x2="71.980003"
       y2="45.91"
       xlink:href="#linear-gradient" />
    <linearGradient
       id="linear-gradient-41-0"
       x1="55.970001"
       y1="48.799999"
       x2="67.150002"
       y2="55.25"
       xlink:href="#linear-gradient" />
    <linearGradient
       id="linear-gradient-42-3"
       x1="25.530001"
       y1="44.290001"
       x2="49.509998"
       y2="58.130001"
       xlink:href="#linear-gradient" />
    <linearGradient
       id="linear-gradient-43-6"
       x1="48.799999"
       y1="57.900002"
       x2="51.759998"
       y2="57.900002"
       xlink:href="#linear-gradient" />
    <linearGradient
       id="linear-gradient-44-1"
       x1="40.400002"
       y1="42.799999"
       x2="53.099998"
       y2="42.799999"
       xlink:href="#linear-gradient-5" />
    <linearGradient
       id="linear-gradient-45-0"
       x1="37.290001"
       y1="47.57"
       x2="50.869999"
       y2="47.57"
       xlink:href="#linear-gradient-5" />
    <linearGradient
       id="linear-gradient-46-6"
       x1="59.73"
       y1="45.610001"
       x2="71.160004"
       y2="45.610001"
       xlink:href="#linear-gradient-5" />
    <linearGradient
       id="linear-gradient-47-3"
       x1="46.630001"
       y1="46.669998"
       x2="62.630001"
       y2="46.669998"
       xlink:href="#linear-gradient-5" />
    <linearGradient
       id="linear-gradient-48-2"
       x1="44.950001"
       y1="33.110001"
       x2="56.029999"
       y2="33.110001"
       xlink:href="#linear-gradient-5" />
    <linearGradient
       id="linear-gradient-49-0"
       x1="51.110001"
       y1="38.509998"
       x2="57.790001"
       y2="38.509998"
       xlink:href="#linear-gradient-5" />
    <linearGradient
       id="linear-gradient-50-6"
       x1="55.119999"
       y1="38.77"
       x2="63.07"
       y2="38.77"
       xlink:href="#linear-gradient-5" />
    <linearGradient
       id="linear-gradient-51-1"
       x1="59.43"
       y1="42.099998"
       x2="65.709999"
       y2="42.099998"
       xlink:href="#linear-gradient-5" />
    <linearGradient
       id="linear-gradient-52-5"
       x1="29.32"
       y1="42.490002"
       x2="35.93"
       y2="42.490002"
       xlink:href="#linear-gradient-5" />
    <linearGradient
       id="linear-gradient-53-5"
       x1="31.65"
       y1="42.82"
       x2="52.52"
       y2="42.82"
       xlink:href="#linear-gradient-5" />
    <linearGradient
       id="linear-gradient-54-4"
       x1="33.990002"
       y1="36.360001"
       x2="43.900002"
       y2="36.360001"
       xlink:href="#linear-gradient-5" />
    <linearGradient
       id="linear-gradient-55-7"
       x1="41.560001"
       y1="35.919998"
       x2="47.75"
       y2="35.919998"
       xlink:href="#linear-gradient-5" />
    <linearGradient
       id="linear-gradient-56-6"
       x1="28.17"
       y1="43.16"
       x2="30.950001"
       y2="43.16"
       xlink:href="#linear-gradient-5" />
    <linearGradient
       id="linear-gradient-57-5"
       x1="35.200001"
       y1="49.889999"
       x2="48.830002"
       y2="49.889999"
       xlink:href="#linear-gradient-5" />
    <linearGradient
       id="linear-gradient-58-6"
       x1="45.02"
       y1="54.27"
       x2="48.75"
       y2="54.27"
       xlink:href="#linear-gradient-5" />
    <linearGradient
       id="linear-gradient-59-9"
       x1="66.980003"
       y1="41.41"
       x2="49.759998"
       y2="41.41"
       xlink:href="#linear-gradient-20" />
    <linearGradient
       id="linear-gradient-60-3"
       x1="48.240002"
       y1="30.59"
       x2="31.02"
       y2="30.59"
       xlink:href="#linear-gradient-20" />
    <linearGradient
       id="linear-gradient-61-7"
       x1="45.52"
       y1="41.900002"
       x2="32.169998"
       y2="41.900002"
       xlink:href="#linear-gradient-20" />
    <linearGradient
       id="linear-gradient-62-4"
       x1="65.830002"
       y1="30.1"
       x2="52.48"
       y2="30.1"
       xlink:href="#linear-gradient-20" />
    <linearGradient
       id="linear-gradient-63-5"
       x1="31.49"
       y1="36"
       x2="66.519997"
       y2="36"
       xlink:href="#linear-gradient-20" />
    <linearGradient
       id="linear-gradient-64-2"
       x1="34.310001"
       y1="36"
       x2="63.689999"
       y2="36"
       xlink:href="#linear-gradient-5" />
    <linearGradient
       id="linear-gradient-2-9-7"
       x1="38.669998"
       y1="63.200001"
       x2="44.509998"
       y2="73.330002"
       xlink:href="#linear-gradient" />
    <linearGradient
       id="linear-gradient-3-1-5"
       x1="80.419998"
       y1="44.16"
       x2="79.809998"
       y2="44.16"
       xlink:href="#linear-gradient" />
    <linearGradient
       id="linear-gradient-4-2-3"
       x1="53.459999"
       y1="28.6"
       x2="52.849998"
       y2="28.6"
       xlink:href="#linear-gradient" />
    <linearGradient
       id="linear-gradient-6-9-2"
       x1="73.309998"
       y1="66"
       x2="62.790001"
       y2="66"
       xlink:href="#linear-gradient-5" />
    <linearGradient
       id="linear-gradient-7-3-9"
       x1="69.800003"
       y1="68"
       x2="59.279999"
       y2="68"
       xlink:href="#linear-gradient-5" />
    <linearGradient
       id="linear-gradient-8-6-1"
       x1="66.389999"
       y1="70"
       x2="55.880001"
       y2="70"
       xlink:href="#linear-gradient-5" />
    <linearGradient
       id="linear-gradient-9-0-2"
       x1="80.220001"
       y1="62"
       x2="69.709999"
       y2="62"
       xlink:href="#linear-gradient-5" />
    <linearGradient
       id="linear-gradient-10-6-7"
       x1="83.68"
       y1="60"
       x2="73.160004"
       y2="60"
       xlink:href="#linear-gradient-5" />
    <linearGradient
       id="linear-gradient-11-2-0"
       x1="87.150002"
       y1="58"
       x2="76.629997"
       y2="58"
       xlink:href="#linear-gradient-5" />
    <linearGradient
       id="linear-gradient-12-6-9"
       x1="22.25"
       y1="34"
       x2="32.759998"
       y2="34"
       xlink:href="#linear-gradient-5" />
    <linearGradient
       id="linear-gradient-13-1-3"
       x1="18.799999"
       y1="36"
       x2="29.309999"
       y2="36"
       xlink:href="#linear-gradient-5" />
    <linearGradient
       id="linear-gradient-14-8-6"
       x1="15.28"
       y1="38"
       x2="25.799999"
       y2="38"
       xlink:href="#linear-gradient-5" />
    <linearGradient
       id="linear-gradient-15-7-0"
       x1="11.88"
       y1="40"
       x2="22.4"
       y2="40"
       xlink:href="#linear-gradient-5" />
    <linearGradient
       id="linear-gradient-16-9-6"
       x1="25.709999"
       y1="32"
       x2="36.220001"
       y2="32"
       xlink:href="#linear-gradient-5" />
    <linearGradient
       id="linear-gradient-17-2-2"
       x1="29.16"
       y1="30"
       x2="39.68"
       y2="30"
       xlink:href="#linear-gradient-5" />
    <linearGradient
       id="linear-gradient-18-0-6"
       x1="32.630001"
       y1="28"
       x2="43.139999"
       y2="28"
       xlink:href="#linear-gradient-5" />
    <linearGradient
       id="linear-gradient-19-2-1"
       x1="26.68"
       y1="23.92"
       x2="70.32"
       y2="67.559998"
       xlink:href="#linear-gradient" />
    <linearGradient
       id="linear-gradient-21-5-9"
       x1="25.620001"
       y1="43.029999"
       x2="71.980003"
       y2="43.029999"
       xlink:href="#linear-gradient" />
    <linearGradient
       id="linear-gradient-22-9-2"
       x1="6.29"
       y1="48.990002"
       x2="7.4899998"
       y2="48.990002"
       xlink:href="#linear-gradient" />
    <linearGradient
       id="linear-gradient-23-2-0"
       x1="90.690002"
       y1="50.650002"
       x2="89.5"
       y2="50.650002"
       xlink:href="#linear-gradient" />
    <linearGradient
       id="linear-gradient-24-2-2"
       x1="10.53"
       y1="50.700001"
       x2="7.4699998"
       y2="50.700001"
       xlink:href="#linear-gradient" />
    <linearGradient
       id="linear-gradient-25-8-3"
       x1="18.629999"
       y1="55.82"
       x2="17.969999"
       y2="55.82"
       xlink:href="#linear-gradient" />
    <linearGradient
       id="linear-gradient-26-9-7"
       x1="18.610001"
       y1="61.700001"
       x2="37.490002"
       y2="61.700001"
       xlink:href="#linear-gradient" />
    <linearGradient
       id="linear-gradient-27-7-5"
       x1="45.59"
       y1="71.389999"
       x2="44.93"
       y2="71.389999"
       xlink:href="#linear-gradient" />
    <linearGradient
       id="linear-gradient-28-3-9"
       x1="52.860001"
       y1="62.110001"
       x2="89.519997"
       y2="62.110001"
       xlink:href="#linear-gradient" />
    <linearGradient
       id="linear-gradient-29-6-2"
       x1="45.57"
       y1="72.290001"
       x2="47.209999"
       y2="72.290001"
       xlink:href="#linear-gradient" />
    <linearGradient
       id="linear-gradient-30-1-2"
       x1="52.880001"
       y1="73.099998"
       x2="47.200001"
       y2="73.099998"
       xlink:href="#linear-gradient" />
    <linearGradient
       id="linear-gradient-31-2-8"
       x1="14.59"
       y1="43.23"
       x2="16.59"
       y2="43.23"
       xlink:href="#linear-gradient-5" />
    <linearGradient
       id="linear-gradient-32-9-9"
       x1="17.41"
       y1="41.59"
       x2="19.41"
       y2="41.59"
       xlink:href="#linear-gradient-5" />
    <linearGradient
       id="linear-gradient-33-3-7"
       x1="20.23"
       y1="39.950001"
       x2="22.23"
       y2="39.950001"
       xlink:href="#linear-gradient-5" />
    <linearGradient
       id="linear-gradient-34-1-3"
       x1="23.049999"
       y1="38.310001"
       x2="25.049999"
       y2="38.310001"
       xlink:href="#linear-gradient-5" />
    <linearGradient
       id="linear-gradient-35-9-6"
       x1="71.230003"
       y1="54.689999"
       x2="73.220001"
       y2="54.689999"
       xlink:href="#linear-gradient-5" />
    <linearGradient
       id="linear-gradient-36-4-1"
       x1="74.040001"
       y1="53.060001"
       x2="76.040001"
       y2="53.060001"
       xlink:href="#linear-gradient-5" />
    <linearGradient
       id="linear-gradient-37-7-2"
       x1="76.860001"
       y1="51.419998"
       x2="78.860001"
       y2="51.419998"
       xlink:href="#linear-gradient-5" />
    <linearGradient
       id="linear-gradient-38-8-9"
       x1="79.68"
       y1="49.779999"
       x2="81.68"
       y2="49.779999"
       xlink:href="#linear-gradient-5" />
    <linearGradient
       id="linear-gradient-39-4-3"
       x1="25.610001"
       y1="44.259998"
       x2="26.23"
       y2="44.259998"
       xlink:href="#linear-gradient" />
    <linearGradient
       id="linear-gradient-40-5-1"
       x1="71.360001"
       y1="45.91"
       x2="71.980003"
       y2="45.91"
       xlink:href="#linear-gradient" />
    <linearGradient
       id="linear-gradient-41-0-9"
       x1="55.970001"
       y1="48.799999"
       x2="67.150002"
       y2="55.25"
       xlink:href="#linear-gradient" />
    <linearGradient
       id="linear-gradient-42-3-4"
       x1="25.530001"
       y1="44.290001"
       x2="49.509998"
       y2="58.130001"
       xlink:href="#linear-gradient" />
    <linearGradient
       id="linear-gradient-43-6-7"
       x1="48.799999"
       y1="57.900002"
       x2="51.759998"
       y2="57.900002"
       xlink:href="#linear-gradient" />
    <linearGradient
       id="linear-gradient-44-1-8"
       x1="40.400002"
       y1="42.799999"
       x2="53.099998"
       y2="42.799999"
       xlink:href="#linear-gradient-5" />
    <linearGradient
       id="linear-gradient-45-0-4"
       x1="37.290001"
       y1="47.57"
       x2="50.869999"
       y2="47.57"
       xlink:href="#linear-gradient-5" />
    <linearGradient
       id="linear-gradient-46-6-5"
       x1="59.73"
       y1="45.610001"
       x2="71.160004"
       y2="45.610001"
       xlink:href="#linear-gradient-5" />
    <linearGradient
       id="linear-gradient-47-3-0"
       x1="46.630001"
       y1="46.669998"
       x2="62.630001"
       y2="46.669998"
       xlink:href="#linear-gradient-5" />
    <linearGradient
       id="linear-gradient-48-2-3"
       x1="44.950001"
       y1="33.110001"
       x2="56.029999"
       y2="33.110001"
       xlink:href="#linear-gradient-5" />
    <linearGradient
       id="linear-gradient-49-0-6"
       x1="51.110001"
       y1="38.509998"
       x2="57.790001"
       y2="38.509998"
       xlink:href="#linear-gradient-5" />
    <linearGradient
       id="linear-gradient-50-6-1"
       x1="55.119999"
       y1="38.77"
       x2="63.07"
       y2="38.77"
       xlink:href="#linear-gradient-5" />
    <linearGradient
       id="linear-gradient-51-1-0"
       x1="59.43"
       y1="42.099998"
       x2="65.709999"
       y2="42.099998"
       xlink:href="#linear-gradient-5" />
    <linearGradient
       id="linear-gradient-52-5-6"
       x1="29.32"
       y1="42.490002"
       x2="35.93"
       y2="42.490002"
       xlink:href="#linear-gradient-5" />
    <linearGradient
       id="linear-gradient-53-5-3"
       x1="31.65"
       y1="42.82"
       x2="52.52"
       y2="42.82"
       xlink:href="#linear-gradient-5" />
    <linearGradient
       id="linear-gradient-54-4-2"
       x1="33.990002"
       y1="36.360001"
       x2="43.900002"
       y2="36.360001"
       xlink:href="#linear-gradient-5" />
    <linearGradient
       id="linear-gradient-55-7-0"
       x1="41.560001"
       y1="35.919998"
       x2="47.75"
       y2="35.919998"
       xlink:href="#linear-gradient-5" />
    <linearGradient
       id="linear-gradient-56-6-6"
       x1="28.17"
       y1="43.16"
       x2="30.950001"
       y2="43.16"
       xlink:href="#linear-gradient-5" />
    <linearGradient
       id="linear-gradient-57-5-1"
       x1="35.200001"
       y1="49.889999"
       x2="48.830002"
       y2="49.889999"
       xlink:href="#linear-gradient-5" />
    <linearGradient
       id="linear-gradient-58-6-5"
       x1="45.02"
       y1="54.27"
       x2="48.75"
       y2="54.27"
       xlink:href="#linear-gradient-5" />
    <linearGradient
       id="linear-gradient-59-9-5"
       x1="66.980003"
       y1="41.41"
       x2="49.759998"
       y2="41.41"
       xlink:href="#linear-gradient-20" />
    <linearGradient
       id="linear-gradient-60-3-4"
       x1="48.240002"
       y1="30.59"
       x2="31.02"
       y2="30.59"
       xlink:href="#linear-gradient-20" />
    <linearGradient
       id="linear-gradient-61-7-7"
       x1="45.52"
       y1="41.900002"
       x2="32.169998"
       y2="41.900002"
       xlink:href="#linear-gradient-20" />
    <linearGradient
       id="linear-gradient-62-4-6"
       x1="65.830002"
       y1="30.1"
       x2="52.48"
       y2="30.1"
       xlink:href="#linear-gradient-20" />
    <linearGradient
       id="linear-gradient-63-5-5"
       x1="31.49"
       y1="36"
       x2="66.519997"
       y2="36"
       xlink:href="#linear-gradient-20" />
    <linearGradient
       id="linear-gradient-64-2-6"
       x1="34.310001"
       y1="36"
       x2="63.689999"
       y2="36"
       xlink:href="#linear-gradient-5" />
  </defs>
  <g
     inkscape:groupmode="layer"
     id="layer2"
     inkscape:label="facade">
    <path
       class="st0"
       d="M 462.14862,10.863321 H 65.851377 c -26.002588,0 -47.084816,21.082229 -47.084816,47.084819 v 87.7975 c 0,13.54473 10.97861,24.52334 24.523346,24.52334 13.54473,0 24.52334,-10.98253 24.52334,-24.52334 0,13.54473 10.97861,24.52334 24.52334,24.52334 13.544743,0 24.523353,-10.97861 24.523353,-24.52334 0,13.54473 10.97861,24.52334 24.52334,24.52334 13.54474,0 24.52335,-10.98253 24.52335,-24.52334 0,13.54473 10.97861,24.52334 24.52334,24.52334 13.54473,0 24.52334,-10.97861 24.52334,-24.52334 0,13.54473 10.97861,24.52334 24.52335,24.52334 13.54473,0 24.52334,-10.98253 24.52334,-24.52334 0,13.54473 10.97861,24.52334 24.52334,24.52334 13.54474,0 24.52335,-10.97861 24.52335,-24.52334 0,13.54473 10.97861,24.52334 24.52334,24.52334 13.54474,0 24.52335,-10.98253 24.52335,-24.52334 0,13.54473 10.97861,24.52334 24.52334,24.52334 13.54473,0 24.52334,-10.97861 24.52334,-24.52334 0,13.54473 10.97861,24.52334 24.52335,24.52334 13.54473,0 24.52334,-10.97861 24.52334,-24.52334 0,13.54473 10.97861,24.52334 24.52334,24.52334 13.54474,0 24.52335,-10.97861 24.52335,-24.52334 v -87.7975 c 0,-26.00259 -21.08223,-47.084819 -47.08482,-47.084819 z"
       id="path1"
       style="fill:#cff1fb;stroke-width:3.92373" />
    <path
       class="st2"
       d="m 484.71009,211.47212 v -41.20314 c -13.54473,0 -24.52334,-10.97861 -24.52334,-24.52334 0,13.54473 -10.97861,24.52334 -24.52334,24.52334 -13.54474,0 -24.52335,-10.97861 -24.52335,-24.52334 0,13.54473 -10.97861,24.52334 -24.52334,24.52334 -13.54473,0 -24.52334,-10.98253 -24.52334,-24.52334 0,13.54473 -10.97861,24.52334 -24.52335,24.52334 -13.54473,0 -24.52334,-10.97861 -24.52334,-24.52334 0,13.54473 -10.97861,24.52334 -24.52335,24.52334 -13.54473,0 -24.52334,-10.98253 -24.52334,-24.52334 0,13.54473 -10.97861,24.52334 -24.52334,24.52334 -13.54474,0 -24.52335,-10.97861 -24.52335,-24.52334 0,13.54473 -10.97861,24.52334 -24.52334,24.52334 -13.54473,0 -24.52334,-10.98253 -24.52334,-24.52334 0,13.54473 -10.97861,24.52334 -24.52335,24.52334 -13.54473,0 -24.52334,-10.97861 -24.52334,-24.52334 0,13.54473 -10.97861,24.52334 -24.523353,24.52334 -13.54473,0 -24.52334,-10.98253 -24.52334,-24.52334 0,13.54473 -10.97861,24.52334 -24.52334,24.52334 v 229.04411 c 0,6.50163 4.74379,11.7712 10.59408,11.7712 H 474.11601 c 5.85029,0 10.59408,-5.26957 10.59408,-11.7712 v -58.75401 c 0,0 1.862,-89.78987 0,-129.08696 z"
       id="path2"
       style="fill:#f6f7f7;stroke-width:3.92373"
       sodipodi:nodetypes="cccscscscscscscscsccsssscc" />
    <path
       class="st4"
       d="M 462.14862,10.863321 H 65.851377 c -26.002588,0 -47.084816,21.082229 -47.084816,47.084819 H 509.23344 c 0,-26.00259 -21.08223,-47.084819 -47.08482,-47.084819 z"
       id="path6"
       style="fill:#ffa77b;stroke-width:3.92373" />
    <g
       id="g24"
       transform="matrix(3.923735,0,0,3.923735,12.880958,-40.145231)">
      <path
         class="st7"
         d="M 22.359,23.5 H 1.5 C 0.672,23.5 0,24.172 0,25 c 0,0.828 0.672,1.5 1.5,1.5 h 20.859 c 0.828,0 1.5,-0.672 1.5,-1.5 0,-0.828 -0.672,-1.5 -1.5,-1.5 z"
         id="path7"
         style="fill:#f98770" />
      <path
         class="st7"
         d="M 126.5,23.5 H 31.854 c -0.828,0 -1.5,0.672 -1.5,1.5 0,0.828 0.672,1.5 1.5,1.5 H 126.5 c 0.828,0 1.5,-0.672 1.5,-1.5 0,-0.828 -0.672,-1.5 -1.5,-1.5 z"
         id="path8"
         style="fill:#f98770" />
      <path
         class="st6"
         d="M 114.5,11.5 H 13.5 C 6.056,11.5 0,17.556 0,25 v 22.376 c 0,4.273 3.477,7.75 7.75,7.75 2.562,0 4.838,-1.25 6.25,-3.172 1.412,1.922 3.687,3.172 6.25,3.172 2.562,0 4.838,-1.25 6.25,-3.172 1.412,1.922 3.687,3.172 6.25,3.172 2.562,0 4.838,-1.25 6.25,-3.172 1.412,1.922 3.687,3.172 6.25,3.172 2.562,0 4.838,-1.25 6.25,-3.172 1.412,1.922 3.687,3.172 6.25,3.172 2.562,0 4.838,-1.25 6.25,-3.172 1.412,1.922 3.687,3.172 6.25,3.172 2.562,0 4.838,-1.25 6.25,-3.172 1.412,1.922 3.687,3.172 6.25,3.172 2.562,0 4.838,-1.25 6.25,-3.172 1.412,1.922 3.687,3.172 6.25,3.172 2.562,0 4.838,-1.25 6.25,-3.172 1.412,1.922 3.687,3.172 6.25,3.172 2.562,0 4.838,-1.25 6.25,-3.172 1.412,1.922 3.687,3.172 6.25,3.172 4.273,0 7.75,-3.477 7.75,-7.75 V 25 c 0,-7.444 -6.056,-13.5 -13.5,-13.5 z M 125,47.376 c 0,2.619 -2.131,4.75 -4.75,4.75 -2.619,0 -4.75,-2.131 -4.75,-4.75 0,-0.828 -0.672,-1.5 -1.5,-1.5 -0.828,0 -1.5,0.672 -1.5,1.5 0,2.619 -2.131,4.75 -4.75,4.75 -2.619,0 -4.75,-2.131 -4.75,-4.75 0,-0.828 -0.672,-1.5 -1.5,-1.5 -0.828,0 -1.5,0.672 -1.5,1.5 0,2.619 -2.131,4.75 -4.75,4.75 -2.619,0 -4.75,-2.131 -4.75,-4.75 0,-0.828 -0.672,-1.5 -1.5,-1.5 -0.828,0 -1.5,0.672 -1.5,1.5 0,2.619 -2.131,4.75 -4.75,4.75 -2.619,0 -4.75,-2.131 -4.75,-4.75 0,-0.828 -0.672,-1.5 -1.5,-1.5 -0.828,0 -1.5,0.672 -1.5,1.5 0,2.619 -2.131,4.75 -4.75,4.75 -2.619,0 -4.75,-2.131 -4.75,-4.75 0,-0.828 -0.672,-1.5 -1.5,-1.5 -0.828,0 -1.5,0.672 -1.5,1.5 0,2.619 -2.131,4.75 -4.75,4.75 -2.619,0 -4.75,-2.131 -4.75,-4.75 0,-0.828 -0.672,-1.5 -1.5,-1.5 -0.828,0 -1.5,0.672 -1.5,1.5 0,2.619 -2.131,4.75 -4.75,4.75 -2.619,0 -4.75,-2.131 -4.75,-4.75 0,-0.828 -0.672,-1.5 -1.5,-1.5 -0.828,0 -1.5,0.672 -1.5,1.5 0,2.619 -2.131,4.75 -4.75,4.75 -2.619,0 -4.75,-2.131 -4.75,-4.75 0,-0.828 -0.672,-1.5 -1.5,-1.5 -0.828,0 -1.5,0.672 -1.5,1.5 0,2.619 -2.131,4.75 -4.75,4.75 -2.619,0 -4.75,-2.131 -4.75,-4.75 0,-0.828 -0.672,-1.5 -1.5,-1.5 -0.828,0 -1.5,0.672 -1.5,1.5 0,2.619 -2.131,4.75 -4.75,4.75 C 5.131,52.126 3,49.995 3,47.376 V 25 C 3,19.21 7.71,14.5 13.5,14.5 h 101 c 5.79,0 10.5,4.71 10.5,10.5 z"
         id="path9"
         style="fill:#746887" />
      <path
         class="st6"
         d="m 114,33.7 c -0.828,0 -1.5,0.672 -1.5,1.5 v 12.176 c 0,0.828 0.672,1.5 1.5,1.5 0.828,0 1.5,-0.672 1.5,-1.5 V 35.2 c 0,-0.828 -0.672,-1.5 -1.5,-1.5 z"
         id="path10"
         style="fill:#746887" />
      <path
         class="st6"
         d="m 101.5,33.7 c -0.828,0 -1.5,0.672 -1.5,1.5 v 12.176 c 0,0.828 0.672,1.5 1.5,1.5 0.828,0 1.5,-0.672 1.5,-1.5 V 35.2 c 0,-0.828 -0.672,-1.5 -1.5,-1.5 z"
         id="path11"
         style="fill:#746887" />
      <path
         class="st6"
         d="m 89,33.7 c -0.828,0 -1.5,0.672 -1.5,1.5 v 12.176 c 0,0.828 0.672,1.5 1.5,1.5 0.828,0 1.5,-0.672 1.5,-1.5 V 35.2 c 0,-0.828 -0.672,-1.5 -1.5,-1.5 z"
         id="path12"
         style="fill:#746887" />
      <path
         class="st6"
         d="m 76.5,33.7 c -0.828,0 -1.5,0.672 -1.5,1.5 v 12.176 c 0,0.828 0.672,1.5 1.5,1.5 0.828,0 1.5,-0.672 1.5,-1.5 V 35.2 c 0,-0.828 -0.672,-1.5 -1.5,-1.5 z"
         id="path13"
         style="fill:#746887" />
      <path
         class="st6"
         d="m 64,33.7 c -0.828,0 -1.5,0.672 -1.5,1.5 v 12.176 c 0,0.828 0.672,1.5 1.5,1.5 0.828,0 1.5,-0.672 1.5,-1.5 V 35.2 c 0,-0.828 -0.672,-1.5 -1.5,-1.5 z"
         id="path14"
         style="fill:#746887" />
      <path
         class="st6"
         d="m 51.5,33.7 c -0.828,0 -1.5,0.672 -1.5,1.5 v 12.176 c 0,0.828 0.672,1.5 1.5,1.5 0.828,0 1.5,-0.672 1.5,-1.5 V 35.2 c 0,-0.828 -0.672,-1.5 -1.5,-1.5 z"
         id="path15"
         style="fill:#746887" />
      <path
         class="st6"
         d="m 39,33.7 c -0.828,0 -1.5,0.672 -1.5,1.5 v 12.176 c 0,0.828 0.672,1.5 1.5,1.5 0.828,0 1.5,-0.672 1.5,-1.5 V 35.2 c 0,-0.828 -0.672,-1.5 -1.5,-1.5 z"
         id="path16"
         style="fill:#746887" />
      <path
         class="st6"
         d="m 26.5,33.7 c -0.828,0 -1.5,0.672 -1.5,1.5 v 12.176 c 0,0.828 0.672,1.5 1.5,1.5 0.828,0 1.5,-0.672 1.5,-1.5 V 35.2 c 0,-0.828 -0.672,-1.5 -1.5,-1.5 z"
         id="path17"
         style="fill:#746887" />
      <path
         class="st6"
         d="m 14,33.7 c -0.828,0 -1.5,0.672 -1.5,1.5 v 12.176 c 0,0.828 0.672,1.5 1.5,1.5 0.828,0 1.5,-0.672 1.5,-1.5 V 35.2 c 0,-0.828 -0.672,-1.5 -1.5,-1.5 z"
         id="path18"
         style="fill:#746887" />
      <path
         class="st6"
         d="m 121.75003,63.425 -3e-5,-9.799 c 0,-0.828 -0.672,-1.5 -1.5,-1.5 -2.619,0 -4.75,-2.131 -4.75,-4.75 0,-0.828 -0.672,-1.5 -1.5,-1.5 -0.828,0 -1.5,0.672 -1.5,1.5 0,2.619 -2.131,4.75 -4.75,4.75 -2.619,0 -4.75,-2.131 -4.75,-4.75 0,-0.828 -0.672,-1.5 -1.5,-1.5 -0.828,0 -1.5,0.672 -1.5,1.5 0,2.619 -2.131,4.75 -4.75,4.75 -2.619,0 -4.75,-2.131 -4.75,-4.75 0,-0.828 -0.672,-1.5 -1.5,-1.5 -0.828,0 -1.5,0.672 -1.5,1.5 0,2.619 -2.131,4.75 -4.75,4.75 -2.619,0 -4.75,-2.131 -4.75,-4.75 0,-0.828 -0.672,-1.5 -1.5,-1.5 -0.828,0 -1.5,0.672 -1.5,1.5 0,2.619 -2.131,4.75 -4.75,4.75 -2.619,0 -4.75,-2.131 -4.75,-4.75 0,-0.828 -0.672,-1.5 -1.5,-1.5 -0.828,0 -1.5,0.672 -1.5,1.5 0,2.619 -2.131,4.75 -4.75,4.75 -2.619,0 -4.75,-2.131 -4.75,-4.75 0,-0.828 -0.672,-1.5 -1.5,-1.5 -0.828,0 -1.5,0.672 -1.5,1.5 0,2.619 -2.131,4.75 -4.75,4.75 -2.619,0 -4.75,-2.131 -4.75,-4.75 0,-0.828 -0.672,-1.5 -1.5,-1.5 -0.828,0 -1.5,0.672 -1.5,1.5 0,2.619 -2.131,4.75 -4.75,4.75 -2.619,0 -4.75,-2.131 -4.75,-4.75 0,-0.828 -0.672,-1.5 -1.5,-1.5 -0.828,0 -1.5,0.672 -1.5,1.5 0,2.619 -2.131,4.75 -4.75,4.75 -2.619,0 -4.75,-2.131 -4.75,-4.75 0,-0.828 -0.672,-1.5 -1.5,-1.5 -0.828,0 -1.5,0.672 -1.5,1.5 0,2.619 -2.131,4.75 -4.75,4.75 -0.828,0 -1.5,0.672 -1.5,1.5 l 7e-7,51.40043 c 0,0.828 0.672,1.5 1.5,1.5 0.828,0 1.5,-0.672 1.5,-1.5 L 9.25,54.98 c 1.939,-0.382 3.621,-1.489 4.75,-3.026 1.412,1.922 3.687,3.172 6.25,3.172 2.562,0 4.838,-1.25 6.25,-3.172 1.412,1.922 3.687,3.172 6.25,3.172 2.562,0 4.838,-1.25 6.25,-3.172 1.412,1.922 3.687,3.172 6.25,3.172 2.562,0 4.838,-1.25 6.25,-3.172 1.412,1.922 3.687,3.172 6.25,3.172 2.562,0 4.838,-1.25 6.25,-3.172 1.412,1.922 3.687,3.172 6.25,3.172 2.562,0 4.838,-1.25 6.25,-3.172 1.412,1.922 3.687,3.172 6.25,3.172 2.562,0 4.838,-1.25 6.25,-3.172 1.412,1.922 3.687,3.172 6.25,3.172 2.562,0 4.838,-1.25 6.25,-3.172 1.412,1.922 3.687,3.172 6.25,3.172 2.562,0 4.838,-1.25 6.25,-3.172 1.129,1.537 2.811,2.645 4.75,3.026 l 8e-5,9.146 v 13.583338 c 0,0 -8e-5,19.061107 -8e-5,19.315662 V 112 c 0,0.813 -0.55,1.5 -1.2,1.5 H 10.45 c -0.65,0 -1.2,-0.687 -1.2,-1.5 v -6.991 c 0,-0.828 -0.672,-1.5 -1.5,-1.5 -0.828,0 -1.5,0.672 -1.5,1.5 V 112 c 0,2.481 1.884,4.5 4.2,4.5 h 107.1 c 2.316,0 4.2,-2.019 4.2,-4.5 V 97.494 l 3e-5,-19.869 z"
         id="path20"
         style="fill:#746887"
         sodipodi:nodetypes="cssssssssssssssssssssssssssssssssssssssssssccscscscscscscscsccscssssssssssssccc" />
    </g>
  </g>
</svg>
