<?xml version="1.0" encoding="UTF-8" standalone="no"?>
<!-- Created with Inkscape (http://www.inkscape.org/) -->

<svg
   width="384pt"
   height="317.74399pt"
   viewBox="0 0 512.00016 423.65852"
   version="1.1"
   id="svg5"
   inkscape:version="1.1.2 (0a00cf5339, 2022-02-04)"
   sodipodi:docname="robot-ingredients.svg"
   xmlns:inkscape="http://www.inkscape.org/namespaces/inkscape"
   xmlns:sodipodi="http://sodipodi.sourceforge.net/DTD/sodipodi-0.dtd"
   xmlns:xlink="http://www.w3.org/1999/xlink"
   xmlns="http://www.w3.org/2000/svg"
   xmlns:svg="http://www.w3.org/2000/svg">
  <sodipodi:namedview
     id="namedview7"
     pagecolor="#ffffff"
     bordercolor="#666666"
     borderopacity="1.0"
     inkscape:pageshadow="2"
     inkscape:pageopacity="0.0"
     inkscape:pagecheckerboard="0"
     inkscape:document-units="px"
     showgrid="false"
     inkscape:zoom="0.66574073"
     inkscape:cx="965.09042"
     inkscape:cy="238.83172"
     inkscape:window-width="1868"
     inkscape:window-height="1016"
     inkscape:window-x="1972"
     inkscape:window-y="27"
     inkscape:window-maximized="1"
     inkscape:current-layer="layer2"
     showguides="true"
     inkscape:guide-bbox="true"
     units="pt"
     inkscape:showpageshadow="2"
     inkscape:deskcolor="#d1d1d1" />
  <defs
     id="defs2">
    <linearGradient
       id="linear-gradient"
       x1="10.52"
       y1="52.75"
       x2="18.59"
       y2="52.75"
       gradientUnits="userSpaceOnUse">
      <stop
         offset="0"
         stop-color="#00b4d8"
         id="stop4" />
      <stop
         offset="1"
         stop-color="#0096c7"
         id="stop6" />
    </linearGradient>
    <linearGradient
       id="linear-gradient-2-9"
       x1="38.669998"
       y1="63.200001"
       x2="44.509998"
       y2="73.330002"
       xlink:href="#linear-gradient" />
    <linearGradient
       id="linear-gradient-3-1"
       x1="80.419998"
       y1="44.16"
       x2="79.809998"
       y2="44.16"
       xlink:href="#linear-gradient" />
    <linearGradient
       id="linear-gradient-4-2"
       x1="53.459999"
       y1="28.6"
       x2="52.849998"
       y2="28.6"
       xlink:href="#linear-gradient" />
    <linearGradient
       id="linear-gradient-5"
       x1="76.760002"
       y1="64"
       x2="66.25"
       y2="64"
       gradientUnits="userSpaceOnUse">
      <stop
         offset="0"
         stop-color="#ffd500"
         id="stop12" />
      <stop
         offset="1"
         stop-color="#fdc500"
         id="stop14" />
    </linearGradient>
    <linearGradient
       id="linear-gradient-6-9"
       x1="73.309998"
       y1="66"
       x2="62.790001"
       y2="66"
       xlink:href="#linear-gradient-5" />
    <linearGradient
       id="linear-gradient-7-3"
       x1="69.800003"
       y1="68"
       x2="59.279999"
       y2="68"
       xlink:href="#linear-gradient-5" />
    <linearGradient
       id="linear-gradient-8-6"
       x1="66.389999"
       y1="70"
       x2="55.880001"
       y2="70"
       xlink:href="#linear-gradient-5" />
    <linearGradient
       id="linear-gradient-9-0"
       x1="80.220001"
       y1="62"
       x2="69.709999"
       y2="62"
       xlink:href="#linear-gradient-5" />
    <linearGradient
       id="linear-gradient-10-6"
       x1="83.68"
       y1="60"
       x2="73.160004"
       y2="60"
       xlink:href="#linear-gradient-5" />
    <linearGradient
       id="linear-gradient-11-2"
       x1="87.150002"
       y1="58"
       x2="76.629997"
       y2="58"
       xlink:href="#linear-gradient-5" />
    <linearGradient
       id="linear-gradient-12-6"
       x1="22.25"
       y1="34"
       x2="32.759998"
       y2="34"
       xlink:href="#linear-gradient-5" />
    <linearGradient
       id="linear-gradient-13-1"
       x1="18.799999"
       y1="36"
       x2="29.309999"
       y2="36"
       xlink:href="#linear-gradient-5" />
    <linearGradient
       id="linear-gradient-14-8"
       x1="15.28"
       y1="38"
       x2="25.799999"
       y2="38"
       xlink:href="#linear-gradient-5" />
    <linearGradient
       id="linear-gradient-15-7"
       x1="11.88"
       y1="40"
       x2="22.4"
       y2="40"
       xlink:href="#linear-gradient-5" />
    <linearGradient
       id="linear-gradient-16-9"
       x1="25.709999"
       y1="32"
       x2="36.220001"
       y2="32"
       xlink:href="#linear-gradient-5" />
    <linearGradient
       id="linear-gradient-17-2"
       x1="29.16"
       y1="30"
       x2="39.68"
       y2="30"
       xlink:href="#linear-gradient-5" />
    <linearGradient
       id="linear-gradient-18-0"
       x1="32.630001"
       y1="28"
       x2="43.139999"
       y2="28"
       xlink:href="#linear-gradient-5" />
    <linearGradient
       id="linear-gradient-19-2"
       x1="26.68"
       y1="23.92"
       x2="70.32"
       y2="67.559998"
       xlink:href="#linear-gradient" />
    <linearGradient
       inkscape:collect="always"
       xlink:href="#linear-gradient-20"
       id="linearGradient1165"
       gradientUnits="userSpaceOnUse"
       x1="20.15"
       y1="46"
       x2="77.82"
       y2="46" />
    <linearGradient
       id="linear-gradient-20"
       x1="20.15"
       y1="46"
       x2="77.82"
       y2="46"
       gradientUnits="userSpaceOnUse">
      <stop
         offset="0"
         stop-color="#caf0f8"
         id="stop31" />
      <stop
         offset="1"
         stop-color="#90e0ef"
         id="stop33" />
    </linearGradient>
    <linearGradient
       id="linear-gradient-21-5"
       x1="25.620001"
       y1="43.029999"
       x2="71.980003"
       y2="43.029999"
       xlink:href="#linear-gradient" />
    <linearGradient
       id="linear-gradient-22-9"
       x1="6.29"
       y1="48.990002"
       x2="7.4899998"
       y2="48.990002"
       xlink:href="#linear-gradient" />
    <linearGradient
       id="linear-gradient-23-2"
       x1="90.690002"
       y1="50.650002"
       x2="89.5"
       y2="50.650002"
       xlink:href="#linear-gradient" />
    <linearGradient
       id="linear-gradient-24-2"
       x1="10.53"
       y1="50.700001"
       x2="7.4699998"
       y2="50.700001"
       xlink:href="#linear-gradient" />
    <linearGradient
       id="linear-gradient-25-8"
       x1="18.629999"
       y1="55.82"
       x2="17.969999"
       y2="55.82"
       xlink:href="#linear-gradient" />
    <linearGradient
       id="linear-gradient-26-9"
       x1="18.610001"
       y1="61.700001"
       x2="37.490002"
       y2="61.700001"
       xlink:href="#linear-gradient" />
    <linearGradient
       id="linear-gradient-27-7"
       x1="45.59"
       y1="71.389999"
       x2="44.93"
       y2="71.389999"
       xlink:href="#linear-gradient" />
    <linearGradient
       id="linear-gradient-28-3"
       x1="52.860001"
       y1="62.110001"
       x2="89.519997"
       y2="62.110001"
       xlink:href="#linear-gradient" />
    <linearGradient
       id="linear-gradient-29-6"
       x1="45.57"
       y1="72.290001"
       x2="47.209999"
       y2="72.290001"
       xlink:href="#linear-gradient" />
    <linearGradient
       id="linear-gradient-30-1"
       x1="52.880001"
       y1="73.099998"
       x2="47.200001"
       y2="73.099998"
       xlink:href="#linear-gradient" />
    <linearGradient
       id="linear-gradient-31-2"
       x1="14.59"
       y1="43.23"
       x2="16.59"
       y2="43.23"
       xlink:href="#linear-gradient-5" />
    <linearGradient
       id="linear-gradient-32-9"
       x1="17.41"
       y1="41.59"
       x2="19.41"
       y2="41.59"
       xlink:href="#linear-gradient-5" />
    <linearGradient
       id="linear-gradient-33-3"
       x1="20.23"
       y1="39.950001"
       x2="22.23"
       y2="39.950001"
       xlink:href="#linear-gradient-5" />
    <linearGradient
       id="linear-gradient-34-1"
       x1="23.049999"
       y1="38.310001"
       x2="25.049999"
       y2="38.310001"
       xlink:href="#linear-gradient-5" />
    <linearGradient
       id="linear-gradient-35-9"
       x1="71.230003"
       y1="54.689999"
       x2="73.220001"
       y2="54.689999"
       xlink:href="#linear-gradient-5" />
    <linearGradient
       id="linear-gradient-36-4"
       x1="74.040001"
       y1="53.060001"
       x2="76.040001"
       y2="53.060001"
       xlink:href="#linear-gradient-5" />
    <linearGradient
       id="linear-gradient-37-7"
       x1="76.860001"
       y1="51.419998"
       x2="78.860001"
       y2="51.419998"
       xlink:href="#linear-gradient-5" />
    <linearGradient
       id="linear-gradient-38-8"
       x1="79.68"
       y1="49.779999"
       x2="81.68"
       y2="49.779999"
       xlink:href="#linear-gradient-5" />
    <linearGradient
       id="linear-gradient-39-4"
       x1="25.610001"
       y1="44.259998"
       x2="26.23"
       y2="44.259998"
       xlink:href="#linear-gradient" />
    <linearGradient
       id="linear-gradient-40-5"
       x1="71.360001"
       y1="45.91"
       x2="71.980003"
       y2="45.91"
       xlink:href="#linear-gradient" />
    <linearGradient
       id="linear-gradient-41-0"
       x1="55.970001"
       y1="48.799999"
       x2="67.150002"
       y2="55.25"
       xlink:href="#linear-gradient" />
    <linearGradient
       id="linear-gradient-42-3"
       x1="25.530001"
       y1="44.290001"
       x2="49.509998"
       y2="58.130001"
       xlink:href="#linear-gradient" />
    <linearGradient
       id="linear-gradient-43-6"
       x1="48.799999"
       y1="57.900002"
       x2="51.759998"
       y2="57.900002"
       xlink:href="#linear-gradient" />
    <linearGradient
       id="linear-gradient-44-1"
       x1="40.400002"
       y1="42.799999"
       x2="53.099998"
       y2="42.799999"
       xlink:href="#linear-gradient-5" />
    <linearGradient
       id="linear-gradient-45-0"
       x1="37.290001"
       y1="47.57"
       x2="50.869999"
       y2="47.57"
       xlink:href="#linear-gradient-5" />
    <linearGradient
       id="linear-gradient-46-6"
       x1="59.73"
       y1="45.610001"
       x2="71.160004"
       y2="45.610001"
       xlink:href="#linear-gradient-5" />
    <linearGradient
       id="linear-gradient-47-3"
       x1="46.630001"
       y1="46.669998"
       x2="62.630001"
       y2="46.669998"
       xlink:href="#linear-gradient-5" />
    <linearGradient
       id="linear-gradient-48-2"
       x1="44.950001"
       y1="33.110001"
       x2="56.029999"
       y2="33.110001"
       xlink:href="#linear-gradient-5" />
    <linearGradient
       id="linear-gradient-49-0"
       x1="51.110001"
       y1="38.509998"
       x2="57.790001"
       y2="38.509998"
       xlink:href="#linear-gradient-5" />
    <linearGradient
       id="linear-gradient-50-6"
       x1="55.119999"
       y1="38.77"
       x2="63.07"
       y2="38.77"
       xlink:href="#linear-gradient-5" />
    <linearGradient
       id="linear-gradient-51-1"
       x1="59.43"
       y1="42.099998"
       x2="65.709999"
       y2="42.099998"
       xlink:href="#linear-gradient-5" />
    <linearGradient
       id="linear-gradient-52-5"
       x1="29.32"
       y1="42.490002"
       x2="35.93"
       y2="42.490002"
       xlink:href="#linear-gradient-5" />
    <linearGradient
       id="linear-gradient-53-5"
       x1="31.65"
       y1="42.82"
       x2="52.52"
       y2="42.82"
       xlink:href="#linear-gradient-5" />
    <linearGradient
       id="linear-gradient-54-4"
       x1="33.990002"
       y1="36.360001"
       x2="43.900002"
       y2="36.360001"
       xlink:href="#linear-gradient-5" />
    <linearGradient
       id="linear-gradient-55-7"
       x1="41.560001"
       y1="35.919998"
       x2="47.75"
       y2="35.919998"
       xlink:href="#linear-gradient-5" />
    <linearGradient
       id="linear-gradient-56-6"
       x1="28.17"
       y1="43.16"
       x2="30.950001"
       y2="43.16"
       xlink:href="#linear-gradient-5" />
    <linearGradient
       id="linear-gradient-57-5"
       x1="35.200001"
       y1="49.889999"
       x2="48.830002"
       y2="49.889999"
       xlink:href="#linear-gradient-5" />
    <linearGradient
       id="linear-gradient-58-6"
       x1="45.02"
       y1="54.27"
       x2="48.75"
       y2="54.27"
       xlink:href="#linear-gradient-5" />
    <linearGradient
       id="linear-gradient-59-9"
       x1="66.980003"
       y1="41.41"
       x2="49.759998"
       y2="41.41"
       xlink:href="#linear-gradient-20" />
    <linearGradient
       id="linear-gradient-60-3"
       x1="48.240002"
       y1="30.59"
       x2="31.02"
       y2="30.59"
       xlink:href="#linear-gradient-20" />
    <linearGradient
       id="linear-gradient-61-7"
       x1="45.52"
       y1="41.900002"
       x2="32.169998"
       y2="41.900002"
       xlink:href="#linear-gradient-20" />
    <linearGradient
       id="linear-gradient-62-4"
       x1="65.830002"
       y1="30.1"
       x2="52.48"
       y2="30.1"
       xlink:href="#linear-gradient-20" />
    <linearGradient
       id="linear-gradient-63-5"
       x1="31.49"
       y1="36"
       x2="66.519997"
       y2="36"
       xlink:href="#linear-gradient-20" />
    <linearGradient
       id="linear-gradient-64-2"
       x1="34.310001"
       y1="36"
       x2="63.689999"
       y2="36"
       xlink:href="#linear-gradient-5" />
    <linearGradient
       id="linear-gradient-2-9-7"
       x1="38.669998"
       y1="63.200001"
       x2="44.509998"
       y2="73.330002"
       xlink:href="#linear-gradient" />
    <linearGradient
       id="linear-gradient-3-1-5"
       x1="80.419998"
       y1="44.16"
       x2="79.809998"
       y2="44.16"
       xlink:href="#linear-gradient" />
    <linearGradient
       id="linear-gradient-4-2-3"
       x1="53.459999"
       y1="28.6"
       x2="52.849998"
       y2="28.6"
       xlink:href="#linear-gradient" />
    <linearGradient
       id="linear-gradient-6-9-2"
       x1="73.309998"
       y1="66"
       x2="62.790001"
       y2="66"
       xlink:href="#linear-gradient-5" />
    <linearGradient
       id="linear-gradient-7-3-9"
       x1="69.800003"
       y1="68"
       x2="59.279999"
       y2="68"
       xlink:href="#linear-gradient-5" />
    <linearGradient
       id="linear-gradient-8-6-1"
       x1="66.389999"
       y1="70"
       x2="55.880001"
       y2="70"
       xlink:href="#linear-gradient-5" />
    <linearGradient
       id="linear-gradient-9-0-2"
       x1="80.220001"
       y1="62"
       x2="69.709999"
       y2="62"
       xlink:href="#linear-gradient-5" />
    <linearGradient
       id="linear-gradient-10-6-7"
       x1="83.68"
       y1="60"
       x2="73.160004"
       y2="60"
       xlink:href="#linear-gradient-5" />
    <linearGradient
       id="linear-gradient-11-2-0"
       x1="87.150002"
       y1="58"
       x2="76.629997"
       y2="58"
       xlink:href="#linear-gradient-5" />
    <linearGradient
       id="linear-gradient-12-6-9"
       x1="22.25"
       y1="34"
       x2="32.759998"
       y2="34"
       xlink:href="#linear-gradient-5" />
    <linearGradient
       id="linear-gradient-13-1-3"
       x1="18.799999"
       y1="36"
       x2="29.309999"
       y2="36"
       xlink:href="#linear-gradient-5" />
    <linearGradient
       id="linear-gradient-14-8-6"
       x1="15.28"
       y1="38"
       x2="25.799999"
       y2="38"
       xlink:href="#linear-gradient-5" />
    <linearGradient
       id="linear-gradient-15-7-0"
       x1="11.88"
       y1="40"
       x2="22.4"
       y2="40"
       xlink:href="#linear-gradient-5" />
    <linearGradient
       id="linear-gradient-16-9-6"
       x1="25.709999"
       y1="32"
       x2="36.220001"
       y2="32"
       xlink:href="#linear-gradient-5" />
    <linearGradient
       id="linear-gradient-17-2-2"
       x1="29.16"
       y1="30"
       x2="39.68"
       y2="30"
       xlink:href="#linear-gradient-5" />
    <linearGradient
       id="linear-gradient-18-0-6"
       x1="32.630001"
       y1="28"
       x2="43.139999"
       y2="28"
       xlink:href="#linear-gradient-5" />
    <linearGradient
       id="linear-gradient-19-2-1"
       x1="26.68"
       y1="23.92"
       x2="70.32"
       y2="67.559998"
       xlink:href="#linear-gradient" />
    <linearGradient
       id="linear-gradient-21-5-9"
       x1="25.620001"
       y1="43.029999"
       x2="71.980003"
       y2="43.029999"
       xlink:href="#linear-gradient" />
    <linearGradient
       id="linear-gradient-22-9-2"
       x1="6.29"
       y1="48.990002"
       x2="7.4899998"
       y2="48.990002"
       xlink:href="#linear-gradient" />
    <linearGradient
       id="linear-gradient-23-2-0"
       x1="90.690002"
       y1="50.650002"
       x2="89.5"
       y2="50.650002"
       xlink:href="#linear-gradient" />
    <linearGradient
       id="linear-gradient-24-2-2"
       x1="10.53"
       y1="50.700001"
       x2="7.4699998"
       y2="50.700001"
       xlink:href="#linear-gradient" />
    <linearGradient
       id="linear-gradient-25-8-3"
       x1="18.629999"
       y1="55.82"
       x2="17.969999"
       y2="55.82"
       xlink:href="#linear-gradient" />
    <linearGradient
       id="linear-gradient-26-9-7"
       x1="18.610001"
       y1="61.700001"
       x2="37.490002"
       y2="61.700001"
       xlink:href="#linear-gradient" />
    <linearGradient
       id="linear-gradient-27-7-5"
       x1="45.59"
       y1="71.389999"
       x2="44.93"
       y2="71.389999"
       xlink:href="#linear-gradient" />
    <linearGradient
       id="linear-gradient-28-3-9"
       x1="52.860001"
       y1="62.110001"
       x2="89.519997"
       y2="62.110001"
       xlink:href="#linear-gradient" />
    <linearGradient
       id="linear-gradient-29-6-2"
       x1="45.57"
       y1="72.290001"
       x2="47.209999"
       y2="72.290001"
       xlink:href="#linear-gradient" />
    <linearGradient
       id="linear-gradient-30-1-2"
       x1="52.880001"
       y1="73.099998"
       x2="47.200001"
       y2="73.099998"
       xlink:href="#linear-gradient" />
    <linearGradient
       id="linear-gradient-31-2-8"
       x1="14.59"
       y1="43.23"
       x2="16.59"
       y2="43.23"
       xlink:href="#linear-gradient-5" />
    <linearGradient
       id="linear-gradient-32-9-9"
       x1="17.41"
       y1="41.59"
       x2="19.41"
       y2="41.59"
       xlink:href="#linear-gradient-5" />
    <linearGradient
       id="linear-gradient-33-3-7"
       x1="20.23"
       y1="39.950001"
       x2="22.23"
       y2="39.950001"
       xlink:href="#linear-gradient-5" />
    <linearGradient
       id="linear-gradient-34-1-3"
       x1="23.049999"
       y1="38.310001"
       x2="25.049999"
       y2="38.310001"
       xlink:href="#linear-gradient-5" />
    <linearGradient
       id="linear-gradient-35-9-6"
       x1="71.230003"
       y1="54.689999"
       x2="73.220001"
       y2="54.689999"
       xlink:href="#linear-gradient-5" />
    <linearGradient
       id="linear-gradient-36-4-1"
       x1="74.040001"
       y1="53.060001"
       x2="76.040001"
       y2="53.060001"
       xlink:href="#linear-gradient-5" />
    <linearGradient
       id="linear-gradient-37-7-2"
       x1="76.860001"
       y1="51.419998"
       x2="78.860001"
       y2="51.419998"
       xlink:href="#linear-gradient-5" />
    <linearGradient
       id="linear-gradient-38-8-9"
       x1="79.68"
       y1="49.779999"
       x2="81.68"
       y2="49.779999"
       xlink:href="#linear-gradient-5" />
    <linearGradient
       id="linear-gradient-39-4-3"
       x1="25.610001"
       y1="44.259998"
       x2="26.23"
       y2="44.259998"
       xlink:href="#linear-gradient" />
    <linearGradient
       id="linear-gradient-40-5-1"
       x1="71.360001"
       y1="45.91"
       x2="71.980003"
       y2="45.91"
       xlink:href="#linear-gradient" />
    <linearGradient
       id="linear-gradient-41-0-9"
       x1="55.970001"
       y1="48.799999"
       x2="67.150002"
       y2="55.25"
       xlink:href="#linear-gradient" />
    <linearGradient
       id="linear-gradient-42-3-4"
       x1="25.530001"
       y1="44.290001"
       x2="49.509998"
       y2="58.130001"
       xlink:href="#linear-gradient" />
    <linearGradient
       id="linear-gradient-43-6-7"
       x1="48.799999"
       y1="57.900002"
       x2="51.759998"
       y2="57.900002"
       xlink:href="#linear-gradient" />
    <linearGradient
       id="linear-gradient-44-1-8"
       x1="40.400002"
       y1="42.799999"
       x2="53.099998"
       y2="42.799999"
       xlink:href="#linear-gradient-5" />
    <linearGradient
       id="linear-gradient-45-0-4"
       x1="37.290001"
       y1="47.57"
       x2="50.869999"
       y2="47.57"
       xlink:href="#linear-gradient-5" />
    <linearGradient
       id="linear-gradient-46-6-5"
       x1="59.73"
       y1="45.610001"
       x2="71.160004"
       y2="45.610001"
       xlink:href="#linear-gradient-5" />
    <linearGradient
       id="linear-gradient-47-3-0"
       x1="46.630001"
       y1="46.669998"
       x2="62.630001"
       y2="46.669998"
       xlink:href="#linear-gradient-5" />
    <linearGradient
       id="linear-gradient-48-2-3"
       x1="44.950001"
       y1="33.110001"
       x2="56.029999"
       y2="33.110001"
       xlink:href="#linear-gradient-5" />
    <linearGradient
       id="linear-gradient-49-0-6"
       x1="51.110001"
       y1="38.509998"
       x2="57.790001"
       y2="38.509998"
       xlink:href="#linear-gradient-5" />
    <linearGradient
       id="linear-gradient-50-6-1"
       x1="55.119999"
       y1="38.77"
       x2="63.07"
       y2="38.77"
       xlink:href="#linear-gradient-5" />
    <linearGradient
       id="linear-gradient-51-1-0"
       x1="59.43"
       y1="42.099998"
       x2="65.709999"
       y2="42.099998"
       xlink:href="#linear-gradient-5" />
    <linearGradient
       id="linear-gradient-52-5-6"
       x1="29.32"
       y1="42.490002"
       x2="35.93"
       y2="42.490002"
       xlink:href="#linear-gradient-5" />
    <linearGradient
       id="linear-gradient-53-5-3"
       x1="31.65"
       y1="42.82"
       x2="52.52"
       y2="42.82"
       xlink:href="#linear-gradient-5" />
    <linearGradient
       id="linear-gradient-54-4-2"
       x1="33.990002"
       y1="36.360001"
       x2="43.900002"
       y2="36.360001"
       xlink:href="#linear-gradient-5" />
    <linearGradient
       id="linear-gradient-55-7-0"
       x1="41.560001"
       y1="35.919998"
       x2="47.75"
       y2="35.919998"
       xlink:href="#linear-gradient-5" />
    <linearGradient
       id="linear-gradient-56-6-6"
       x1="28.17"
       y1="43.16"
       x2="30.950001"
       y2="43.16"
       xlink:href="#linear-gradient-5" />
    <linearGradient
       id="linear-gradient-57-5-1"
       x1="35.200001"
       y1="49.889999"
       x2="48.830002"
       y2="49.889999"
       xlink:href="#linear-gradient-5" />
    <linearGradient
       id="linear-gradient-58-6-5"
       x1="45.02"
       y1="54.27"
       x2="48.75"
       y2="54.27"
       xlink:href="#linear-gradient-5" />
    <linearGradient
       id="linear-gradient-59-9-5"
       x1="66.980003"
       y1="41.41"
       x2="49.759998"
       y2="41.41"
       xlink:href="#linear-gradient-20" />
    <linearGradient
       id="linear-gradient-60-3-4"
       x1="48.240002"
       y1="30.59"
       x2="31.02"
       y2="30.59"
       xlink:href="#linear-gradient-20" />
    <linearGradient
       id="linear-gradient-61-7-7"
       x1="45.52"
       y1="41.900002"
       x2="32.169998"
       y2="41.900002"
       xlink:href="#linear-gradient-20" />
    <linearGradient
       id="linear-gradient-62-4-6"
       x1="65.830002"
       y1="30.1"
       x2="52.48"
       y2="30.1"
       xlink:href="#linear-gradient-20" />
    <linearGradient
       id="linear-gradient-63-5-5"
       x1="31.49"
       y1="36"
       x2="66.519997"
       y2="36"
       xlink:href="#linear-gradient-20" />
    <linearGradient
       id="linear-gradient-64-2-6"
       x1="34.310001"
       y1="36"
       x2="63.689999"
       y2="36"
       xlink:href="#linear-gradient-5" />
  </defs>
  <g
     inkscape:groupmode="layer"
     id="layer2"
     inkscape:label="facade">
    <path
       class="st0"
       d="M 454.60102,10.552267 H 58.303755 c -26.002588,0 -47.084818,21.082232 -47.084818,47.084822 v 87.797521 c 0,13.54473 10.978612,24.52334 24.523348,24.52334 13.54473,0 24.52334,-10.98253 24.52334,-24.52334 0,13.54473 10.97861,24.52334 24.52334,24.52334 13.54474,0 24.523375,-10.97861 24.523375,-24.52334 0,13.54473 10.97861,24.52334 24.52334,24.52334 13.54474,0 24.52335,-10.98253 24.52335,-24.52334 0,13.54473 10.97861,24.52334 24.52334,24.52334 13.54473,0 24.52334,-10.97861 24.52334,-24.52334 0,13.54473 10.97861,24.52334 24.52335,24.52334 13.54473,0 24.52334,-10.98253 24.52334,-24.52334 0,13.54473 10.97861,24.52334 24.52334,24.52334 13.54474,0 24.52335,-10.97861 24.52335,-24.52334 0,13.54473 10.97861,24.52334 24.52334,24.52334 13.54474,0 24.52335,-10.98253 24.52335,-24.52334 0,13.54473 10.97861,24.52334 24.52334,24.52334 13.54473,0 24.52334,-10.97861 24.52334,-24.52334 0,13.54473 10.97861,24.52334 24.52335,24.52334 13.54473,0 24.52334,-10.97861 24.52334,-24.52334 0,13.54473 10.97861,24.52334 24.52334,24.52334 13.54474,0 24.52335,-10.97861 24.52335,-24.52334 V 57.637089 c 0,-26.00259 -21.08223,-47.084822 -47.08482,-47.084822 z"
       id="path1"
       style="fill:#cff1fb;stroke-width:3.92373" />
    <path
       class="st4"
       d="M 454.60102,10.552267 H 58.303755 c -26.002588,0 -47.084818,21.082232 -47.084818,47.084822 H 501.68584 c 0,-26.00259 -21.08223,-47.084822 -47.08482,-47.084822 z"
       id="path6"
       style="fill:#ffa77b;stroke-width:3.92373" />
    <path
       class="st7"
       d="M 93.064125,51.751489 H 11.218937 c -3.2488534,0 -5.8856035,2.63675 -5.8856035,5.8856 0,3.24886 2.6367501,5.88561 5.8856035,5.88561 h 81.845188 c 3.24885,0 5.8856,-2.63675 5.8856,-5.88561 0,-3.24885 -2.63675,-5.8856 -5.8856,-5.8856 z"
       id="path7"
       style="fill:#f98770;stroke-width:3.92373" />
    <path
       class="st7"
       d="M 501.68584,51.751489 H 130.32002 c -3.24886,0 -5.88561,2.63675 -5.88561,5.8856 0,3.24886 2.63675,5.88561 5.88561,5.88561 h 371.36582 c 3.24885,0 5.8856,-2.63675 5.8856,-5.88561 0,-3.24885 -2.63675,-5.8856 -5.8856,-5.8856 z"
       id="path8"
       style="fill:#f98770;stroke-width:3.92373" />
    <path
       class="st6"
       d="M 454.60102,4.6666668 H 58.303755 c -29.20828,0 -52.9704215,23.7621422 -52.9704215,52.9704222 v 87.797521 c 0,16.76612 13.6428295,30.40894 30.4089515,30.40894 10.05261,0 18.98303,-4.90466 24.52334,-12.44608 5.54031,7.54142 14.46681,12.44608 24.52334,12.44608 10.05261,0 18.983045,-4.90466 24.523375,-12.44608 5.54031,7.54142 14.46681,12.44608 24.52334,12.44608 10.05261,0 18.98303,-4.90466 24.52335,-12.44608 5.54031,7.54142 14.46681,12.44608 24.52334,12.44608 10.05261,0 18.98303,-4.90466 24.52334,-12.44608 5.54032,7.54142 14.46681,12.44608 24.52335,12.44608 10.05261,0 18.98303,-4.90466 24.52334,-12.44608 5.54031,7.54142 14.46681,12.44608 24.52334,12.44608 10.05261,0 18.98303,-4.90466 24.52335,-12.44608 5.54031,7.54142 14.46681,12.44608 24.52334,12.44608 10.05261,0 18.98303,-4.90466 24.52335,-12.44608 5.54031,7.54142 14.46681,12.44608 24.52334,12.44608 10.05261,0 18.98303,-4.90466 24.52334,-12.44608 5.54032,7.54142 14.46681,12.44608 24.52335,12.44608 10.05261,0 18.98303,-4.90466 24.52334,-12.44608 5.54031,7.54142 14.46681,12.44608 24.52334,12.44608 16.76612,0 30.40895,-13.64282 30.40895,-30.40894 V 57.637089 c 0,-29.20828 -23.76214,-52.9704222 -52.97042,-52.9704222 z M 495.80024,145.43461 c 0,10.27626 -8.36148,18.63774 -18.63775,18.63774 -10.27626,0 -18.63774,-8.36148 -18.63774,-18.63774 0,-3.24885 -2.63675,-5.8856 -5.8856,-5.8856 -3.24885,0 -5.8856,2.63675 -5.8856,5.8856 0,10.27626 -8.36148,18.63774 -18.63774,18.63774 -10.27626,0 -18.63774,-8.36148 -18.63774,-18.63774 0,-3.24885 -2.63675,-5.8856 -5.88561,-5.8856 -3.24885,0 -5.8856,2.63675 -5.8856,5.8856 0,10.27626 -8.36148,18.63774 -18.63774,18.63774 -10.27626,0 -18.63774,-8.36148 -18.63774,-18.63774 0,-3.24885 -2.63675,-5.8856 -5.8856,-5.8856 -3.24886,0 -5.88561,2.63675 -5.88561,5.8856 0,10.27626 -8.36148,18.63774 -18.63774,18.63774 -10.27626,0 -18.63774,-8.36148 -18.63774,-18.63774 0,-3.24885 -2.63675,-5.8856 -5.8856,-5.8856 -3.24885,0 -5.8856,2.63675 -5.8856,5.8856 0,10.27626 -8.36148,18.63774 -18.63775,18.63774 -10.27626,0 -18.63774,-8.36148 -18.63774,-18.63774 0,-3.24885 -2.63675,-5.8856 -5.8856,-5.8856 -3.24885,0 -5.8856,2.63675 -5.8856,5.8856 0,10.27626 -8.36148,18.63774 -18.63774,18.63774 -10.27626,0 -18.63774,-8.36148 -18.63774,-18.63774 0,-3.24885 -2.63675,-5.8856 -5.88561,-5.8856 -3.24885,0 -5.8856,2.63675 -5.8856,5.8856 0,10.27626 -8.36148,18.63774 -18.63774,18.63774 -10.27626,0 -18.63774,-8.36148 -18.63774,-18.63774 0,-3.24885 -2.63675,-5.8856 -5.8856,-5.8856 -3.24886,0 -5.88561,2.63675 -5.88561,5.8856 0,10.27626 -8.36148,18.63774 -18.63774,18.63774 -10.27626,0 -18.63774,-8.36148 -18.63774,-18.63774 0,-3.24885 -2.63675,-5.8856 -5.8856,-5.8856 -3.24885,0 -5.88561,2.63675 -5.88561,5.8856 0,10.27626 -8.361495,18.63774 -18.637765,18.63774 -10.27626,0 -18.63774,-8.36148 -18.63774,-18.63774 0,-3.24885 -2.63675,-5.8856 -5.8856,-5.8856 -3.24885,0 -5.8856,2.63675 -5.8856,5.8856 0,10.27626 -8.36148,18.63774 -18.63774,18.63774 -10.276265,0 -18.637744,-8.36148 -18.637744,-18.63774 V 57.637089 c 0,-22.71842 18.480794,-41.19921 41.199214,-41.19921 H 454.60102 c 22.71842,0 41.19922,18.48079 41.19922,41.19921 z"
       id="path9"
       style="fill:#746887;stroke-width:3.92373" />
    <path
       class="st6"
       d="m 452.63915,91.773589 c -3.24885,0 -5.8856,2.63675 -5.8856,5.8856 v 47.775421 c 0,3.24885 2.63675,5.8856 5.8856,5.8856 3.24885,0 5.8856,-2.63675 5.8856,-5.8856 V 97.659189 c 0,-3.24885 -2.63675,-5.8856 -5.8856,-5.8856 z"
       id="path10"
       style="fill:#746887;stroke-width:3.92373" />
    <path
       class="st6"
       d="m 403.59246,91.773589 c -3.24885,0 -5.8856,2.63675 -5.8856,5.8856 v 47.775421 c 0,3.24885 2.63675,5.8856 5.8856,5.8856 3.24886,0 5.88561,-2.63675 5.88561,-5.8856 V 97.659189 c 0,-3.24885 -2.63675,-5.8856 -5.88561,-5.8856 z"
       id="path11"
       style="fill:#746887;stroke-width:3.92373" />
    <path
       class="st6"
       d="m 354.54578,91.773589 c -3.24886,0 -5.88561,2.63675 -5.88561,5.8856 v 47.775421 c 0,3.24885 2.63675,5.8856 5.88561,5.8856 3.24885,0 5.8856,-2.63675 5.8856,-5.8856 V 97.659189 c 0,-3.24885 -2.63675,-5.8856 -5.8856,-5.8856 z"
       id="path12"
       style="fill:#746887;stroke-width:3.92373" />
    <path
       class="st6"
       d="m 305.49909,91.773589 c -3.24885,0 -5.8856,2.63675 -5.8856,5.8856 v 47.775421 c 0,3.24885 2.63675,5.8856 5.8856,5.8856 3.24885,0 5.8856,-2.63675 5.8856,-5.8856 V 97.659189 c 0,-3.24885 -2.63675,-5.8856 -5.8856,-5.8856 z"
       id="path13"
       style="fill:#746887;stroke-width:3.92373" />
    <path
       class="st6"
       d="m 256.4524,91.773589 c -3.24885,0 -5.8856,2.63675 -5.8856,5.8856 v 47.775421 c 0,3.24885 2.63675,5.8856 5.8856,5.8856 3.24885,0 5.8856,-2.63675 5.8856,-5.8856 V 97.659189 c 0,-3.24885 -2.63675,-5.8856 -5.8856,-5.8856 z"
       id="path14"
       style="fill:#746887;stroke-width:3.92373" />
    <path
       class="st6"
       d="m 207.40571,91.773589 c -3.24885,0 -5.8856,2.63675 -5.8856,5.8856 v 47.775421 c 0,3.24885 2.63675,5.8856 5.8856,5.8856 3.24886,0 5.88561,-2.63675 5.88561,-5.8856 V 97.659189 c 0,-3.24885 -2.63675,-5.8856 -5.88561,-5.8856 z"
       id="path15"
       style="fill:#746887;stroke-width:3.92373" />
    <path
       class="st6"
       d="m 158.35903,91.773589 c -3.24886,0 -5.88561,2.63675 -5.88561,5.8856 v 47.775421 c 0,3.24885 2.63675,5.8856 5.88561,5.8856 3.24885,0 5.8856,-2.63675 5.8856,-5.8856 V 97.659189 c 0,-3.24885 -2.63675,-5.8856 -5.8856,-5.8856 z"
       id="path16"
       style="fill:#746887;stroke-width:3.92373" />
    <path
       class="st2"
       d="m 477.16249,211.16109 v -41.20314 c -13.54473,0 -24.52334,-10.97861 -24.52334,-24.52334 0,13.54473 -10.97861,24.52334 -24.52334,24.52334 -13.54474,0 -24.52335,-10.97861 -24.52335,-24.52334 0,13.54473 -10.97861,24.52334 -24.52334,24.52334 -13.54473,0 -24.52334,-10.98253 -24.52334,-24.52334 0,13.54473 -10.97861,24.52334 -24.52335,24.52334 -13.54473,0 -24.52334,-10.97861 -24.52334,-24.52334 0,13.54473 -10.97861,24.52334 -24.52335,24.52334 -13.54473,0 -24.52334,-10.98253 -24.52334,-24.52334 0,13.54473 -10.97861,24.52334 -24.52334,24.52334 -13.54474,0 -24.52335,-10.97861 -24.52335,-24.52334 0,13.54473 -10.97861,24.52334 -24.52334,24.52334 -13.54473,0 -24.52334,-10.98253 -24.52334,-24.52334 0,13.54473 -10.97861,24.52334 -24.52335,24.52334 -13.54473,0 -24.52334,-10.97861 -24.52334,-24.52334 0,13.54473 -10.978635,24.52334 -24.523375,24.52334 -13.54473,0 -24.52334,-10.98253 -24.52334,-24.52334 0,13.54473 -10.97861,24.52334 -24.52334,24.52334 v 229.04411 c 0,6.50163 4.74379,11.7712 10.59408,11.7712 H 466.56841 c 5.85029,0 10.59408,-5.26957 10.59408,-11.7712 v -58.75401 c 0,0 1.862,-89.78987 0,-129.08696 z"
       id="path2"
       style="fill:#f6f7f7;stroke-width:3.92373"
       sodipodi:nodetypes="cccscscscscscscscsccsssscc" />
    <path
       class="st6"
       d="m 109.31234,91.773589 c -3.24885,0 -5.88561,2.63675 -5.88561,5.8856 v 47.775421 c 0,3.24885 2.63676,5.8856 5.88561,5.8856 3.24885,0 5.8856,-2.63675 5.8856,-5.8856 V 97.659189 c 0,-3.24885 -2.63675,-5.8856 -5.8856,-5.8856 z"
       id="path17"
       style="fill:#746887;stroke-width:3.92373" />
    <path
       class="st6"
       d="m 60.265625,91.773589 c -3.24885,0 -5.8856,2.63675 -5.8856,5.8856 v 47.775421 c 0,3.24885 2.63675,5.8856 5.8856,5.8856 3.24885,0 5.8856,-2.63675 5.8856,-5.8856 V 97.659189 c 0,-3.24885 -2.63675,-5.8856 -5.8856,-5.8856 z"
       id="path18"
       style="fill:#746887;stroke-width:3.92373" />
    <path
       class="st3"
       d="m 450.3705,214.5589 -160.80661,-1.18801 c -6.50145,-0.048 -11.7712,5.26958 -11.7712,11.7712 v 127.96085 c 0,6.50163 5.26957,11.7712 11.7712,11.7712 h 165.76603 c 0,-23.67293 -1.10501,-51.98507 -1.10501,-98.21059 0,-22.69096 -3.85441,-34.45943 -3.85441,-52.10465 z"
       id="path4"
       style="fill:#ffcfb8;stroke-width:3.92373"
       sodipodi:nodetypes="csssscsc" />
    <path
       class="st6"
       d="m 483.04821,208.40663 -1.1e-4,-38.44868 c 0,-3.24885 -2.63675,-5.8856 -5.88561,-5.8856 -10.27626,0 -18.63774,-8.36148 -18.63774,-18.63774 0,-3.24885 -2.63675,-5.8856 -5.8856,-5.8856 -3.24885,0 -5.8856,2.63675 -5.8856,5.8856 0,10.27626 -8.36148,18.63774 -18.63774,18.63774 -10.27626,0 -18.63774,-8.36148 -18.63774,-18.63774 0,-3.24885 -2.63675,-5.8856 -5.88561,-5.8856 -3.24885,0 -5.8856,2.63675 -5.8856,5.8856 0,10.27626 -8.36148,18.63774 -18.63774,18.63774 -10.27626,0 -18.63774,-8.36148 -18.63774,-18.63774 0,-3.24885 -2.63675,-5.8856 -5.8856,-5.8856 -3.24886,0 -5.88561,2.63675 -5.88561,5.8856 0,10.27626 -8.36148,18.63774 -18.63774,18.63774 -10.27626,0 -18.63774,-8.36148 -18.63774,-18.63774 0,-3.24885 -2.63675,-5.8856 -5.8856,-5.8856 -3.24885,0 -5.8856,2.63675 -5.8856,5.8856 0,10.27626 -8.36148,18.63774 -18.63775,18.63774 -10.27626,0 -18.63774,-8.36148 -18.63774,-18.63774 0,-3.24885 -2.63675,-5.8856 -5.8856,-5.8856 -3.24885,0 -5.8856,2.63675 -5.8856,5.8856 0,10.27626 -8.36148,18.63774 -18.63774,18.63774 -10.27626,0 -18.63774,-8.36148 -18.63774,-18.63774 0,-3.24885 -2.63675,-5.8856 -5.88561,-5.8856 -3.24885,0 -5.8856,2.63675 -5.8856,5.8856 0,10.27626 -8.36148,18.63774 -18.63774,18.63774 -10.27626,0 -18.63774,-8.36148 -18.63774,-18.63774 0,-3.24885 -2.63675,-5.8856 -5.8856,-5.8856 -3.24886,0 -5.88561,2.63675 -5.88561,5.8856 0,10.27626 -8.36148,18.63774 -18.63774,18.63774 -10.27626,0 -18.63774,-8.36148 -18.63774,-18.63774 0,-3.24885 -2.63675,-5.8856 -5.8856,-5.8856 -3.24885,0 -5.88561,2.63675 -5.88561,5.8856 0,10.27626 -8.361495,18.63774 -18.637765,18.63774 -10.27626,0 -18.63774,-8.36148 -18.63774,-18.63774 0,-3.24885 -2.63675,-5.8856 -5.8856,-5.8856 -3.24885,0 -5.8856,2.63675 -5.8856,5.8856 0,10.27626 -8.36148,18.63774 -18.63774,18.63774 -3.248855,0 -5.885605,2.63675 -5.885605,5.8856 l 2e-6,201.68167 c 0,3.24885 2.63675,5.8856 5.885603,5.8856 3.24885,0 5.8856,-2.63675 5.8856,-5.8856 V 175.27069 c 7.60812,-1.49887 14.20784,-5.84244 18.63774,-11.87322 5.54031,7.54142 14.46681,12.44608 24.52334,12.44608 10.05261,0 18.983045,-4.90466 24.523375,-12.44608 5.54031,7.54142 14.46681,12.44608 24.52334,12.44608 10.05261,0 18.98303,-4.90466 24.52335,-12.44608 5.54031,7.54142 14.46681,12.44608 24.52334,12.44608 10.05261,0 18.98303,-4.90466 24.52334,-12.44608 5.54032,7.54142 14.46681,12.44608 24.52335,12.44608 10.05261,0 18.98303,-4.90466 24.52334,-12.44608 5.54031,7.54142 14.46681,12.44608 24.52334,12.44608 10.05261,0 18.98303,-4.90466 24.52335,-12.44608 5.54031,7.54142 14.46681,12.44608 24.52334,12.44608 10.05261,0 18.98303,-4.90466 24.52335,-12.44608 5.54031,7.54142 14.46681,12.44608 24.52334,12.44608 10.05261,0 18.98303,-4.90466 24.52334,-12.44608 5.54032,7.54142 14.46681,12.44608 24.52335,12.44608 10.05261,0 18.98303,-4.90466 24.52334,-12.44608 4.4299,6.03078 11.02962,10.37828 18.63774,11.87322 l 3.2e-4,35.88648 v 53.29742 c 0,0 -3.2e-4,74.79073 -3.2e-4,75.78954 v 58.75793 c 0,3.19 -2.15805,5.8856 -4.70848,5.8856 H 46.336365 c -2.55043,0 -4.70848,-2.6956 -4.70848,-5.8856 v -27.43083 c 0,-3.24885 -2.63675,-5.8856 -5.8856,-5.8856 -3.248855,0 -5.885605,2.63675 -5.885605,5.8856 v 27.43083 c 0,9.73479 7.392315,17.65681 16.479685,17.65681 H 466.56841 c 9.08737,0 16.47969,-7.92202 16.47969,-17.65681 v -56.9177 l 1.1e-4,-77.96069 z"
       id="path20"
       style="fill:#746887;stroke-width:3.92373"
       sodipodi:nodetypes="cssssssssssssssssssssssssssssssssssssssssssccscscscscscscscsccscssssssssssssccc" />
    <path
       d="m 292.33498,322.63901 4.34681,4.72483 c 0.48651,0.52766 1.14892,0.79525 1.8132,0.79525 0.5969,0 1.19382,-0.2152 1.66723,-0.65117 1.00109,-0.92064 1.0666,-2.48123 0.14599,-3.48232 l -2.91533,-3.16983 3.70125,-4.62749 c 1.05162,0.79712 2.3465,1.29674 3.76113,1.35847 1.57555,0.0673 3.08935,-0.41166 4.33183,-1.35286 l 3.69565,4.62188 -2.91536,3.16983 c -0.92063,1.00109 -0.85699,2.55982 0.14598,3.48232 0.47344,0.43597 1.07222,0.65117 1.66727,0.65117 0.66426,0 1.32855,-0.26768 1.81504,-0.79525 l 4.34681,-4.72483 c 0.82334,-0.89442 0.87012,-2.25667 0.1103,-3.20722 l -6.14878,-7.69067 c -0.0299,-0.0393 -0.0636,-0.0731 -0.0975,-0.10863 0.0167,-0.15519 0.0355,-0.31062 0.043,-0.46966 0.15715,-3.705 -2.72636,-6.84676 -6.4276,-7.00207 -0.0954,-0.002 -0.19287,-0.006 -0.28818,-0.006 -3.57211,0 -6.55293,2.82924 -6.70454,6.4332 -0.014,0.35554 0,0.7073 0.0374,1.04975 -0.0299,0.0337 -0.0617,0.0673 -0.0915,0.10304 l -6.14878,7.69066 c -0.75968,0.95059 -0.71292,2.3128 0.11053,3.20726 z m 131.00506,42.40529 h -81.33202 z m -13.01799,-4.92873 h -55.29041 c 0.71668,-8.1304 4.94373,-15.44308 11.47798,-20.11363 -0.33495,2.48683 -0.0899,5.03543 0.75411,7.47735 1.42211,4.11479 4.36177,7.43243 8.27823,9.34107 2.25667,1.10027 4.68362,1.65415 7.12367,1.65415 1.79261,0 3.59084,-0.29938 5.33668,-0.90194 4.11853,-1.42211 7.43803,-4.36177 9.34481,-8.2782 0.28255,-0.57821 0.54078,-1.19383 0.72041,-1.73274 l 2.26603,-6.40703 c 5.74459,4.72481 9.33733,11.52479 9.99038,18.95723 z m -10.21118,-52.42563 c -0.94493,-0.22832 -1.53064,-1.18445 -1.30609,-2.13129 0.19845,-0.80838 0.92438,-1.35289 1.7215,-1.35289 0.13649,0 0.27492,0.0167 0.4154,0.0506 0.95058,0.23027 1.53628,1.18822 1.30798,2.13693 -0.2283,0.94498 -1.18821,1.52876 -2.13691,1.29861 z m 10.11015,0.62313 c 0.62496,-2.58787 0.20403,-5.26559 -1.18635,-7.53722 -1.3903,-2.27166 -3.58336,-3.86781 -6.175,-4.49464 -0.78216,-0.18896 -1.57367,-0.28257 -2.35771,-0.28257 -1.80947,0 -3.59086,0.49775 -5.17576,1.46515 -2.27353,1.38846 -3.87154,3.57962 -4.49651,6.16751 -0.62499,2.58787 -0.20403,5.26559 1.18636,7.53722 1.39029,2.27165 3.58336,3.86779 6.17495,4.49464 2.58977,0.62686 5.26745,0.2057 7.53912,-1.18259 2.27163,-1.38845 3.86777,-3.57774 4.49276,-6.16938 z m -3.18295,-0.7616 c -0.74285,3.05943 -3.49166,5.11777 -6.50993,5.11777 -0.52018,0 -1.04784,-0.0617 -1.57367,-0.18897 -3.57962,-0.86637 -5.79698,-4.48528 -4.94187,-8.06864 v -0.008 c 0.87011,-3.59084 4.49465,-5.80824 8.08738,-4.94001 3.59084,0.86825 5.8082,4.49652 4.93997,8.08738 z m -24.31446,36.37628 c -0.97489,0.0252 -1.79073,-0.74664 -1.8132,-1.71779 -0.0252,-0.97675 0.75037,-1.79073 1.72713,-1.81505 h 0.0506 c 0.95619,0 1.73836,0.76531 1.76457,1.72898 0.0107,0.46408 -0.16273,0.91502 -0.4884,1.25559 -0.32559,0.34242 -0.76534,0.53705 -1.23874,0.54827 z m -27.32896,-78.94248 c 0.7859,-2.93593 0.38171,-6.00284 -1.1377,-8.63562 -2.10698,-3.647 -5.94108,-5.68846 -9.87622,-5.68846 -1.92548,0 -3.87714,0.48837 -5.65855,1.51754 -0.43036,0.25065 -0.80835,0.49961 -1.0385,0.67926 l -35.40697,26.18192 c -2.7095,2.00965 -2.68145,5.5687 -1.25559,8.04431 1.43334,2.48309 4.49837,4.29256 7.58776,2.94527 l 40.32636,-17.55193 0.0318,-0.014 c 0.33681,-0.14039 0.75408,-0.35174 1.12645,-0.56881 2.63281,-1.51941 4.51524,-3.97444 5.30115,-6.91037 z m -4.30004,-2.93967 c 0,3.69378 -3.00516,6.69892 -6.69892,6.69892 -3.69375,0 -6.68957,-3.00514 -6.68957,-6.69892 0,-3.69378 3.00143,-6.69892 6.68957,-6.69892 3.68816,0 6.69892,3.00514 6.69892,6.69892 z m -42.20507,33.07171 v 4.73227 c -1.0273,-0.3499 -2.12194,-0.56509 -3.25964,-0.61374 -1.48388,-0.0636 -2.91535,0.15909 -4.24203,0.61374 v -5.73338 c 1.56619,0.84768 3.29145,1.30052 5.04477,1.30052 0.81958,0 1.64292,-0.10103 2.45878,-0.30129 z m 84.50745,50.8669 8.91816,-25.22013 c -0.58192,0.0692 -1.16762,0.11219 -1.75706,0.11219 -1.17512,0 -2.35771,-0.14038 -3.52723,-0.42291 -3.86963,-0.93559 -7.14427,-3.31951 -9.2213,-6.71388 -0.0915,-0.15155 -0.1778,-0.30501 -0.26572,-0.45844 l -14.46253,22.74825 c -0.16468,0.26377 -0.40794,0.67552 -0.63809,1.15267 -1.33042,2.73197 -1.51754,5.81759 -0.52582,8.68989 0.99175,2.87229 3.0426,5.18699 5.77641,6.51928 2.73199,1.33043 5.81946,1.51755 8.69552,0.52393 2.87414,-0.99171 5.19071,-3.04444 6.52489,-5.78389 0.19454,-0.39481 0.36862,-0.81212 0.48092,-1.14706 z m -4.02123,-3.98941 c 0.043,1.79075 -0.61375,3.48793 -1.84688,4.78279 -1.23312,1.29488 -2.89849,2.03213 -4.68923,2.07516 -0.0541,0 -0.10863,0.002 -0.16273,0.002 -3.62078,0 -6.60912,-2.89476 -6.69518,-6.52863 v 0 c -0.0879,-3.69378 2.84424,-6.77191 6.52677,-6.85986 0.0636,0 0.12532,-0.002 0.18895,-0.002 3.60019,0 6.57728,2.88727 6.68022,6.52866 z m -44.98007,-78.17903 c -0.97115,0 -1.7608,-0.7934 -1.7608,-1.77017 0,-0.97676 0.78965,-1.77017 1.7608,-1.77017 0.97489,0 1.77017,0.79341 1.77017,1.77017 0,0.97677 -0.79342,1.77017 -1.77017,1.77017 z m 41.69424,38.46451 -33.48526,-26.1445 c 3.59084,-2.08451 6.20491,-5.40218 7.40251,-9.37286 l 33.43472,26.10146 c -0.23027,0.12532 -0.45844,0.25455 -0.68486,0.39296 -3.34011,2.0396 -5.69969,5.24124 -6.66711,9.02483 z m 32.93698,25.11534 c -0.6306,0 -1.26121,-0.24143 -1.74209,-0.72228 -0.96181,-0.96181 -0.96181,-2.52236 0,-3.4842 4.48903,-4.489 6.96276,-10.46377 6.96276,-16.82025 0,-6.6484 -2.81431,-13.04233 -7.72248,-17.54071 -1.00297,-0.91876 -1.07032,-2.47748 -0.15156,-3.48232 0.91876,-1.00297 2.47747,-1.07032 3.48232,-0.15156 5.92424,5.43027 9.32047,13.14711 9.32047,21.17459 0,7.67381 -2.98457,14.88546 -8.40545,20.30634 -0.48089,0.48089 -1.11149,0.72229 -1.7421,0.72229 z m -3.7312,-6.18808 c -0.48088,0.48092 -1.11149,0.7223 -1.7421,0.7223 -0.63057,0 -1.26118,-0.24144 -1.74208,-0.7223 -0.96181,-0.96179 -0.96181,-2.52238 0,-3.48419 3.03137,-3.03134 4.70047,-7.0638 4.70047,-11.35446 0,-4.4909 -1.89739,-8.80216 -5.20758,-11.82978 -1.00483,-0.91876 -1.07406,-2.47747 -0.15518,-3.48044 0.91877,-1.00484 2.47748,-1.07222 3.48231,-0.15519 4.32625,3.9576 6.80748,9.59554 6.80748,15.46552 0,5.608 -2.18184,10.87732 -6.14318,14.84055 z"
       id="path1-4"
       style="fill:#666666;stroke-width:1.8712"
       sodipodi:nodetypes="ccscccccccccscccccccsccccccssscccscsccccccccscccccscscsscccccsscccccsccsccssccsccccccccccssssscccccsccccscccccsccccccscssscsccsssssccccccccssscccsscccsssscccscc" />
    <path
       class="st7"
       d="M 442.09085,207.48529 H 289.56389 c -9.73478,0 -17.65681,7.92176 -17.65681,17.65655 v 127.961 c 0,9.73477 7.92203,17.65691 17.65681,17.65691 h 152.52696 c 13.23907,0 18.68899,-5.88561 18.68899,-17.65691 v -127.961 c 0,-9.14758 -7.44462,-17.65655 -18.68899,-17.65655 z M 289.56389,358.98854 c -3.24493,-4e-5 -5.88559,-2.64079 -5.8856,-5.8857 l -4.4e-4,-127.961 c -10e-6,-3.24493 2.64111,-5.88535 5.88604,-5.88535 h 152.52696 c 3.02026,0 4.478,2.60644 4.478,5.88535 v 127.961 c 0,3.33433 -1.78651,5.88684 -4.478,5.88684 z"
       id="path21"
       style="fill:#f98770;stroke-width:3.92373"
       sodipodi:nodetypes="cssssccccssssccscs" />
    <rect
       style="fill:#e5ebeb;stroke:#808080;stroke-width:4.613;stroke-linecap:round;fill-opacity:1;stroke-dasharray:none;stroke-linejoin:round"
       id="rect24"
       width="35.49868"
       height="35.49868"
       x="54.448151"
       y="216.62306"
       rx="1.1957147e-16" />
    <text
       xml:space="preserve"
       style="font-size:21.3333px;font-family:FreeSans;-inkscape-font-specification:FreeSans;text-align:center;text-anchor:middle;fill:#e5ebeb;fill-opacity:1;stroke:#808080;stroke-width:4.613;stroke-linecap:round;stroke-linejoin:round;stroke-dasharray:none"
       x="72.26149"
       y="241.68973"
       id="text24"><tspan
         sodipodi:role="line"
         id="tspan24"
         x="72.26149"
         y="241.68973"
         style="font-size:21.3333px;fill:#000000;stroke:none">0</tspan></text>
    <rect
       style="fill:#e5ebeb;fill-opacity:1;stroke:#808080;stroke-width:4.613;stroke-linecap:round;stroke-linejoin:round;stroke-dasharray:none"
       id="rect24-1"
       width="35.49868"
       height="35.49868"
       x="133.41301"
       y="216.62306"
       rx="1.1957147e-16" />
    <text
       xml:space="preserve"
       style="font-size:21.3333px;font-family:FreeSans;-inkscape-font-specification:FreeSans;text-align:center;text-anchor:middle;fill:#e5ebeb;fill-opacity:1;stroke:#808080;stroke-width:4.613;stroke-linecap:round;stroke-linejoin:round;stroke-dasharray:none"
       x="151.22635"
       y="241.68973"
       id="text24-2"><tspan
         sodipodi:role="line"
         id="tspan24-8"
         x="151.22635"
         y="241.68973"
         style="font-size:21.3333px;fill:#000000;stroke:none">1</tspan></text>
    <rect
       style="fill:#e5ebeb;fill-opacity:1;stroke:#808080;stroke-width:4.613;stroke-linecap:round;stroke-linejoin:round;stroke-dasharray:none"
       id="rect24-8"
       width="35.49868"
       height="35.49868"
       x="213.3065"
       y="216.62306"
       rx="1.1957147e-16" />
    <text
       xml:space="preserve"
       style="font-size:21.3333px;font-family:FreeSans;-inkscape-font-specification:FreeSans;text-align:center;text-anchor:middle;fill:#e5ebeb;fill-opacity:1;stroke:#808080;stroke-width:4.613;stroke-linecap:round;stroke-linejoin:round;stroke-dasharray:none"
       x="231.11984"
       y="241.68973"
       id="text24-9"><tspan
         sodipodi:role="line"
         id="tspan24-2"
         x="231.11984"
         y="241.68973"
         style="font-size:21.3333px;fill:#000000;stroke:none">2</tspan></text>
    <rect
       style="fill:#e5ebeb;fill-opacity:1;stroke:#808080;stroke-width:4.613;stroke-linecap:round;stroke-linejoin:round;stroke-dasharray:none"
       id="rect24-88"
       width="35.49868"
       height="35.49868"
       x="54.357174"
       y="281.46478"
       rx="1.1957147e-16" />
    <text
       xml:space="preserve"
       style="font-size:21.3333px;font-family:FreeSans;-inkscape-font-specification:FreeSans;text-align:center;text-anchor:middle;fill:#e5ebeb;fill-opacity:1;stroke:#808080;stroke-width:4.613;stroke-linecap:round;stroke-linejoin:round;stroke-dasharray:none"
       x="72.170517"
       y="306.53146"
       id="text24-8"><tspan
         sodipodi:role="line"
         id="tspan24-6"
         x="72.170517"
         y="306.53146"
         style="font-size:21.3333px;fill:#000000;stroke:none">3</tspan></text>
    <rect
       style="fill:#e5ebeb;fill-opacity:1;stroke:#808080;stroke-width:4.613;stroke-linecap:round;stroke-linejoin:round;stroke-dasharray:none"
       id="rect24-83"
       width="35.49868"
       height="35.49868"
       x="132.62009"
       y="281.46478"
       rx="1.1957147e-16" />
    <text
       xml:space="preserve"
       style="font-size:21.3333px;font-family:FreeSans;-inkscape-font-specification:FreeSans;text-align:center;text-anchor:middle;fill:#e5ebeb;fill-opacity:1;stroke:#808080;stroke-width:4.613;stroke-linecap:round;stroke-linejoin:round;stroke-dasharray:none"
       x="150.43343"
       y="306.53146"
       id="text24-83"><tspan
         sodipodi:role="line"
         id="tspan24-3"
         x="150.43343"
         y="306.53146"
         style="font-size:21.3333px;fill:#000000;stroke:none">4</tspan></text>
    <rect
       style="fill:#e5ebeb;fill-opacity:1;stroke:#808080;stroke-width:4.613;stroke-linecap:round;stroke-linejoin:round;stroke-dasharray:none"
       id="rect24-3"
       width="35.49868"
       height="35.49868"
       x="213.3065"
       y="281.46478"
       rx="1.1957147e-16" />
    <text
       xml:space="preserve"
       style="font-size:21.3333px;font-family:FreeSans;-inkscape-font-specification:FreeSans;text-align:center;text-anchor:middle;fill:#e5ebeb;fill-opacity:1;stroke:#808080;stroke-width:4.613;stroke-linecap:round;stroke-linejoin:round;stroke-dasharray:none"
       x="231.11984"
       y="306.53146"
       id="text24-80"><tspan
         sodipodi:role="line"
         id="tspan24-4"
         x="231.11984"
         y="306.53146"
         style="font-size:21.3333px;fill:#000000;stroke:none">5</tspan></text>
    <rect
       style="fill:#e5ebeb;fill-opacity:1;stroke:#808080;stroke-width:4.613;stroke-linecap:round;stroke-linejoin:round;stroke-dasharray:none"
       id="rect24-7"
       width="35.49868"
       height="35.49868"
       x="54.357174"
       y="346.30649"
       rx="1.1957147e-16" />
    <text
       xml:space="preserve"
       style="font-size:21.3333px;font-family:FreeSans;-inkscape-font-specification:FreeSans;text-align:center;text-anchor:middle;fill:#e5ebeb;fill-opacity:1;stroke:#808080;stroke-width:4.613;stroke-linecap:round;stroke-linejoin:round;stroke-dasharray:none"
       x="72.170517"
       y="371.37317"
       id="text24-6"><tspan
         sodipodi:role="line"
         id="tspan24-89"
         x="72.170517"
         y="371.37317"
         style="font-size:21.3333px;fill:#000000;stroke:none">6</tspan></text>
    <rect
       style="fill:#e5ebeb;fill-opacity:1;stroke:#808080;stroke-width:4.613;stroke-linecap:round;stroke-linejoin:round;stroke-dasharray:none"
       id="rect24-0"
       width="35.49868"
       height="35.49868"
       x="132.62009"
       y="346.30649"
       rx="1.1957147e-16" />
    <text
       xml:space="preserve"
       style="font-size:21.3333px;font-family:FreeSans;-inkscape-font-specification:FreeSans;text-align:center;text-anchor:middle;fill:#e5ebeb;fill-opacity:1;stroke:#808080;stroke-width:4.613;stroke-linecap:round;stroke-linejoin:round;stroke-dasharray:none"
       x="150.43343"
       y="371.37317"
       id="text24-68"><tspan
         sodipodi:role="line"
         id="tspan24-7"
         x="150.43343"
         y="371.37317"
         style="font-size:21.3333px;fill:#000000;stroke:none">7</tspan></text>
    <rect
       style="fill:#e5ebeb;fill-opacity:1;stroke:#808080;stroke-width:4.613;stroke-linecap:round;stroke-linejoin:round;stroke-dasharray:none"
       id="rect24-9"
       width="35.49868"
       height="35.49868"
       x="213.3065"
       y="346.30652"
       rx="1.1957147e-16" />
    <text
       xml:space="preserve"
       style="font-size:21.3333px;font-family:FreeSans;-inkscape-font-specification:FreeSans;text-align:center;text-anchor:middle;fill:#e5ebeb;fill-opacity:1;stroke:#808080;stroke-width:4.613;stroke-linecap:round;stroke-linejoin:round;stroke-dasharray:none"
       x="231.11984"
       y="371.37317"
       id="text24-0"><tspan
         sodipodi:role="line"
         id="tspan24-33"
         x="231.11984"
         y="371.37317"
         style="font-size:21.3333px;fill:#000000;stroke:none">8</tspan></text>
    <path
       style="fill:none;fill-opacity:1;stroke:#a6a6a6;stroke-width:3.67575;stroke-linecap:round;stroke-linejoin:round;stroke-dasharray:none;stroke-opacity:1"
       d="m 84.485654,238.23316 v -7.7215"
       id="path24" />
    <path
       style="fill:none;fill-opacity:1;stroke:#a6a6a6;stroke-width:3.67575;stroke-linecap:round;stroke-linejoin:round;stroke-dasharray:none;stroke-opacity:1"
       d="m 163.44718,238.23316 v -7.7215"
       id="path24-3" />
    <path
       style="fill:none;fill-opacity:1;stroke:#a6a6a6;stroke-width:3.67575;stroke-linecap:round;stroke-linejoin:round;stroke-dasharray:none;stroke-opacity:1"
       d="m 243.33346,238.23316 v -7.7215"
       id="path24-3-7" />
    <path
       style="fill:none;fill-opacity:1;stroke:#a6a6a6;stroke-width:3.67575;stroke-linecap:round;stroke-linejoin:round;stroke-dasharray:none;stroke-opacity:1"
       d="m 84.485654,302.46065 v -7.7215"
       id="path25" />
    <path
       style="fill:none;fill-opacity:1;stroke:#a6a6a6;stroke-width:3.67575;stroke-linecap:round;stroke-linejoin:round;stroke-dasharray:none;stroke-opacity:1"
       d="m 163.44718,302.46065 v -7.7215"
       id="path26" />
    <path
       style="fill:none;fill-opacity:1;stroke:#a6a6a6;stroke-width:3.67575;stroke-linecap:round;stroke-linejoin:round;stroke-dasharray:none;stroke-opacity:1"
       d="m 243.33346,302.46065 v -7.7215"
       id="path27" />
    <path
       style="fill:none;fill-opacity:1;stroke:#a6a6a6;stroke-width:3.67575;stroke-linecap:round;stroke-linejoin:round;stroke-dasharray:none;stroke-opacity:1"
       d="m 84.485654,367.91658 v -7.7215"
       id="path28" />
    <path
       style="fill:none;fill-opacity:1;stroke:#a6a6a6;stroke-width:3.67575;stroke-linecap:round;stroke-linejoin:round;stroke-dasharray:none;stroke-opacity:1"
       d="m 163.44718,367.91658 v -7.7215"
       id="path29" />
    <path
       style="fill:none;fill-opacity:1;stroke:#a6a6a6;stroke-width:3.67575;stroke-linecap:round;stroke-linejoin:round;stroke-dasharray:none;stroke-opacity:1"
       d="m 243.33346,367.91658 v -7.7215"
       id="path30" />
    <text
       xml:space="preserve"
       style="font-weight:bold;font-size:24px;line-height:1.25;font-family:sans-serif;-inkscape-font-specification:'sans-serif Bold'"
       x="174.25346"
       y="40.604782"
       id="text1471"><tspan
         sodipodi:role="line"
         id="tspan1469"
         x="174.25346"
         y="40.604782"
         style="font-size:24px">make_cookies</tspan></text>
  </g>
</svg>
