<?xml version="1.0" encoding="UTF-8" standalone="no"?>
<!-- Created with Inkscape (http://www.inkscape.org/) -->

<svg
   width="1440pt"
   height="516.75pt"
   viewBox="0 0 1920 688.99986"
   version="1.1"
   id="svg5"
   inkscape:version="1.3.2 (1:1.3.2+202311252150+091e20ef0f)"
   sodipodi:docname="memory-address.svg"
   xmlns:inkscape="http://www.inkscape.org/namespaces/inkscape"
   xmlns:sodipodi="http://sodipodi.sourceforge.net/DTD/sodipodi-0.dtd"
   xmlns:xlink="http://www.w3.org/1999/xlink"
   xmlns="http://www.w3.org/2000/svg"
   xmlns:svg="http://www.w3.org/2000/svg">
  <sodipodi:namedview
     id="namedview7"
     pagecolor="#ffffff"
     bordercolor="#666666"
     borderopacity="1.0"
     inkscape:pageshadow="2"
     inkscape:pageopacity="0.0"
     inkscape:pagecheckerboard="0"
     inkscape:document-units="px"
     showgrid="false"
     inkscape:zoom="0.33287037"
     inkscape:cx="660.91794"
     inkscape:cy="189.26287"
     inkscape:window-width="1874"
     inkscape:window-height="1016"
     inkscape:window-x="46"
     inkscape:window-y="907"
     inkscape:window-maximized="1"
     inkscape:current-layer="layer1"
     showguides="true"
     inkscape:guide-bbox="true"
     units="pt"
     inkscape:showpageshadow="2"
     inkscape:deskcolor="#d1d1d1" />
  <defs
     id="defs2">
    <linearGradient
       id="linear-gradient"
       x1="10.52"
       y1="52.75"
       x2="18.59"
       y2="52.75"
       gradientUnits="userSpaceOnUse">
      <stop
         offset="0"
         stop-color="#00b4d8"
         id="stop4" />
      <stop
         offset="1"
         stop-color="#0096c7"
         id="stop6" />
    </linearGradient>
    <linearGradient
       id="linear-gradient-2-9"
       x1="38.669998"
       y1="63.200001"
       x2="44.509998"
       y2="73.330002"
       xlink:href="#linear-gradient" />
    <linearGradient
       id="linear-gradient-3-1"
       x1="80.419998"
       y1="44.16"
       x2="79.809998"
       y2="44.16"
       xlink:href="#linear-gradient" />
    <linearGradient
       id="linear-gradient-4-2"
       x1="53.459999"
       y1="28.6"
       x2="52.849998"
       y2="28.6"
       xlink:href="#linear-gradient" />
    <linearGradient
       id="linear-gradient-5"
       x1="76.760002"
       y1="64"
       x2="66.25"
       y2="64"
       gradientUnits="userSpaceOnUse">
      <stop
         offset="0"
         stop-color="#ffd500"
         id="stop12" />
      <stop
         offset="1"
         stop-color="#fdc500"
         id="stop14" />
    </linearGradient>
    <linearGradient
       id="linear-gradient-6-9"
       x1="73.309998"
       y1="66"
       x2="62.790001"
       y2="66"
       xlink:href="#linear-gradient-5" />
    <linearGradient
       id="linear-gradient-7-3"
       x1="69.800003"
       y1="68"
       x2="59.279999"
       y2="68"
       xlink:href="#linear-gradient-5" />
    <linearGradient
       id="linear-gradient-8-6"
       x1="66.389999"
       y1="70"
       x2="55.880001"
       y2="70"
       xlink:href="#linear-gradient-5" />
    <linearGradient
       id="linear-gradient-9-0"
       x1="80.220001"
       y1="62"
       x2="69.709999"
       y2="62"
       xlink:href="#linear-gradient-5" />
    <linearGradient
       id="linear-gradient-10-6"
       x1="83.68"
       y1="60"
       x2="73.160004"
       y2="60"
       xlink:href="#linear-gradient-5" />
    <linearGradient
       id="linear-gradient-11-2"
       x1="87.150002"
       y1="58"
       x2="76.629997"
       y2="58"
       xlink:href="#linear-gradient-5" />
    <linearGradient
       id="linear-gradient-12-6"
       x1="22.25"
       y1="34"
       x2="32.759998"
       y2="34"
       xlink:href="#linear-gradient-5" />
    <linearGradient
       id="linear-gradient-13-1"
       x1="18.799999"
       y1="36"
       x2="29.309999"
       y2="36"
       xlink:href="#linear-gradient-5" />
    <linearGradient
       id="linear-gradient-14-8"
       x1="15.28"
       y1="38"
       x2="25.799999"
       y2="38"
       xlink:href="#linear-gradient-5" />
    <linearGradient
       id="linear-gradient-15-7"
       x1="11.88"
       y1="40"
       x2="22.4"
       y2="40"
       xlink:href="#linear-gradient-5" />
    <linearGradient
       id="linear-gradient-16-9"
       x1="25.709999"
       y1="32"
       x2="36.220001"
       y2="32"
       xlink:href="#linear-gradient-5" />
    <linearGradient
       id="linear-gradient-17-2"
       x1="29.16"
       y1="30"
       x2="39.68"
       y2="30"
       xlink:href="#linear-gradient-5" />
    <linearGradient
       id="linear-gradient-18-0"
       x1="32.630001"
       y1="28"
       x2="43.139999"
       y2="28"
       xlink:href="#linear-gradient-5" />
    <linearGradient
       id="linear-gradient-19-2"
       x1="26.68"
       y1="23.92"
       x2="70.32"
       y2="67.559998"
       xlink:href="#linear-gradient" />
    <linearGradient
       inkscape:collect="always"
       xlink:href="#linear-gradient-20"
       id="linearGradient1165"
       gradientUnits="userSpaceOnUse"
       x1="20.15"
       y1="46"
       x2="77.82"
       y2="46" />
    <linearGradient
       id="linear-gradient-20"
       x1="20.15"
       y1="46"
       x2="77.82"
       y2="46"
       gradientUnits="userSpaceOnUse">
      <stop
         offset="0"
         stop-color="#caf0f8"
         id="stop31" />
      <stop
         offset="1"
         stop-color="#90e0ef"
         id="stop33" />
    </linearGradient>
    <linearGradient
       id="linear-gradient-21-5"
       x1="25.620001"
       y1="43.029999"
       x2="71.980003"
       y2="43.029999"
       xlink:href="#linear-gradient" />
    <linearGradient
       id="linear-gradient-22-9"
       x1="6.29"
       y1="48.990002"
       x2="7.4899998"
       y2="48.990002"
       xlink:href="#linear-gradient" />
    <linearGradient
       id="linear-gradient-23-2"
       x1="90.690002"
       y1="50.650002"
       x2="89.5"
       y2="50.650002"
       xlink:href="#linear-gradient" />
    <linearGradient
       id="linear-gradient-24-2"
       x1="10.53"
       y1="50.700001"
       x2="7.4699998"
       y2="50.700001"
       xlink:href="#linear-gradient" />
    <linearGradient
       id="linear-gradient-25-8"
       x1="18.629999"
       y1="55.82"
       x2="17.969999"
       y2="55.82"
       xlink:href="#linear-gradient" />
    <linearGradient
       id="linear-gradient-26-9"
       x1="18.610001"
       y1="61.700001"
       x2="37.490002"
       y2="61.700001"
       xlink:href="#linear-gradient" />
    <linearGradient
       id="linear-gradient-27-7"
       x1="45.59"
       y1="71.389999"
       x2="44.93"
       y2="71.389999"
       xlink:href="#linear-gradient" />
    <linearGradient
       id="linear-gradient-28-3"
       x1="52.860001"
       y1="62.110001"
       x2="89.519997"
       y2="62.110001"
       xlink:href="#linear-gradient" />
    <linearGradient
       id="linear-gradient-29-6"
       x1="45.57"
       y1="72.290001"
       x2="47.209999"
       y2="72.290001"
       xlink:href="#linear-gradient" />
    <linearGradient
       id="linear-gradient-30-1"
       x1="52.880001"
       y1="73.099998"
       x2="47.200001"
       y2="73.099998"
       xlink:href="#linear-gradient" />
    <linearGradient
       id="linear-gradient-31-2"
       x1="14.59"
       y1="43.23"
       x2="16.59"
       y2="43.23"
       xlink:href="#linear-gradient-5" />
    <linearGradient
       id="linear-gradient-32-9"
       x1="17.41"
       y1="41.59"
       x2="19.41"
       y2="41.59"
       xlink:href="#linear-gradient-5" />
    <linearGradient
       id="linear-gradient-33-3"
       x1="20.23"
       y1="39.950001"
       x2="22.23"
       y2="39.950001"
       xlink:href="#linear-gradient-5" />
    <linearGradient
       id="linear-gradient-34-1"
       x1="23.049999"
       y1="38.310001"
       x2="25.049999"
       y2="38.310001"
       xlink:href="#linear-gradient-5" />
    <linearGradient
       id="linear-gradient-35-9"
       x1="71.230003"
       y1="54.689999"
       x2="73.220001"
       y2="54.689999"
       xlink:href="#linear-gradient-5" />
    <linearGradient
       id="linear-gradient-36-4"
       x1="74.040001"
       y1="53.060001"
       x2="76.040001"
       y2="53.060001"
       xlink:href="#linear-gradient-5" />
    <linearGradient
       id="linear-gradient-37-7"
       x1="76.860001"
       y1="51.419998"
       x2="78.860001"
       y2="51.419998"
       xlink:href="#linear-gradient-5" />
    <linearGradient
       id="linear-gradient-38-8"
       x1="79.68"
       y1="49.779999"
       x2="81.68"
       y2="49.779999"
       xlink:href="#linear-gradient-5" />
    <linearGradient
       id="linear-gradient-39-4"
       x1="25.610001"
       y1="44.259998"
       x2="26.23"
       y2="44.259998"
       xlink:href="#linear-gradient" />
    <linearGradient
       id="linear-gradient-40-5"
       x1="71.360001"
       y1="45.91"
       x2="71.980003"
       y2="45.91"
       xlink:href="#linear-gradient" />
    <linearGradient
       id="linear-gradient-41-0"
       x1="55.970001"
       y1="48.799999"
       x2="67.150002"
       y2="55.25"
       xlink:href="#linear-gradient" />
    <linearGradient
       id="linear-gradient-42-3"
       x1="25.530001"
       y1="44.290001"
       x2="49.509998"
       y2="58.130001"
       xlink:href="#linear-gradient" />
    <linearGradient
       id="linear-gradient-43-6"
       x1="48.799999"
       y1="57.900002"
       x2="51.759998"
       y2="57.900002"
       xlink:href="#linear-gradient" />
    <linearGradient
       id="linear-gradient-44-1"
       x1="40.400002"
       y1="42.799999"
       x2="53.099998"
       y2="42.799999"
       xlink:href="#linear-gradient-5" />
    <linearGradient
       id="linear-gradient-45-0"
       x1="37.290001"
       y1="47.57"
       x2="50.869999"
       y2="47.57"
       xlink:href="#linear-gradient-5" />
    <linearGradient
       id="linear-gradient-46-6"
       x1="59.73"
       y1="45.610001"
       x2="71.160004"
       y2="45.610001"
       xlink:href="#linear-gradient-5" />
    <linearGradient
       id="linear-gradient-47-3"
       x1="46.630001"
       y1="46.669998"
       x2="62.630001"
       y2="46.669998"
       xlink:href="#linear-gradient-5" />
    <linearGradient
       id="linear-gradient-48-2"
       x1="44.950001"
       y1="33.110001"
       x2="56.029999"
       y2="33.110001"
       xlink:href="#linear-gradient-5" />
    <linearGradient
       id="linear-gradient-49-0"
       x1="51.110001"
       y1="38.509998"
       x2="57.790001"
       y2="38.509998"
       xlink:href="#linear-gradient-5" />
    <linearGradient
       id="linear-gradient-50-6"
       x1="55.119999"
       y1="38.77"
       x2="63.07"
       y2="38.77"
       xlink:href="#linear-gradient-5" />
    <linearGradient
       id="linear-gradient-51-1"
       x1="59.43"
       y1="42.099998"
       x2="65.709999"
       y2="42.099998"
       xlink:href="#linear-gradient-5" />
    <linearGradient
       id="linear-gradient-52-5"
       x1="29.32"
       y1="42.490002"
       x2="35.93"
       y2="42.490002"
       xlink:href="#linear-gradient-5" />
    <linearGradient
       id="linear-gradient-53-5"
       x1="31.65"
       y1="42.82"
       x2="52.52"
       y2="42.82"
       xlink:href="#linear-gradient-5" />
    <linearGradient
       id="linear-gradient-54-4"
       x1="33.990002"
       y1="36.360001"
       x2="43.900002"
       y2="36.360001"
       xlink:href="#linear-gradient-5" />
    <linearGradient
       id="linear-gradient-55-7"
       x1="41.560001"
       y1="35.919998"
       x2="47.75"
       y2="35.919998"
       xlink:href="#linear-gradient-5" />
    <linearGradient
       id="linear-gradient-56-6"
       x1="28.17"
       y1="43.16"
       x2="30.950001"
       y2="43.16"
       xlink:href="#linear-gradient-5" />
    <linearGradient
       id="linear-gradient-57-5"
       x1="35.200001"
       y1="49.889999"
       x2="48.830002"
       y2="49.889999"
       xlink:href="#linear-gradient-5" />
    <linearGradient
       id="linear-gradient-58-6"
       x1="45.02"
       y1="54.27"
       x2="48.75"
       y2="54.27"
       xlink:href="#linear-gradient-5" />
    <linearGradient
       id="linear-gradient-59-9"
       x1="66.980003"
       y1="41.41"
       x2="49.759998"
       y2="41.41"
       xlink:href="#linear-gradient-20" />
    <linearGradient
       id="linear-gradient-60-3"
       x1="48.240002"
       y1="30.59"
       x2="31.02"
       y2="30.59"
       xlink:href="#linear-gradient-20" />
    <linearGradient
       id="linear-gradient-61-7"
       x1="45.52"
       y1="41.900002"
       x2="32.169998"
       y2="41.900002"
       xlink:href="#linear-gradient-20" />
    <linearGradient
       id="linear-gradient-62-4"
       x1="65.830002"
       y1="30.1"
       x2="52.48"
       y2="30.1"
       xlink:href="#linear-gradient-20" />
    <linearGradient
       id="linear-gradient-63-5"
       x1="31.49"
       y1="36"
       x2="66.519997"
       y2="36"
       xlink:href="#linear-gradient-20" />
    <linearGradient
       id="linear-gradient-64-2"
       x1="34.310001"
       y1="36"
       x2="63.689999"
       y2="36"
       xlink:href="#linear-gradient-5" />
    <linearGradient
       id="linear-gradient-2-9-7"
       x1="38.669998"
       y1="63.200001"
       x2="44.509998"
       y2="73.330002"
       xlink:href="#linear-gradient" />
    <linearGradient
       id="linear-gradient-3-1-5"
       x1="80.419998"
       y1="44.16"
       x2="79.809998"
       y2="44.16"
       xlink:href="#linear-gradient" />
    <linearGradient
       id="linear-gradient-4-2-3"
       x1="53.459999"
       y1="28.6"
       x2="52.849998"
       y2="28.6"
       xlink:href="#linear-gradient" />
    <linearGradient
       id="linear-gradient-6-9-2"
       x1="73.309998"
       y1="66"
       x2="62.790001"
       y2="66"
       xlink:href="#linear-gradient-5" />
    <linearGradient
       id="linear-gradient-7-3-9"
       x1="69.800003"
       y1="68"
       x2="59.279999"
       y2="68"
       xlink:href="#linear-gradient-5" />
    <linearGradient
       id="linear-gradient-8-6-1"
       x1="66.389999"
       y1="70"
       x2="55.880001"
       y2="70"
       xlink:href="#linear-gradient-5" />
    <linearGradient
       id="linear-gradient-9-0-2"
       x1="80.220001"
       y1="62"
       x2="69.709999"
       y2="62"
       xlink:href="#linear-gradient-5" />
    <linearGradient
       id="linear-gradient-10-6-7"
       x1="83.68"
       y1="60"
       x2="73.160004"
       y2="60"
       xlink:href="#linear-gradient-5" />
    <linearGradient
       id="linear-gradient-11-2-0"
       x1="87.150002"
       y1="58"
       x2="76.629997"
       y2="58"
       xlink:href="#linear-gradient-5" />
    <linearGradient
       id="linear-gradient-12-6-9"
       x1="22.25"
       y1="34"
       x2="32.759998"
       y2="34"
       xlink:href="#linear-gradient-5" />
    <linearGradient
       id="linear-gradient-13-1-3"
       x1="18.799999"
       y1="36"
       x2="29.309999"
       y2="36"
       xlink:href="#linear-gradient-5" />
    <linearGradient
       id="linear-gradient-14-8-6"
       x1="15.28"
       y1="38"
       x2="25.799999"
       y2="38"
       xlink:href="#linear-gradient-5" />
    <linearGradient
       id="linear-gradient-15-7-0"
       x1="11.88"
       y1="40"
       x2="22.4"
       y2="40"
       xlink:href="#linear-gradient-5" />
    <linearGradient
       id="linear-gradient-16-9-6"
       x1="25.709999"
       y1="32"
       x2="36.220001"
       y2="32"
       xlink:href="#linear-gradient-5" />
    <linearGradient
       id="linear-gradient-17-2-2"
       x1="29.16"
       y1="30"
       x2="39.68"
       y2="30"
       xlink:href="#linear-gradient-5" />
    <linearGradient
       id="linear-gradient-18-0-6"
       x1="32.630001"
       y1="28"
       x2="43.139999"
       y2="28"
       xlink:href="#linear-gradient-5" />
    <linearGradient
       id="linear-gradient-19-2-1"
       x1="26.68"
       y1="23.92"
       x2="70.32"
       y2="67.559998"
       xlink:href="#linear-gradient" />
    <linearGradient
       id="linear-gradient-21-5-9"
       x1="25.620001"
       y1="43.029999"
       x2="71.980003"
       y2="43.029999"
       xlink:href="#linear-gradient" />
    <linearGradient
       id="linear-gradient-22-9-2"
       x1="6.29"
       y1="48.990002"
       x2="7.4899998"
       y2="48.990002"
       xlink:href="#linear-gradient" />
    <linearGradient
       id="linear-gradient-23-2-0"
       x1="90.690002"
       y1="50.650002"
       x2="89.5"
       y2="50.650002"
       xlink:href="#linear-gradient" />
    <linearGradient
       id="linear-gradient-24-2-2"
       x1="10.53"
       y1="50.700001"
       x2="7.4699998"
       y2="50.700001"
       xlink:href="#linear-gradient" />
    <linearGradient
       id="linear-gradient-25-8-3"
       x1="18.629999"
       y1="55.82"
       x2="17.969999"
       y2="55.82"
       xlink:href="#linear-gradient" />
    <linearGradient
       id="linear-gradient-26-9-7"
       x1="18.610001"
       y1="61.700001"
       x2="37.490002"
       y2="61.700001"
       xlink:href="#linear-gradient" />
    <linearGradient
       id="linear-gradient-27-7-5"
       x1="45.59"
       y1="71.389999"
       x2="44.93"
       y2="71.389999"
       xlink:href="#linear-gradient" />
    <linearGradient
       id="linear-gradient-28-3-9"
       x1="52.860001"
       y1="62.110001"
       x2="89.519997"
       y2="62.110001"
       xlink:href="#linear-gradient" />
    <linearGradient
       id="linear-gradient-29-6-2"
       x1="45.57"
       y1="72.290001"
       x2="47.209999"
       y2="72.290001"
       xlink:href="#linear-gradient" />
    <linearGradient
       id="linear-gradient-30-1-2"
       x1="52.880001"
       y1="73.099998"
       x2="47.200001"
       y2="73.099998"
       xlink:href="#linear-gradient" />
    <linearGradient
       id="linear-gradient-31-2-8"
       x1="14.59"
       y1="43.23"
       x2="16.59"
       y2="43.23"
       xlink:href="#linear-gradient-5" />
    <linearGradient
       id="linear-gradient-32-9-9"
       x1="17.41"
       y1="41.59"
       x2="19.41"
       y2="41.59"
       xlink:href="#linear-gradient-5" />
    <linearGradient
       id="linear-gradient-33-3-7"
       x1="20.23"
       y1="39.950001"
       x2="22.23"
       y2="39.950001"
       xlink:href="#linear-gradient-5" />
    <linearGradient
       id="linear-gradient-34-1-3"
       x1="23.049999"
       y1="38.310001"
       x2="25.049999"
       y2="38.310001"
       xlink:href="#linear-gradient-5" />
    <linearGradient
       id="linear-gradient-35-9-6"
       x1="71.230003"
       y1="54.689999"
       x2="73.220001"
       y2="54.689999"
       xlink:href="#linear-gradient-5" />
    <linearGradient
       id="linear-gradient-36-4-1"
       x1="74.040001"
       y1="53.060001"
       x2="76.040001"
       y2="53.060001"
       xlink:href="#linear-gradient-5" />
    <linearGradient
       id="linear-gradient-37-7-2"
       x1="76.860001"
       y1="51.419998"
       x2="78.860001"
       y2="51.419998"
       xlink:href="#linear-gradient-5" />
    <linearGradient
       id="linear-gradient-38-8-9"
       x1="79.68"
       y1="49.779999"
       x2="81.68"
       y2="49.779999"
       xlink:href="#linear-gradient-5" />
    <linearGradient
       id="linear-gradient-39-4-3"
       x1="25.610001"
       y1="44.259998"
       x2="26.23"
       y2="44.259998"
       xlink:href="#linear-gradient" />
    <linearGradient
       id="linear-gradient-40-5-1"
       x1="71.360001"
       y1="45.91"
       x2="71.980003"
       y2="45.91"
       xlink:href="#linear-gradient" />
    <linearGradient
       id="linear-gradient-41-0-9"
       x1="55.970001"
       y1="48.799999"
       x2="67.150002"
       y2="55.25"
       xlink:href="#linear-gradient" />
    <linearGradient
       id="linear-gradient-42-3-4"
       x1="25.530001"
       y1="44.290001"
       x2="49.509998"
       y2="58.130001"
       xlink:href="#linear-gradient" />
    <linearGradient
       id="linear-gradient-43-6-7"
       x1="48.799999"
       y1="57.900002"
       x2="51.759998"
       y2="57.900002"
       xlink:href="#linear-gradient" />
    <linearGradient
       id="linear-gradient-44-1-8"
       x1="40.400002"
       y1="42.799999"
       x2="53.099998"
       y2="42.799999"
       xlink:href="#linear-gradient-5" />
    <linearGradient
       id="linear-gradient-45-0-4"
       x1="37.290001"
       y1="47.57"
       x2="50.869999"
       y2="47.57"
       xlink:href="#linear-gradient-5" />
    <linearGradient
       id="linear-gradient-46-6-5"
       x1="59.73"
       y1="45.610001"
       x2="71.160004"
       y2="45.610001"
       xlink:href="#linear-gradient-5" />
    <linearGradient
       id="linear-gradient-47-3-0"
       x1="46.630001"
       y1="46.669998"
       x2="62.630001"
       y2="46.669998"
       xlink:href="#linear-gradient-5" />
    <linearGradient
       id="linear-gradient-48-2-3"
       x1="44.950001"
       y1="33.110001"
       x2="56.029999"
       y2="33.110001"
       xlink:href="#linear-gradient-5" />
    <linearGradient
       id="linear-gradient-49-0-6"
       x1="51.110001"
       y1="38.509998"
       x2="57.790001"
       y2="38.509998"
       xlink:href="#linear-gradient-5" />
    <linearGradient
       id="linear-gradient-50-6-1"
       x1="55.119999"
       y1="38.77"
       x2="63.07"
       y2="38.77"
       xlink:href="#linear-gradient-5" />
    <linearGradient
       id="linear-gradient-51-1-0"
       x1="59.43"
       y1="42.099998"
       x2="65.709999"
       y2="42.099998"
       xlink:href="#linear-gradient-5" />
    <linearGradient
       id="linear-gradient-52-5-6"
       x1="29.32"
       y1="42.490002"
       x2="35.93"
       y2="42.490002"
       xlink:href="#linear-gradient-5" />
    <linearGradient
       id="linear-gradient-53-5-3"
       x1="31.65"
       y1="42.82"
       x2="52.52"
       y2="42.82"
       xlink:href="#linear-gradient-5" />
    <linearGradient
       id="linear-gradient-54-4-2"
       x1="33.990002"
       y1="36.360001"
       x2="43.900002"
       y2="36.360001"
       xlink:href="#linear-gradient-5" />
    <linearGradient
       id="linear-gradient-55-7-0"
       x1="41.560001"
       y1="35.919998"
       x2="47.75"
       y2="35.919998"
       xlink:href="#linear-gradient-5" />
    <linearGradient
       id="linear-gradient-56-6-6"
       x1="28.17"
       y1="43.16"
       x2="30.950001"
       y2="43.16"
       xlink:href="#linear-gradient-5" />
    <linearGradient
       id="linear-gradient-57-5-1"
       x1="35.200001"
       y1="49.889999"
       x2="48.830002"
       y2="49.889999"
       xlink:href="#linear-gradient-5" />
    <linearGradient
       id="linear-gradient-58-6-5"
       x1="45.02"
       y1="54.27"
       x2="48.75"
       y2="54.27"
       xlink:href="#linear-gradient-5" />
    <linearGradient
       id="linear-gradient-59-9-5"
       x1="66.980003"
       y1="41.41"
       x2="49.759998"
       y2="41.41"
       xlink:href="#linear-gradient-20" />
    <linearGradient
       id="linear-gradient-60-3-4"
       x1="48.240002"
       y1="30.59"
       x2="31.02"
       y2="30.59"
       xlink:href="#linear-gradient-20" />
    <linearGradient
       id="linear-gradient-61-7-7"
       x1="45.52"
       y1="41.900002"
       x2="32.169998"
       y2="41.900002"
       xlink:href="#linear-gradient-20" />
    <linearGradient
       id="linear-gradient-62-4-6"
       x1="65.830002"
       y1="30.1"
       x2="52.48"
       y2="30.1"
       xlink:href="#linear-gradient-20" />
    <linearGradient
       id="linear-gradient-63-5-5"
       x1="31.49"
       y1="36"
       x2="66.519997"
       y2="36"
       xlink:href="#linear-gradient-20" />
    <linearGradient
       id="linear-gradient-64-2-6"
       x1="34.310001"
       y1="36"
       x2="63.689999"
       y2="36"
       xlink:href="#linear-gradient-5" />
  </defs>
  <g
     inkscape:label="drawers"
     inkscape:groupmode="layer"
     id="layer1">
    <path
       d="M 273.2005,160.64755 H 135.12585 c -2.43661,0 -4.06102,1.62441 -4.06102,4.06102 v 170.5628 c 0,2.43661 1.62441,4.06102 4.06102,4.06102 H 273.2005 c 2.43661,0 4.06102,-1.62441 4.06102,-4.06102 v -170.5628 c 0,-2.43661 -1.62441,-4.06102 -4.06102,-4.06102 z m -85.28141,8.12204 h 32.48815 v 8.12204 h -32.48815 z m -8.12204,0 v 12.18306 c 0,2.43661 1.62442,4.06102 4.06102,4.06102 h 40.61019 c 2.43661,0 4.06102,-1.62441 4.06102,-4.06102 v -12.18306 h 40.61021 v 48.73224 H 139.18687 v -48.73224 z m 8.12204,113.70852 h 32.48815 v 8.12206 h -32.48815 z m -48.73222,-8.12203 v -48.73221 h 40.61018 v 12.18305 c 0,2.43661 1.62442,4.06102 4.06102,4.06102 h 40.61019 c 2.43661,0 4.06102,-1.62441 4.06102,-4.06102 v -12.18305 h 40.61021 v 48.73221 z m 48.73222,-48.73221 h 32.48815 v 8.12203 h -32.48815 z m -48.73222,105.58649 v -48.73225 h 40.61018 v 12.18308 c 0,2.4366 1.62442,4.06102 4.06102,4.06102 h 40.61019 c 2.43661,0 4.06102,-1.62442 4.06102,-4.06102 v -12.18308 h 40.61021 v 48.73225 z"
       id="path1"
       style="stroke-width:4.06102" />
    <path
       d="M 273.2005,333.7939 H 135.12585 c -2.43661,0 -4.06102,1.62441 -4.06102,4.06102 v 170.5628 c 0,2.43661 1.62441,4.06102 4.06102,4.06102 H 273.2005 c 2.43661,0 4.06102,-1.62441 4.06102,-4.06102 v -170.5628 c 0,-2.43661 -1.62441,-4.06102 -4.06102,-4.06102 z m -85.28141,8.12204 h 32.48815 v 8.12204 h -32.48815 z m -8.12204,0 V 354.099 c 0,2.43661 1.62442,4.06102 4.06102,4.06102 h 40.61019 c 2.43661,0 4.06102,-1.62441 4.06102,-4.06102 v -12.18306 h 40.61021 v 48.73224 H 139.18687 v -48.73224 z m 8.12204,113.70852 h 32.48815 v 8.12206 h -32.48815 z m -48.73222,-8.12203 v -48.73221 h 40.61018 v 12.18305 c 0,2.43661 1.62442,4.06102 4.06102,4.06102 h 40.61019 c 2.43661,0 4.06102,-1.62441 4.06102,-4.06102 v -12.18305 h 40.61021 v 48.73221 z m 48.73222,-48.73221 h 32.48815 v 8.12203 h -32.48815 z m -48.73222,105.58649 v -48.73225 h 40.61018 v 12.18308 c 0,2.4366 1.62442,4.06102 4.06102,4.06102 h 40.61019 c 2.43661,0 4.06102,-1.62442 4.06102,-4.06102 v -12.18308 h 40.61021 v 48.73225 z"
       id="path1-5"
       style="stroke-width:4.06102" />
    <path
       d="M 273.2005,504.3567 H 135.12585 c -2.43661,0 -4.06102,1.62441 -4.06102,4.06102 v 170.5628 c 0,2.43661 1.62441,4.06102 4.06102,4.06102 H 273.2005 c 2.43661,0 4.06102,-1.62441 4.06102,-4.06102 v -170.5628 c 0,-2.43661 -1.62441,-4.06102 -4.06102,-4.06102 z m -85.28141,8.12204 h 32.48815 v 8.12204 h -32.48815 z m -8.12204,0 v 12.18306 c 0,2.43661 1.62442,4.06102 4.06102,4.06102 h 40.61019 c 2.43661,0 4.06102,-1.62441 4.06102,-4.06102 v -12.18306 h 40.61021 v 48.73224 H 139.18687 v -48.73224 z m 8.12204,113.70852 h 32.48815 v 8.12206 h -32.48815 z m -48.73222,-8.12203 v -48.73221 h 40.61018 v 12.18305 c 0,2.43661 1.62442,4.06102 4.06102,4.06102 h 40.61019 c 2.43661,0 4.06102,-1.62441 4.06102,-4.06102 v -12.18305 h 40.61021 v 48.73221 z m 48.73222,-48.73221 h 32.48815 v 8.12203 h -32.48815 z m -48.73222,105.58649 v -48.73225 h 40.61018 v 12.18308 c 0,2.4366 1.62442,4.06102 4.06102,4.06102 h 40.61019 c 2.43661,0 4.06102,-1.62442 4.06102,-4.06102 v -12.18308 h 40.61021 v 48.73225 z"
       id="path1-5-6"
       style="stroke-width:4.06102" />
    <path
       d="M 489.15385,161.93933 H 351.0792 c -2.43661,0 -4.06102,1.6244 -4.06102,4.06101 v 170.5628 c 0,2.43661 1.62441,4.06102 4.06102,4.06102 h 138.07465 c 2.43661,0 4.06102,-1.62441 4.06102,-4.06102 v -170.5628 c 0,-2.43661 -1.62441,-4.06101 -4.06102,-4.06101 z m -85.28141,8.12203 h 32.48815 v 8.12204 h -32.48815 z m -8.12204,0 v 12.18306 c 0,2.43661 1.62442,4.06102 4.06102,4.06102 h 40.61019 c 2.43661,0 4.06102,-1.62441 4.06102,-4.06102 v -12.18306 h 40.61021 V 218.7936 H 355.14022 v -48.73224 z m 8.12204,113.70852 h 32.48815 v 8.12206 h -32.48815 z m -48.73222,-8.12203 v -48.73221 h 40.61018 v 12.18305 c 0,2.43661 1.62442,4.06102 4.06102,4.06102 h 40.61019 c 2.43661,0 4.06102,-1.62441 4.06102,-4.06102 v -12.18305 h 40.61021 v 48.73221 z m 48.73222,-48.73221 h 32.48815 v 8.12203 h -32.48815 z m -48.73222,105.58649 v -48.73225 h 40.61018 v 12.18308 c 0,2.4366 1.62442,4.06102 4.06102,4.06102 h 40.61019 c 2.43661,0 4.06102,-1.62442 4.06102,-4.06102 v -12.18308 h 40.61021 v 48.73225 z"
       id="path1-9"
       style="stroke-width:4.06102" />
    <path
       d="M 489.15385,335.08567 H 351.0792 c -2.43661,0 -4.06102,1.62441 -4.06102,4.06102 v 170.5628 c 0,2.43661 1.62441,4.06102 4.06102,4.06102 h 138.07465 c 2.43661,0 4.06102,-1.62441 4.06102,-4.06102 v -170.5628 c 0,-2.43661 -1.62441,-4.06102 -4.06102,-4.06102 z m -85.28141,8.12204 h 32.48815 v 8.12204 h -32.48815 z m -8.12204,0 v 12.18306 c 0,2.43661 1.62442,4.06102 4.06102,4.06102 h 40.61019 c 2.43661,0 4.06102,-1.62441 4.06102,-4.06102 v -12.18306 h 40.61021 v 48.73224 H 355.14022 v -48.73224 z m 8.12204,113.70852 h 32.48815 v 8.12206 h -32.48815 z m -48.73222,-8.12203 v -48.73221 h 40.61018 v 12.18305 c 0,2.43661 1.62442,4.06102 4.06102,4.06102 h 40.61019 c 2.43661,0 4.06102,-1.62441 4.06102,-4.06102 v -12.18305 h 40.61021 v 48.73221 z m 48.73222,-48.73221 h 32.48815 v 8.12203 h -32.48815 z m -48.73222,105.58649 v -48.73225 h 40.61018 v 12.18308 c 0,2.4366 1.62442,4.06102 4.06102,4.06102 h 40.61019 c 2.43661,0 4.06102,-1.62442 4.06102,-4.06102 v -12.18308 h 40.61021 v 48.73225 z"
       id="path1-5-1"
       style="stroke-width:4.06102" />
    <path
       d="M 489.15385,505.64847 H 351.0792 c -2.43661,0 -4.06102,1.62441 -4.06102,4.06102 v 170.5628 c 0,2.43661 1.62441,4.06102 4.06102,4.06102 h 138.07465 c 2.43661,0 4.06102,-1.62441 4.06102,-4.06102 v -170.5628 c 0,-2.43661 -1.62441,-4.06102 -4.06102,-4.06102 z m -85.28141,8.12204 h 32.48815 v 8.12204 h -32.48815 z m -8.12204,0 v 12.18306 c 0,2.43661 1.62442,4.06102 4.06102,4.06102 h 40.61019 c 2.43661,0 4.06102,-1.62441 4.06102,-4.06102 v -12.18306 h 40.61021 v 48.73224 H 355.14022 v -48.73224 z m 8.12204,113.70852 h 32.48815 v 8.12206 H 403.87244 Z M 355.14022,619.357 v -48.73221 h 40.61018 v 12.18305 c 0,2.43661 1.62442,4.06102 4.06102,4.06102 h 40.61019 c 2.43661,0 4.06102,-1.62441 4.06102,-4.06102 v -12.18305 h 40.61021 V 619.357 Z m 48.73222,-48.73221 h 32.48815 v 8.12203 h -32.48815 z m -48.73222,105.58649 v -48.73225 h 40.61018 v 12.18308 c 0,2.4366 1.62442,4.06102 4.06102,4.06102 h 40.61019 c 2.43661,0 4.06102,-1.62442 4.06102,-4.06102 v -12.18308 h 40.61021 v 48.73225 z"
       id="path1-5-6-2"
       style="stroke-width:4.06102" />
    <path
       d="M 705.1072,163.2311 H 567.03255 c -2.43661,0 -4.06102,1.62441 -4.06102,4.06102 v 170.5628 c 0,2.43661 1.62441,4.06102 4.06102,4.06102 H 705.1072 c 2.43661,0 4.06102,-1.62441 4.06102,-4.06102 v -170.5628 c 0,-2.43661 -1.62441,-4.06102 -4.06102,-4.06102 z m -85.28141,8.12204 h 32.48815 v 8.12204 h -32.48815 z m -8.12204,0 v 12.18306 c 0,2.43661 1.62442,4.06101 4.06102,4.06101 h 40.61019 c 2.43661,0 4.06102,-1.6244 4.06102,-4.06101 v -12.18306 h 40.61021 v 48.73224 H 571.09357 v -48.73224 z m 8.12204,113.70852 h 32.48815 v 8.12206 h -32.48815 z m -48.73222,-8.12203 v -48.73221 h 40.61018 v 12.18305 c 0,2.43661 1.62442,4.06102 4.06102,4.06102 h 40.61019 c 2.43661,0 4.06102,-1.62441 4.06102,-4.06102 v -12.18305 h 40.61021 v 48.73221 z m 48.73222,-48.73221 h 32.48815 v 8.12203 h -32.48815 z m -48.73222,105.58649 v -48.73225 h 40.61018 v 12.18308 c 0,2.4366 1.62442,4.06102 4.06102,4.06102 h 40.61019 c 2.43661,0 4.06102,-1.62442 4.06102,-4.06102 v -12.18308 h 40.61021 v 48.73225 z"
       id="path1-9-9"
       style="stroke-width:4.06102" />
    <path
       d="M 705.1072,336.37745 H 567.03255 c -2.43661,0 -4.06102,1.62441 -4.06102,4.06102 v 170.5628 c 0,2.43661 1.62441,4.06102 4.06102,4.06102 H 705.1072 c 2.43661,0 4.06102,-1.62441 4.06102,-4.06102 v -170.5628 c 0,-2.43661 -1.62441,-4.06102 -4.06102,-4.06102 z m -85.28141,8.12204 h 32.48815 v 8.12204 h -32.48815 z m -8.12204,0 v 12.18306 c 0,2.43661 1.62442,4.06102 4.06102,4.06102 h 40.61019 c 2.43661,0 4.06102,-1.62441 4.06102,-4.06102 v -12.18306 h 40.61021 v 48.73224 H 571.09357 v -48.73224 z m 8.12204,113.70852 h 32.48815 v 8.12206 h -32.48815 z m -48.73222,-8.12203 v -48.73221 h 40.61018 v 12.18305 c 0,2.43661 1.62442,4.06102 4.06102,4.06102 h 40.61019 c 2.43661,0 4.06102,-1.62441 4.06102,-4.06102 v -12.18305 h 40.61021 v 48.73221 z m 48.73222,-48.73221 h 32.48815 v 8.12203 h -32.48815 z m -48.73222,105.58649 v -48.73225 h 40.61018 v 12.18308 c 0,2.4366 1.62442,4.06102 4.06102,4.06102 h 40.61019 c 2.43661,0 4.06102,-1.62442 4.06102,-4.06102 v -12.18308 h 40.61021 v 48.73225 z"
       id="path1-5-1-3"
       style="stroke-width:4.06102" />
    <path
       d="M 705.1072,506.94025 H 567.03255 c -2.43661,0 -4.06102,1.62441 -4.06102,4.06102 v 170.5628 c 0,2.43661 1.62441,4.06102 4.06102,4.06102 H 705.1072 c 2.43661,0 4.06102,-1.62441 4.06102,-4.06102 v -170.5628 c 0,-2.43661 -1.62441,-4.06102 -4.06102,-4.06102 z m -85.28141,8.12204 h 32.48815 v 8.12204 h -32.48815 z m -8.12204,0 v 12.18306 c 0,2.43661 1.62442,4.06102 4.06102,4.06102 h 40.61019 c 2.43661,0 4.06102,-1.62441 4.06102,-4.06102 v -12.18306 h 40.61021 v 48.73224 H 571.09357 v -48.73224 z m 8.12204,113.70852 h 32.48815 v 8.12206 h -32.48815 z m -48.73222,-8.12203 v -48.73221 h 40.61018 v 12.18305 c 0,2.43661 1.62442,4.06102 4.06102,4.06102 h 40.61019 c 2.43661,0 4.06102,-1.62441 4.06102,-4.06102 v -12.18305 h 40.61021 v 48.73221 z m 48.73222,-48.73221 h 32.48815 v 8.12203 h -32.48815 z m -48.73222,105.58649 v -48.73225 h 40.61018 v 12.18308 c 0,2.4366 1.62442,4.06102 4.06102,4.06102 h 40.61019 c 2.43661,0 4.06102,-1.62442 4.06102,-4.06102 v -12.18308 h 40.61021 v 48.73225 z"
       id="path1-5-6-2-6"
       style="stroke-width:4.06102" />
    <path
       d="M 921.06055,161.93933 H 782.9859 c -2.43661,0 -4.06102,1.6244 -4.06102,4.06101 v 170.5628 c 0,2.43661 1.62441,4.06102 4.06102,4.06102 h 138.07465 c 2.43661,0 4.06102,-1.62441 4.06102,-4.06102 v -170.5628 c 0,-2.43661 -1.62441,-4.06101 -4.06102,-4.06101 z m -85.28141,8.12203 h 32.48815 v 8.12204 h -32.48815 z m -8.12204,0 v 12.18306 c 0,2.43661 1.62442,4.06102 4.06102,4.06102 h 40.61019 c 2.43661,0 4.06102,-1.62441 4.06102,-4.06102 v -12.18306 h 40.61021 V 218.7936 H 787.04692 v -48.73224 z m 8.12204,113.70852 h 32.48815 v 8.12206 h -32.48815 z m -48.73222,-8.12203 v -48.73221 h 40.61018 v 12.18305 c 0,2.43661 1.62442,4.06102 4.06102,4.06102 h 40.61019 c 2.43661,0 4.06102,-1.62441 4.06102,-4.06102 v -12.18305 h 40.61021 v 48.73221 z m 48.73222,-48.73221 h 32.48815 v 8.12203 h -32.48815 z m -48.73222,105.58649 v -48.73225 h 40.61018 v 12.18308 c 0,2.4366 1.62442,4.06102 4.06102,4.06102 h 40.61019 c 2.43661,0 4.06102,-1.62442 4.06102,-4.06102 v -12.18308 h 40.61021 v 48.73225 z"
       id="path1-9-9-2"
       style="stroke-width:4.06102" />
    <path
       d="M 921.06055,335.08567 H 782.9859 c -2.43661,0 -4.06102,1.62441 -4.06102,4.06102 v 170.5628 c 0,2.43661 1.62441,4.06102 4.06102,4.06102 h 138.07465 c 2.43661,0 4.06102,-1.62441 4.06102,-4.06102 v -170.5628 c 0,-2.43661 -1.62441,-4.06102 -4.06102,-4.06102 z m -85.28141,8.12204 h 32.48815 v 8.12204 h -32.48815 z m -8.12204,0 v 12.18306 c 0,2.43661 1.62442,4.06102 4.06102,4.06102 h 40.61019 c 2.43661,0 4.06102,-1.62441 4.06102,-4.06102 v -12.18306 h 40.61021 v 48.73224 H 787.04692 v -48.73224 z m 8.12204,113.70852 h 32.48815 v 8.12206 h -32.48815 z m -48.73222,-8.12203 v -48.73221 h 40.61018 v 12.18305 c 0,2.43661 1.62442,4.06102 4.06102,4.06102 h 40.61019 c 2.43661,0 4.06102,-1.62441 4.06102,-4.06102 v -12.18305 h 40.61021 v 48.73221 z m 48.73222,-48.73221 h 32.48815 v 8.12203 h -32.48815 z m -48.73222,105.58649 v -48.73225 h 40.61018 v 12.18308 c 0,2.4366 1.62442,4.06102 4.06102,4.06102 h 40.61019 c 2.43661,0 4.06102,-1.62442 4.06102,-4.06102 v -12.18308 h 40.61021 v 48.73225 z"
       id="path1-5-1-3-6"
       style="stroke-width:4.06102" />
    <path
       d="M 921.06055,505.64847 H 782.9859 c -2.43661,0 -4.06102,1.62441 -4.06102,4.06102 v 170.5628 c 0,2.43661 1.62441,4.06102 4.06102,4.06102 h 138.07465 c 2.43661,0 4.06102,-1.62441 4.06102,-4.06102 v -170.5628 c 0,-2.43661 -1.62441,-4.06102 -4.06102,-4.06102 z m -85.28141,8.12204 h 32.48815 v 8.12204 h -32.48815 z m -8.12204,0 v 12.18306 c 0,2.43661 1.62442,4.06102 4.06102,4.06102 h 40.61019 c 2.43661,0 4.06102,-1.62441 4.06102,-4.06102 v -12.18306 h 40.61021 v 48.73224 H 787.04692 v -48.73224 z m 8.12204,113.70852 h 32.48815 v 8.12206 H 835.77914 Z M 787.04692,619.357 v -48.73221 h 40.61018 v 12.18305 c 0,2.43661 1.62442,4.06102 4.06102,4.06102 h 40.61019 c 2.43661,0 4.06102,-1.62441 4.06102,-4.06102 v -12.18305 h 40.61021 V 619.357 Z m 48.73222,-48.73221 h 32.48815 v 8.12203 h -32.48815 z m -48.73222,105.58649 v -48.73225 h 40.61018 v 12.18308 c 0,2.4366 1.62442,4.06102 4.06102,4.06102 h 40.61019 c 2.43661,0 4.06102,-1.62442 4.06102,-4.06102 v -12.18308 h 40.61021 v 48.73225 z"
       id="path1-5-6-2-6-1"
       style="stroke-width:4.06102" />
    <path
       d="M 1137.0139,163.2311 H 998.93925 c -2.43661,0 -4.06102,1.62441 -4.06102,4.06102 v 170.5628 c 0,2.43661 1.62441,4.06102 4.06102,4.06102 h 138.07465 c 2.4366,0 4.0611,-1.62441 4.0611,-4.06102 v -170.5628 c 0,-2.43661 -1.6245,-4.06102 -4.0611,-4.06102 z m -85.2814,8.12204 h 32.4882 v 8.12204 h -32.4882 z m -8.122,0 v 12.18306 c 0,2.43661 1.6244,4.06101 4.061,4.06101 h 40.6102 c 2.4366,0 4.061,-1.6244 4.061,-4.06101 v -12.18306 h 40.6102 v 48.73224 h -129.9526 v -48.73224 z m 8.122,113.70852 h 32.4882 v 8.12206 h -32.4882 z m -48.7322,-8.12203 v -48.73221 h 40.6102 v 12.18305 c 0,2.43661 1.6244,4.06102 4.061,4.06102 h 40.6102 c 2.4366,0 4.061,-1.62441 4.061,-4.06102 v -12.18305 h 40.6102 v 48.73221 z m 48.7322,-48.73221 h 32.4882 v 8.12203 h -32.4882 z m -48.7322,105.58649 v -48.73225 h 40.6102 v 12.18308 c 0,2.4366 1.6244,4.06102 4.061,4.06102 h 40.6102 c 2.4366,0 4.061,-1.62442 4.061,-4.06102 v -12.18308 h 40.6102 v 48.73225 z"
       id="path1-9-9-2-9"
       style="stroke-width:4.06102" />
    <path
       d="M 1137.0139,336.37745 H 998.93925 c -2.43661,0 -4.06102,1.62441 -4.06102,4.06102 v 170.5628 c 0,2.43661 1.62441,4.06102 4.06102,4.06102 h 138.07465 c 2.4366,0 4.0611,-1.62441 4.0611,-4.06102 v -170.5628 c 0,-2.43661 -1.6245,-4.06102 -4.0611,-4.06102 z m -85.2814,8.12204 h 32.4882 v 8.12204 h -32.4882 z m -8.122,0 v 12.18306 c 0,2.43661 1.6244,4.06102 4.061,4.06102 h 40.6102 c 2.4366,0 4.061,-1.62441 4.061,-4.06102 v -12.18306 h 40.6102 v 48.73224 h -129.9526 v -48.73224 z m 8.122,113.70852 h 32.4882 v 8.12206 h -32.4882 z m -48.7322,-8.12203 v -48.73221 h 40.6102 v 12.18305 c 0,2.43661 1.6244,4.06102 4.061,4.06102 h 40.6102 c 2.4366,0 4.061,-1.62441 4.061,-4.06102 v -12.18305 h 40.6102 v 48.73221 z m 48.7322,-48.73221 h 32.4882 v 8.12203 h -32.4882 z m -48.7322,105.58649 v -48.73225 h 40.6102 v 12.18308 c 0,2.4366 1.6244,4.06102 4.061,4.06102 h 40.6102 c 2.4366,0 4.061,-1.62442 4.061,-4.06102 v -12.18308 h 40.6102 v 48.73225 z"
       id="path1-5-1-3-6-2"
       style="stroke-width:4.06102" />
    <path
       d="M 1137.0139,506.94025 H 998.93925 c -2.43661,0 -4.06102,1.62441 -4.06102,4.06102 v 170.5628 c 0,2.43661 1.62441,4.06102 4.06102,4.06102 h 138.07465 c 2.4366,0 4.0611,-1.62441 4.0611,-4.06102 v -170.5628 c 0,-2.43661 -1.6245,-4.06102 -4.0611,-4.06102 z m -85.2814,8.12204 h 32.4882 v 8.12204 h -32.4882 z m -8.122,0 v 12.18306 c 0,2.43661 1.6244,4.06102 4.061,4.06102 h 40.6102 c 2.4366,0 4.061,-1.62441 4.061,-4.06102 v -12.18306 h 40.6102 v 48.73224 h -129.9526 v -48.73224 z m 8.122,113.70852 h 32.4882 v 8.12206 h -32.4882 z m -48.7322,-8.12203 v -48.73221 h 40.6102 v 12.18305 c 0,2.43661 1.6244,4.06102 4.061,4.06102 h 40.6102 c 2.4366,0 4.061,-1.62441 4.061,-4.06102 v -12.18305 h 40.6102 v 48.73221 z m 48.7322,-48.73221 h 32.4882 v 8.12203 h -32.4882 z m -48.7322,105.58649 v -48.73225 h 40.6102 v 12.18308 c 0,2.4366 1.6244,4.06102 4.061,4.06102 h 40.6102 c 2.4366,0 4.061,-1.62442 4.061,-4.06102 v -12.18308 h 40.6102 v 48.73225 z"
       id="path1-5-6-2-6-1-0"
       style="stroke-width:4.06102" />
    <path
       d="m 1352.9673,164.52287 h -138.0746 c -2.4366,0 -4.061,1.62441 -4.061,4.06102 v 170.5628 c 0,2.43661 1.6244,4.06102 4.061,4.06102 h 138.0746 c 2.4366,0 4.0611,-1.62441 4.0611,-4.06102 v -170.5628 c 0,-2.43661 -1.6245,-4.06102 -4.0611,-4.06102 z m -85.2814,8.12204 h 32.4882 v 8.12204 h -32.4882 z m -8.122,0 v 12.18306 c 0,2.43661 1.6244,4.06102 4.061,4.06102 h 40.6102 c 2.4366,0 4.061,-1.62441 4.061,-4.06102 v -12.18306 h 40.6102 v 48.73224 h -129.9526 v -48.73224 z m 8.122,113.70852 h 32.4882 v 8.12206 h -32.4882 z m -48.7322,-8.12203 v -48.73221 h 40.6102 v 12.18305 c 0,2.43661 1.6244,4.06102 4.061,4.06102 h 40.6102 c 2.4366,0 4.061,-1.62441 4.061,-4.06102 v -12.18305 h 40.6102 v 48.73221 z m 48.7322,-48.73221 h 32.4882 v 8.12203 h -32.4882 z m -48.7322,105.58649 v -48.73225 h 40.6102 v 12.18308 c 0,2.4366 1.6244,4.06102 4.061,4.06102 h 40.6102 c 2.4366,0 4.061,-1.62442 4.061,-4.06102 v -12.18308 h 40.6102 v 48.73225 z"
       id="path1-9-9-2-9-7"
       style="stroke-width:4.06102" />
    <path
       d="m 1352.9673,337.66922 h -138.0746 c -2.4366,0 -4.061,1.62441 -4.061,4.06102 v 170.5628 c 0,2.43661 1.6244,4.06102 4.061,4.06102 h 138.0746 c 2.4366,0 4.0611,-1.62441 4.0611,-4.06102 v -170.5628 c 0,-2.43661 -1.6245,-4.06102 -4.0611,-4.06102 z m -85.2814,8.12204 h 32.4882 v 8.12204 h -32.4882 z m -8.122,0 v 12.18306 c 0,2.43661 1.6244,4.06102 4.061,4.06102 h 40.6102 c 2.4366,0 4.061,-1.62441 4.061,-4.06102 v -12.18306 h 40.6102 v 48.73224 h -129.9526 v -48.73224 z m 8.122,113.70852 h 32.4882 v 8.12206 h -32.4882 z m -48.7322,-8.12203 v -48.73221 h 40.6102 v 12.18305 c 0,2.43661 1.6244,4.06102 4.061,4.06102 h 40.6102 c 2.4366,0 4.061,-1.62441 4.061,-4.06102 v -12.18305 h 40.6102 v 48.73221 z m 48.7322,-48.73221 h 32.4882 v 8.12203 h -32.4882 z m -48.7322,105.58649 v -48.73225 h 40.6102 v 12.18308 c 0,2.4366 1.6244,4.06102 4.061,4.06102 h 40.6102 c 2.4366,0 4.061,-1.62442 4.061,-4.06102 v -12.18308 h 40.6102 v 48.73225 z"
       id="path1-5-1-3-6-2-5"
       style="stroke-width:4.06102" />
    <path
       d="m 1352.9673,508.23202 h -138.0746 c -2.4366,0 -4.061,1.62441 -4.061,4.06102 v 170.5628 c 0,2.43661 1.6244,4.06102 4.061,4.06102 h 138.0746 c 2.4366,0 4.0611,-1.62441 4.0611,-4.06102 v -170.5628 c 0,-2.43661 -1.6245,-4.06102 -4.0611,-4.06102 z m -85.2814,8.12204 h 32.4882 v 8.12204 h -32.4882 z m -8.122,0 v 12.18306 c 0,2.43661 1.6244,4.06102 4.061,4.06102 h 40.6102 c 2.4366,0 4.061,-1.62441 4.061,-4.06102 v -12.18306 h 40.6102 v 48.73224 h -129.9526 v -48.73224 z m 8.122,113.70852 h 32.4882 v 8.12206 h -32.4882 z m -48.7322,-8.12203 v -48.73221 h 40.6102 v 12.18305 c 0,2.43661 1.6244,4.06102 4.061,4.06102 h 40.6102 c 2.4366,0 4.061,-1.62441 4.061,-4.06102 v -12.18305 h 40.6102 v 48.73221 z m 48.7322,-48.73221 h 32.4882 v 8.12203 h -32.4882 z m -48.7322,105.58649 v -48.73225 h 40.6102 v 12.18308 c 0,2.4366 1.6244,4.06102 4.061,4.06102 h 40.6102 c 2.4366,0 4.061,-1.62442 4.061,-4.06102 v -12.18308 h 40.6102 v 48.73225 z"
       id="path1-5-6-2-6-1-0-9"
       style="stroke-width:4.06102" />
    <path
       d="m 1568.9207,165.81465 h -138.0746 c -2.4366,0 -4.061,1.6244 -4.061,4.06101 v 170.5628 c 0,2.43661 1.6244,4.06102 4.061,4.06102 h 138.0746 c 2.4366,0 4.061,-1.62441 4.061,-4.06102 v -170.5628 c 0,-2.43661 -1.6244,-4.06102 -4.061,-4.06101 z m -85.2814,8.12203 h 32.4882 v 8.12204 h -32.4882 z m -8.122,0 v 12.18306 c 0,2.43661 1.6244,4.06102 4.061,4.06102 h 40.6102 c 2.4366,0 4.061,-1.62441 4.061,-4.06102 v -12.18306 h 40.6102 v 48.73224 h -129.9526 v -48.73224 z m 8.122,113.70852 h 32.4882 v 8.12206 h -32.4882 z m -48.7322,-8.12203 v -48.73221 h 40.6102 v 12.18305 c 0,2.43661 1.6244,4.06102 4.061,4.06102 h 40.6102 c 2.4366,0 4.061,-1.62441 4.061,-4.06102 v -12.18305 h 40.6102 v 48.73221 z m 48.7322,-48.73221 h 32.4882 v 8.12203 h -32.4882 z m -48.7322,105.58649 V 287.6452 h 40.6102 v 12.18308 c 0,2.4366 1.6244,4.06102 4.061,4.06102 h 40.6102 c 2.4366,0 4.061,-1.62442 4.061,-4.06102 V 287.6452 h 40.6102 v 48.73225 z"
       id="path1-9-9-2-9-7-8"
       style="stroke-width:4.06102" />
    <path
       d="m 1568.9207,338.96099 h -138.0746 c -2.4366,0 -4.061,1.62441 -4.061,4.06102 v 170.5628 c 0,2.43661 1.6244,4.06102 4.061,4.06102 h 138.0746 c 2.4366,0 4.061,-1.62441 4.061,-4.06102 v -170.5628 c 0,-2.43661 -1.6244,-4.06102 -4.061,-4.06102 z m -85.2814,8.12204 h 32.4882 v 8.12204 h -32.4882 z m -8.122,0 v 12.18306 c 0,2.43661 1.6244,4.06102 4.061,4.06102 h 40.6102 c 2.4366,0 4.061,-1.62441 4.061,-4.06102 v -12.18306 h 40.6102 v 48.73224 h -129.9526 v -48.73224 z m 8.122,113.70852 h 32.4882 v 8.12206 h -32.4882 z m -48.7322,-8.12203 v -48.73221 h 40.6102 v 12.18305 c 0,2.43661 1.6244,4.06102 4.061,4.06102 h 40.6102 c 2.4366,0 4.061,-1.62441 4.061,-4.06102 v -12.18305 h 40.6102 v 48.73221 z m 48.7322,-48.73221 h 32.4882 v 8.12203 h -32.4882 z m -48.7322,105.58649 v -48.73225 h 40.6102 v 12.18308 c 0,2.4366 1.6244,4.06102 4.061,4.06102 h 40.6102 c 2.4366,0 4.061,-1.62442 4.061,-4.06102 v -12.18308 h 40.6102 v 48.73225 z"
       id="path1-5-1-3-6-2-5-9"
       style="stroke-width:4.06102" />
    <path
       d="m 1568.9207,509.52379 h -138.0746 c -2.4366,0 -4.061,1.62441 -4.061,4.06102 v 170.5628 c 0,2.43661 1.6244,4.06102 4.061,4.06102 h 138.0746 c 2.4366,0 4.0611,-1.62441 4.0611,-4.06102 v -170.5628 c 0,-2.43661 -1.6245,-4.06102 -4.0611,-4.06102 z m -85.2814,8.12204 h 32.4882 v 8.12204 h -32.4882 z m -8.122,0 v 12.18306 c 0,2.43661 1.6244,4.06102 4.061,4.06102 h 40.6102 c 2.4366,0 4.061,-1.62441 4.061,-4.06102 v -12.18306 h 40.6102 v 48.73224 h -129.9526 v -48.73224 z m 8.122,113.70852 h 32.4882 v 8.12206 h -32.4882 z m -48.7322,-8.12203 v -48.73221 h 40.6102 v 12.18305 c 0,2.43661 1.6244,4.06102 4.061,4.06102 h 40.6102 c 2.4366,0 4.061,-1.62441 4.061,-4.06102 v -12.18305 h 40.6102 v 48.73221 z m 48.7322,-48.73221 h 32.4882 v 8.12203 h -32.4882 z m -48.7322,105.58649 v -48.73225 h 40.6102 v 12.18308 c 0,2.4366 1.6244,4.06102 4.061,4.06102 h 40.6102 c 2.4366,0 4.061,-1.62442 4.061,-4.06102 v -12.18308 h 40.6102 v 48.73225 z"
       id="path1-5-6-2-6-1-0-9-7"
       style="stroke-width:4.06102" />
    <path
       d="m 1784.8741,167.10642 h -138.0746 c -2.4366,0 -4.061,1.62441 -4.061,4.06102 v 170.5628 c 0,2.43661 1.6244,4.06102 4.061,4.06102 h 138.0746 c 2.4366,0 4.0611,-1.62441 4.0611,-4.06102 v -170.5628 c 0,-2.43661 -1.6245,-4.06102 -4.0611,-4.06102 z m -85.2814,8.12204 h 32.4882 v 8.12204 h -32.4882 z m -8.122,0 v 12.18306 c 0,2.43661 1.6244,4.06102 4.061,4.06102 h 40.6102 c 2.4366,0 4.061,-1.62441 4.061,-4.06102 v -12.18306 h 40.6102 v 48.73224 h -129.9526 v -48.73224 z m 8.122,113.70852 h 32.4882 v 8.12206 h -32.4882 z m -48.7322,-8.12203 v -48.73221 h 40.6102 v 12.18305 c 0,2.43661 1.6244,4.06102 4.061,4.06102 h 40.6102 c 2.4366,0 4.061,-1.62441 4.061,-4.06102 v -12.18305 h 40.6102 v 48.73221 z m 48.7322,-48.73221 h 32.4882 v 8.12203 h -32.4882 z m -48.7322,105.58649 v -48.73225 h 40.6102 v 12.18308 c 0,2.4366 1.6244,4.06102 4.061,4.06102 h 40.6102 c 2.4366,0 4.061,-1.62442 4.061,-4.06102 v -12.18308 h 40.6102 v 48.73225 z"
       id="path1-9-9-2-9-7-8-1"
       style="stroke-width:4.06102" />
    <path
       d="m 1784.8741,340.25277 h -138.0746 c -2.4366,0 -4.061,1.62441 -4.061,4.06102 v 170.5628 c 0,2.43661 1.6244,4.06102 4.061,4.06102 h 138.0746 c 2.4366,0 4.0611,-1.62441 4.0611,-4.06102 v -170.5628 c 0,-2.43661 -1.6245,-4.06102 -4.0611,-4.06102 z m -85.2814,8.12204 h 32.4882 v 8.12204 h -32.4882 z m -8.122,0 v 12.18306 c 0,2.43661 1.6244,4.06102 4.061,4.06102 h 40.6102 c 2.4366,0 4.061,-1.62441 4.061,-4.06102 v -12.18306 h 40.6102 v 48.73224 h -129.9526 v -48.73224 z m 8.122,113.70852 h 32.4882 v 8.12206 h -32.4882 z m -48.7322,-8.12203 v -48.73221 h 40.6102 v 12.18305 c 0,2.43661 1.6244,4.06102 4.061,4.06102 h 40.6102 c 2.4366,0 4.061,-1.62441 4.061,-4.06102 v -12.18305 h 40.6102 v 48.73221 z m 48.7322,-48.73221 h 32.4882 v 8.12203 h -32.4882 z m -48.7322,105.58649 v -48.73225 h 40.6102 v 12.18308 c 0,2.4366 1.6244,4.06102 4.061,4.06102 h 40.6102 c 2.4366,0 4.061,-1.62442 4.061,-4.06102 v -12.18308 h 40.6102 v 48.73225 z"
       id="path1-5-1-3-6-2-5-9-2"
       style="stroke-width:4.06102" />
    <path
       d="m 1784.8741,510.81557 h -138.0746 c -2.4366,0 -4.061,1.62441 -4.061,4.06102 v 170.5628 c 0,2.43661 1.6244,4.06102 4.061,4.06102 h 138.0746 c 2.4366,0 4.0611,-1.62441 4.0611,-4.06102 v -170.5628 c 0,-2.43661 -1.6245,-4.06102 -4.0611,-4.06102 z m -85.2814,8.12204 h 32.4882 v 8.12204 h -32.4882 z m -8.122,0 v 12.18306 c 0,2.43661 1.6244,4.06102 4.061,4.06102 h 40.6102 c 2.4366,0 4.061,-1.62441 4.061,-4.06102 v -12.18306 h 40.6102 v 48.73224 h -129.9526 v -48.73224 z m 8.122,113.70852 h 32.4882 v 8.12206 h -32.4882 z m -48.7322,-8.12203 v -48.73221 h 40.6102 v 12.18305 c 0,2.43661 1.6244,4.06102 4.061,4.06102 h 40.6102 c 2.4366,0 4.061,-1.62441 4.061,-4.06102 v -12.18305 h 40.6102 v 48.73221 z m 48.7322,-48.73221 h 32.4882 v 8.12203 h -32.4882 z m -48.7322,105.58649 v -48.73225 h 40.6102 v 12.18308 c 0,2.4366 1.6244,4.06102 4.061,4.06102 h 40.6102 c 2.4366,0 4.061,-1.62442 4.061,-4.06102 v -12.18308 h 40.6102 v 48.73225 z"
       id="path1-5-6-2-6-1-0-9-7-9"
       style="stroke-width:4.06102" />
    <text
       xml:space="preserve"
       style="font-size:42.6667px;font-family:Roboto;-inkscape-font-specification:'Roboto, Normal';text-align:center;text-anchor:middle;fill:#ffffff;stroke:#ffffff;stroke-width:10.2076;stroke-linecap:square"
       x="959.84375"
       y="66.639313"
       id="text1"><tspan
         sodipodi:role="line"
         id="tspan1"
         x="959.84375"
         y="66.639313"
         style="font-style:normal;font-variant:normal;font-weight:normal;font-stretch:normal;font-size:42.6667px;font-family:sans-serif;-inkscape-font-specification:sans-serif;fill:#000000;stroke:none;stroke-width:10.2076">Each drawer is a place your computer can store something</tspan><tspan
         sodipodi:role="line"
         x="966.625"
         y="120.38935"
         style="font-style:normal;font-variant:normal;font-weight:normal;font-stretch:normal;font-size:42.6667px;font-family:sans-serif;-inkscape-font-specification:sans-serif;fill:#000000;stroke:none;stroke-width:10.2076"
         id="tspan2">and find it again with a memory address </tspan></text>
  </g>
  <g
     inkscape:groupmode="layer"
     id="layer2"
     inkscape:label="duck" />
</svg>
