<?xml version="1.0" encoding="UTF-8" standalone="no"?>
<!-- Created with Inkscape (http://www.inkscape.org/) -->

<svg
   width="682pt"
   height="314.74399pt"
   viewBox="0 0 909.33346 419.65853"
   version="1.1"
   id="svg5"
   inkscape:version="1.3.2 (1:1.3.2+202311252150+091e20ef0f)"
   sodipodi:docname="var-label.svg"
   xmlns:inkscape="http://www.inkscape.org/namespaces/inkscape"
   xmlns:sodipodi="http://sodipodi.sourceforge.net/DTD/sodipodi-0.dtd"
   xmlns:xlink="http://www.w3.org/1999/xlink"
   xmlns="http://www.w3.org/2000/svg"
   xmlns:svg="http://www.w3.org/2000/svg">
  <sodipodi:namedview
     id="namedview7"
     pagecolor="#ffffff"
     bordercolor="#666666"
     borderopacity="1.0"
     inkscape:pageshadow="2"
     inkscape:pageopacity="0.0"
     inkscape:pagecheckerboard="0"
     inkscape:document-units="px"
     showgrid="false"
     inkscape:zoom="0.66574074"
     inkscape:cx="467.89986"
     inkscape:cy="345.47983"
     inkscape:window-width="1874"
     inkscape:window-height="1016"
     inkscape:window-x="46"
     inkscape:window-y="907"
     inkscape:window-maximized="1"
     inkscape:current-layer="layer1"
     showguides="true"
     inkscape:guide-bbox="true"
     units="pt"
     inkscape:showpageshadow="2"
     inkscape:deskcolor="#d1d1d1" />
  <defs
     id="defs2">
    <linearGradient
       id="linear-gradient"
       x1="10.52"
       y1="52.75"
       x2="18.59"
       y2="52.75"
       gradientUnits="userSpaceOnUse">
      <stop
         offset="0"
         stop-color="#00b4d8"
         id="stop4" />
      <stop
         offset="1"
         stop-color="#0096c7"
         id="stop6" />
    </linearGradient>
    <linearGradient
       id="linear-gradient-2-9"
       x1="38.669998"
       y1="63.200001"
       x2="44.509998"
       y2="73.330002"
       xlink:href="#linear-gradient" />
    <linearGradient
       id="linear-gradient-3-1"
       x1="80.419998"
       y1="44.16"
       x2="79.809998"
       y2="44.16"
       xlink:href="#linear-gradient" />
    <linearGradient
       id="linear-gradient-4-2"
       x1="53.459999"
       y1="28.6"
       x2="52.849998"
       y2="28.6"
       xlink:href="#linear-gradient" />
    <linearGradient
       id="linear-gradient-5"
       x1="76.760002"
       y1="64"
       x2="66.25"
       y2="64"
       gradientUnits="userSpaceOnUse">
      <stop
         offset="0"
         stop-color="#ffd500"
         id="stop12" />
      <stop
         offset="1"
         stop-color="#fdc500"
         id="stop14" />
    </linearGradient>
    <linearGradient
       id="linear-gradient-6-9"
       x1="73.309998"
       y1="66"
       x2="62.790001"
       y2="66"
       xlink:href="#linear-gradient-5" />
    <linearGradient
       id="linear-gradient-7-3"
       x1="69.800003"
       y1="68"
       x2="59.279999"
       y2="68"
       xlink:href="#linear-gradient-5" />
    <linearGradient
       id="linear-gradient-8-6"
       x1="66.389999"
       y1="70"
       x2="55.880001"
       y2="70"
       xlink:href="#linear-gradient-5" />
    <linearGradient
       id="linear-gradient-9-0"
       x1="80.220001"
       y1="62"
       x2="69.709999"
       y2="62"
       xlink:href="#linear-gradient-5" />
    <linearGradient
       id="linear-gradient-10-6"
       x1="83.68"
       y1="60"
       x2="73.160004"
       y2="60"
       xlink:href="#linear-gradient-5" />
    <linearGradient
       id="linear-gradient-11-2"
       x1="87.150002"
       y1="58"
       x2="76.629997"
       y2="58"
       xlink:href="#linear-gradient-5" />
    <linearGradient
       id="linear-gradient-12-6"
       x1="22.25"
       y1="34"
       x2="32.759998"
       y2="34"
       xlink:href="#linear-gradient-5" />
    <linearGradient
       id="linear-gradient-13-1"
       x1="18.799999"
       y1="36"
       x2="29.309999"
       y2="36"
       xlink:href="#linear-gradient-5" />
    <linearGradient
       id="linear-gradient-14-8"
       x1="15.28"
       y1="38"
       x2="25.799999"
       y2="38"
       xlink:href="#linear-gradient-5" />
    <linearGradient
       id="linear-gradient-15-7"
       x1="11.88"
       y1="40"
       x2="22.4"
       y2="40"
       xlink:href="#linear-gradient-5" />
    <linearGradient
       id="linear-gradient-16-9"
       x1="25.709999"
       y1="32"
       x2="36.220001"
       y2="32"
       xlink:href="#linear-gradient-5" />
    <linearGradient
       id="linear-gradient-17-2"
       x1="29.16"
       y1="30"
       x2="39.68"
       y2="30"
       xlink:href="#linear-gradient-5" />
    <linearGradient
       id="linear-gradient-18-0"
       x1="32.630001"
       y1="28"
       x2="43.139999"
       y2="28"
       xlink:href="#linear-gradient-5" />
    <linearGradient
       id="linear-gradient-19-2"
       x1="26.68"
       y1="23.92"
       x2="70.32"
       y2="67.559998"
       xlink:href="#linear-gradient" />
    <linearGradient
       inkscape:collect="always"
       xlink:href="#linear-gradient-20"
       id="linearGradient1165"
       gradientUnits="userSpaceOnUse"
       x1="20.15"
       y1="46"
       x2="77.82"
       y2="46" />
    <linearGradient
       id="linear-gradient-20"
       x1="20.15"
       y1="46"
       x2="77.82"
       y2="46"
       gradientUnits="userSpaceOnUse">
      <stop
         offset="0"
         stop-color="#caf0f8"
         id="stop31" />
      <stop
         offset="1"
         stop-color="#90e0ef"
         id="stop33" />
    </linearGradient>
    <linearGradient
       id="linear-gradient-21-5"
       x1="25.620001"
       y1="43.029999"
       x2="71.980003"
       y2="43.029999"
       xlink:href="#linear-gradient" />
    <linearGradient
       id="linear-gradient-22-9"
       x1="6.29"
       y1="48.990002"
       x2="7.4899998"
       y2="48.990002"
       xlink:href="#linear-gradient" />
    <linearGradient
       id="linear-gradient-23-2"
       x1="90.690002"
       y1="50.650002"
       x2="89.5"
       y2="50.650002"
       xlink:href="#linear-gradient" />
    <linearGradient
       id="linear-gradient-24-2"
       x1="10.53"
       y1="50.700001"
       x2="7.4699998"
       y2="50.700001"
       xlink:href="#linear-gradient" />
    <linearGradient
       id="linear-gradient-25-8"
       x1="18.629999"
       y1="55.82"
       x2="17.969999"
       y2="55.82"
       xlink:href="#linear-gradient" />
    <linearGradient
       id="linear-gradient-26-9"
       x1="18.610001"
       y1="61.700001"
       x2="37.490002"
       y2="61.700001"
       xlink:href="#linear-gradient" />
    <linearGradient
       id="linear-gradient-27-7"
       x1="45.59"
       y1="71.389999"
       x2="44.93"
       y2="71.389999"
       xlink:href="#linear-gradient" />
    <linearGradient
       id="linear-gradient-28-3"
       x1="52.860001"
       y1="62.110001"
       x2="89.519997"
       y2="62.110001"
       xlink:href="#linear-gradient" />
    <linearGradient
       id="linear-gradient-29-6"
       x1="45.57"
       y1="72.290001"
       x2="47.209999"
       y2="72.290001"
       xlink:href="#linear-gradient" />
    <linearGradient
       id="linear-gradient-30-1"
       x1="52.880001"
       y1="73.099998"
       x2="47.200001"
       y2="73.099998"
       xlink:href="#linear-gradient" />
    <linearGradient
       id="linear-gradient-31-2"
       x1="14.59"
       y1="43.23"
       x2="16.59"
       y2="43.23"
       xlink:href="#linear-gradient-5" />
    <linearGradient
       id="linear-gradient-32-9"
       x1="17.41"
       y1="41.59"
       x2="19.41"
       y2="41.59"
       xlink:href="#linear-gradient-5" />
    <linearGradient
       id="linear-gradient-33-3"
       x1="20.23"
       y1="39.950001"
       x2="22.23"
       y2="39.950001"
       xlink:href="#linear-gradient-5" />
    <linearGradient
       id="linear-gradient-34-1"
       x1="23.049999"
       y1="38.310001"
       x2="25.049999"
       y2="38.310001"
       xlink:href="#linear-gradient-5" />
    <linearGradient
       id="linear-gradient-35-9"
       x1="71.230003"
       y1="54.689999"
       x2="73.220001"
       y2="54.689999"
       xlink:href="#linear-gradient-5" />
    <linearGradient
       id="linear-gradient-36-4"
       x1="74.040001"
       y1="53.060001"
       x2="76.040001"
       y2="53.060001"
       xlink:href="#linear-gradient-5" />
    <linearGradient
       id="linear-gradient-37-7"
       x1="76.860001"
       y1="51.419998"
       x2="78.860001"
       y2="51.419998"
       xlink:href="#linear-gradient-5" />
    <linearGradient
       id="linear-gradient-38-8"
       x1="79.68"
       y1="49.779999"
       x2="81.68"
       y2="49.779999"
       xlink:href="#linear-gradient-5" />
    <linearGradient
       id="linear-gradient-39-4"
       x1="25.610001"
       y1="44.259998"
       x2="26.23"
       y2="44.259998"
       xlink:href="#linear-gradient" />
    <linearGradient
       id="linear-gradient-40-5"
       x1="71.360001"
       y1="45.91"
       x2="71.980003"
       y2="45.91"
       xlink:href="#linear-gradient" />
    <linearGradient
       id="linear-gradient-41-0"
       x1="55.970001"
       y1="48.799999"
       x2="67.150002"
       y2="55.25"
       xlink:href="#linear-gradient" />
    <linearGradient
       id="linear-gradient-42-3"
       x1="25.530001"
       y1="44.290001"
       x2="49.509998"
       y2="58.130001"
       xlink:href="#linear-gradient" />
    <linearGradient
       id="linear-gradient-43-6"
       x1="48.799999"
       y1="57.900002"
       x2="51.759998"
       y2="57.900002"
       xlink:href="#linear-gradient" />
    <linearGradient
       id="linear-gradient-44-1"
       x1="40.400002"
       y1="42.799999"
       x2="53.099998"
       y2="42.799999"
       xlink:href="#linear-gradient-5" />
    <linearGradient
       id="linear-gradient-45-0"
       x1="37.290001"
       y1="47.57"
       x2="50.869999"
       y2="47.57"
       xlink:href="#linear-gradient-5" />
    <linearGradient
       id="linear-gradient-46-6"
       x1="59.73"
       y1="45.610001"
       x2="71.160004"
       y2="45.610001"
       xlink:href="#linear-gradient-5" />
    <linearGradient
       id="linear-gradient-47-3"
       x1="46.630001"
       y1="46.669998"
       x2="62.630001"
       y2="46.669998"
       xlink:href="#linear-gradient-5" />
    <linearGradient
       id="linear-gradient-48-2"
       x1="44.950001"
       y1="33.110001"
       x2="56.029999"
       y2="33.110001"
       xlink:href="#linear-gradient-5" />
    <linearGradient
       id="linear-gradient-49-0"
       x1="51.110001"
       y1="38.509998"
       x2="57.790001"
       y2="38.509998"
       xlink:href="#linear-gradient-5" />
    <linearGradient
       id="linear-gradient-50-6"
       x1="55.119999"
       y1="38.77"
       x2="63.07"
       y2="38.77"
       xlink:href="#linear-gradient-5" />
    <linearGradient
       id="linear-gradient-51-1"
       x1="59.43"
       y1="42.099998"
       x2="65.709999"
       y2="42.099998"
       xlink:href="#linear-gradient-5" />
    <linearGradient
       id="linear-gradient-52-5"
       x1="29.32"
       y1="42.490002"
       x2="35.93"
       y2="42.490002"
       xlink:href="#linear-gradient-5" />
    <linearGradient
       id="linear-gradient-53-5"
       x1="31.65"
       y1="42.82"
       x2="52.52"
       y2="42.82"
       xlink:href="#linear-gradient-5" />
    <linearGradient
       id="linear-gradient-54-4"
       x1="33.990002"
       y1="36.360001"
       x2="43.900002"
       y2="36.360001"
       xlink:href="#linear-gradient-5" />
    <linearGradient
       id="linear-gradient-55-7"
       x1="41.560001"
       y1="35.919998"
       x2="47.75"
       y2="35.919998"
       xlink:href="#linear-gradient-5" />
    <linearGradient
       id="linear-gradient-56-6"
       x1="28.17"
       y1="43.16"
       x2="30.950001"
       y2="43.16"
       xlink:href="#linear-gradient-5" />
    <linearGradient
       id="linear-gradient-57-5"
       x1="35.200001"
       y1="49.889999"
       x2="48.830002"
       y2="49.889999"
       xlink:href="#linear-gradient-5" />
    <linearGradient
       id="linear-gradient-58-6"
       x1="45.02"
       y1="54.27"
       x2="48.75"
       y2="54.27"
       xlink:href="#linear-gradient-5" />
    <linearGradient
       id="linear-gradient-59-9"
       x1="66.980003"
       y1="41.41"
       x2="49.759998"
       y2="41.41"
       xlink:href="#linear-gradient-20" />
    <linearGradient
       id="linear-gradient-60-3"
       x1="48.240002"
       y1="30.59"
       x2="31.02"
       y2="30.59"
       xlink:href="#linear-gradient-20" />
    <linearGradient
       id="linear-gradient-61-7"
       x1="45.52"
       y1="41.900002"
       x2="32.169998"
       y2="41.900002"
       xlink:href="#linear-gradient-20" />
    <linearGradient
       id="linear-gradient-62-4"
       x1="65.830002"
       y1="30.1"
       x2="52.48"
       y2="30.1"
       xlink:href="#linear-gradient-20" />
    <linearGradient
       id="linear-gradient-63-5"
       x1="31.49"
       y1="36"
       x2="66.519997"
       y2="36"
       xlink:href="#linear-gradient-20" />
    <linearGradient
       id="linear-gradient-64-2"
       x1="34.310001"
       y1="36"
       x2="63.689999"
       y2="36"
       xlink:href="#linear-gradient-5" />
    <linearGradient
       id="linear-gradient-2-9-7"
       x1="38.669998"
       y1="63.200001"
       x2="44.509998"
       y2="73.330002"
       xlink:href="#linear-gradient" />
    <linearGradient
       id="linear-gradient-3-1-5"
       x1="80.419998"
       y1="44.16"
       x2="79.809998"
       y2="44.16"
       xlink:href="#linear-gradient" />
    <linearGradient
       id="linear-gradient-4-2-3"
       x1="53.459999"
       y1="28.6"
       x2="52.849998"
       y2="28.6"
       xlink:href="#linear-gradient" />
    <linearGradient
       id="linear-gradient-6-9-2"
       x1="73.309998"
       y1="66"
       x2="62.790001"
       y2="66"
       xlink:href="#linear-gradient-5" />
    <linearGradient
       id="linear-gradient-7-3-9"
       x1="69.800003"
       y1="68"
       x2="59.279999"
       y2="68"
       xlink:href="#linear-gradient-5" />
    <linearGradient
       id="linear-gradient-8-6-1"
       x1="66.389999"
       y1="70"
       x2="55.880001"
       y2="70"
       xlink:href="#linear-gradient-5" />
    <linearGradient
       id="linear-gradient-9-0-2"
       x1="80.220001"
       y1="62"
       x2="69.709999"
       y2="62"
       xlink:href="#linear-gradient-5" />
    <linearGradient
       id="linear-gradient-10-6-7"
       x1="83.68"
       y1="60"
       x2="73.160004"
       y2="60"
       xlink:href="#linear-gradient-5" />
    <linearGradient
       id="linear-gradient-11-2-0"
       x1="87.150002"
       y1="58"
       x2="76.629997"
       y2="58"
       xlink:href="#linear-gradient-5" />
    <linearGradient
       id="linear-gradient-12-6-9"
       x1="22.25"
       y1="34"
       x2="32.759998"
       y2="34"
       xlink:href="#linear-gradient-5" />
    <linearGradient
       id="linear-gradient-13-1-3"
       x1="18.799999"
       y1="36"
       x2="29.309999"
       y2="36"
       xlink:href="#linear-gradient-5" />
    <linearGradient
       id="linear-gradient-14-8-6"
       x1="15.28"
       y1="38"
       x2="25.799999"
       y2="38"
       xlink:href="#linear-gradient-5" />
    <linearGradient
       id="linear-gradient-15-7-0"
       x1="11.88"
       y1="40"
       x2="22.4"
       y2="40"
       xlink:href="#linear-gradient-5" />
    <linearGradient
       id="linear-gradient-16-9-6"
       x1="25.709999"
       y1="32"
       x2="36.220001"
       y2="32"
       xlink:href="#linear-gradient-5" />
    <linearGradient
       id="linear-gradient-17-2-2"
       x1="29.16"
       y1="30"
       x2="39.68"
       y2="30"
       xlink:href="#linear-gradient-5" />
    <linearGradient
       id="linear-gradient-18-0-6"
       x1="32.630001"
       y1="28"
       x2="43.139999"
       y2="28"
       xlink:href="#linear-gradient-5" />
    <linearGradient
       id="linear-gradient-19-2-1"
       x1="26.68"
       y1="23.92"
       x2="70.32"
       y2="67.559998"
       xlink:href="#linear-gradient" />
    <linearGradient
       id="linear-gradient-21-5-9"
       x1="25.620001"
       y1="43.029999"
       x2="71.980003"
       y2="43.029999"
       xlink:href="#linear-gradient" />
    <linearGradient
       id="linear-gradient-22-9-2"
       x1="6.29"
       y1="48.990002"
       x2="7.4899998"
       y2="48.990002"
       xlink:href="#linear-gradient" />
    <linearGradient
       id="linear-gradient-23-2-0"
       x1="90.690002"
       y1="50.650002"
       x2="89.5"
       y2="50.650002"
       xlink:href="#linear-gradient" />
    <linearGradient
       id="linear-gradient-24-2-2"
       x1="10.53"
       y1="50.700001"
       x2="7.4699998"
       y2="50.700001"
       xlink:href="#linear-gradient" />
    <linearGradient
       id="linear-gradient-25-8-3"
       x1="18.629999"
       y1="55.82"
       x2="17.969999"
       y2="55.82"
       xlink:href="#linear-gradient" />
    <linearGradient
       id="linear-gradient-26-9-7"
       x1="18.610001"
       y1="61.700001"
       x2="37.490002"
       y2="61.700001"
       xlink:href="#linear-gradient" />
    <linearGradient
       id="linear-gradient-27-7-5"
       x1="45.59"
       y1="71.389999"
       x2="44.93"
       y2="71.389999"
       xlink:href="#linear-gradient" />
    <linearGradient
       id="linear-gradient-28-3-9"
       x1="52.860001"
       y1="62.110001"
       x2="89.519997"
       y2="62.110001"
       xlink:href="#linear-gradient" />
    <linearGradient
       id="linear-gradient-29-6-2"
       x1="45.57"
       y1="72.290001"
       x2="47.209999"
       y2="72.290001"
       xlink:href="#linear-gradient" />
    <linearGradient
       id="linear-gradient-30-1-2"
       x1="52.880001"
       y1="73.099998"
       x2="47.200001"
       y2="73.099998"
       xlink:href="#linear-gradient" />
    <linearGradient
       id="linear-gradient-31-2-8"
       x1="14.59"
       y1="43.23"
       x2="16.59"
       y2="43.23"
       xlink:href="#linear-gradient-5" />
    <linearGradient
       id="linear-gradient-32-9-9"
       x1="17.41"
       y1="41.59"
       x2="19.41"
       y2="41.59"
       xlink:href="#linear-gradient-5" />
    <linearGradient
       id="linear-gradient-33-3-7"
       x1="20.23"
       y1="39.950001"
       x2="22.23"
       y2="39.950001"
       xlink:href="#linear-gradient-5" />
    <linearGradient
       id="linear-gradient-34-1-3"
       x1="23.049999"
       y1="38.310001"
       x2="25.049999"
       y2="38.310001"
       xlink:href="#linear-gradient-5" />
    <linearGradient
       id="linear-gradient-35-9-6"
       x1="71.230003"
       y1="54.689999"
       x2="73.220001"
       y2="54.689999"
       xlink:href="#linear-gradient-5" />
    <linearGradient
       id="linear-gradient-36-4-1"
       x1="74.040001"
       y1="53.060001"
       x2="76.040001"
       y2="53.060001"
       xlink:href="#linear-gradient-5" />
    <linearGradient
       id="linear-gradient-37-7-2"
       x1="76.860001"
       y1="51.419998"
       x2="78.860001"
       y2="51.419998"
       xlink:href="#linear-gradient-5" />
    <linearGradient
       id="linear-gradient-38-8-9"
       x1="79.68"
       y1="49.779999"
       x2="81.68"
       y2="49.779999"
       xlink:href="#linear-gradient-5" />
    <linearGradient
       id="linear-gradient-39-4-3"
       x1="25.610001"
       y1="44.259998"
       x2="26.23"
       y2="44.259998"
       xlink:href="#linear-gradient" />
    <linearGradient
       id="linear-gradient-40-5-1"
       x1="71.360001"
       y1="45.91"
       x2="71.980003"
       y2="45.91"
       xlink:href="#linear-gradient" />
    <linearGradient
       id="linear-gradient-41-0-9"
       x1="55.970001"
       y1="48.799999"
       x2="67.150002"
       y2="55.25"
       xlink:href="#linear-gradient" />
    <linearGradient
       id="linear-gradient-42-3-4"
       x1="25.530001"
       y1="44.290001"
       x2="49.509998"
       y2="58.130001"
       xlink:href="#linear-gradient" />
    <linearGradient
       id="linear-gradient-43-6-7"
       x1="48.799999"
       y1="57.900002"
       x2="51.759998"
       y2="57.900002"
       xlink:href="#linear-gradient" />
    <linearGradient
       id="linear-gradient-44-1-8"
       x1="40.400002"
       y1="42.799999"
       x2="53.099998"
       y2="42.799999"
       xlink:href="#linear-gradient-5" />
    <linearGradient
       id="linear-gradient-45-0-4"
       x1="37.290001"
       y1="47.57"
       x2="50.869999"
       y2="47.57"
       xlink:href="#linear-gradient-5" />
    <linearGradient
       id="linear-gradient-46-6-5"
       x1="59.73"
       y1="45.610001"
       x2="71.160004"
       y2="45.610001"
       xlink:href="#linear-gradient-5" />
    <linearGradient
       id="linear-gradient-47-3-0"
       x1="46.630001"
       y1="46.669998"
       x2="62.630001"
       y2="46.669998"
       xlink:href="#linear-gradient-5" />
    <linearGradient
       id="linear-gradient-48-2-3"
       x1="44.950001"
       y1="33.110001"
       x2="56.029999"
       y2="33.110001"
       xlink:href="#linear-gradient-5" />
    <linearGradient
       id="linear-gradient-49-0-6"
       x1="51.110001"
       y1="38.509998"
       x2="57.790001"
       y2="38.509998"
       xlink:href="#linear-gradient-5" />
    <linearGradient
       id="linear-gradient-50-6-1"
       x1="55.119999"
       y1="38.77"
       x2="63.07"
       y2="38.77"
       xlink:href="#linear-gradient-5" />
    <linearGradient
       id="linear-gradient-51-1-0"
       x1="59.43"
       y1="42.099998"
       x2="65.709999"
       y2="42.099998"
       xlink:href="#linear-gradient-5" />
    <linearGradient
       id="linear-gradient-52-5-6"
       x1="29.32"
       y1="42.490002"
       x2="35.93"
       y2="42.490002"
       xlink:href="#linear-gradient-5" />
    <linearGradient
       id="linear-gradient-53-5-3"
       x1="31.65"
       y1="42.82"
       x2="52.52"
       y2="42.82"
       xlink:href="#linear-gradient-5" />
    <linearGradient
       id="linear-gradient-54-4-2"
       x1="33.990002"
       y1="36.360001"
       x2="43.900002"
       y2="36.360001"
       xlink:href="#linear-gradient-5" />
    <linearGradient
       id="linear-gradient-55-7-0"
       x1="41.560001"
       y1="35.919998"
       x2="47.75"
       y2="35.919998"
       xlink:href="#linear-gradient-5" />
    <linearGradient
       id="linear-gradient-56-6-6"
       x1="28.17"
       y1="43.16"
       x2="30.950001"
       y2="43.16"
       xlink:href="#linear-gradient-5" />
    <linearGradient
       id="linear-gradient-57-5-1"
       x1="35.200001"
       y1="49.889999"
       x2="48.830002"
       y2="49.889999"
       xlink:href="#linear-gradient-5" />
    <linearGradient
       id="linear-gradient-58-6-5"
       x1="45.02"
       y1="54.27"
       x2="48.75"
       y2="54.27"
       xlink:href="#linear-gradient-5" />
    <linearGradient
       id="linear-gradient-59-9-5"
       x1="66.980003"
       y1="41.41"
       x2="49.759998"
       y2="41.41"
       xlink:href="#linear-gradient-20" />
    <linearGradient
       id="linear-gradient-60-3-4"
       x1="48.240002"
       y1="30.59"
       x2="31.02"
       y2="30.59"
       xlink:href="#linear-gradient-20" />
    <linearGradient
       id="linear-gradient-61-7-7"
       x1="45.52"
       y1="41.900002"
       x2="32.169998"
       y2="41.900002"
       xlink:href="#linear-gradient-20" />
    <linearGradient
       id="linear-gradient-62-4-6"
       x1="65.830002"
       y1="30.1"
       x2="52.48"
       y2="30.1"
       xlink:href="#linear-gradient-20" />
    <linearGradient
       id="linear-gradient-63-5-5"
       x1="31.49"
       y1="36"
       x2="66.519997"
       y2="36"
       xlink:href="#linear-gradient-20" />
    <linearGradient
       id="linear-gradient-64-2-6"
       x1="34.310001"
       y1="36"
       x2="63.689999"
       y2="36"
       xlink:href="#linear-gradient-5" />
    <linearGradient
       inkscape:collect="always"
       xlink:href="#linear-gradient"
       id="linearGradient1050"
       gradientUnits="userSpaceOnUse"
       x1="10.52"
       y1="52.75"
       x2="18.59"
       y2="52.75" />
    <linearGradient
       inkscape:collect="always"
       xlink:href="#linear-gradient-5"
       id="linearGradient1052"
       gradientUnits="userSpaceOnUse"
       x1="76.760002"
       y1="64"
       x2="66.25"
       y2="64" />
    <linearGradient
       inkscape:collect="always"
       xlink:href="#linear-gradient"
       id="linearGradient1"
       gradientUnits="userSpaceOnUse"
       x1="10.52"
       y1="52.75"
       x2="18.59"
       y2="52.75" />
  </defs>
  <g
     inkscape:label="drawers"
     inkscape:groupmode="layer"
     id="layer1">
    <path
       style="font-weight:bold;font-size:37.3333px;line-height:1.25;-inkscape-font-specification:'sans-serif Bold';text-align:center;text-anchor:middle;fill:#025099"
       d="m 311.02608,355.8516 h 6.52604 v 20.41665 h -6.52604 z m 0,-7.94791 h 6.52604 v 5.32291 h -6.52604 z m 28.74737,8.58593 v 4.95833 q -2.09635,-0.875 -4.04687,-1.3125 -1.95052,-0.4375 -3.68229,-0.4375 -1.85937,0 -2.77083,0.47396 -0.89323,0.45573 -0.89323,1.42187 0,0.78386 0.67448,1.20313 0.69271,0.41927 2.46094,0.61979 l 1.14844,0.16406 q 5.01301,0.63802 6.74478,2.09635 1.73177,1.45833 1.73177,4.57552 0,3.26302 -2.40625,4.90364 -2.40625,1.64062 -7.18228,1.64062 -2.02344,0 -4.19271,-0.32812 -2.15104,-0.3099 -4.42968,-0.94792 v -4.95832 q 1.95052,0.94791 3.99218,1.42187 2.0599,0.47396 4.17448,0.47396 1.91406,0 2.8802,-0.52865 0.96615,-0.52864 0.96615,-1.56771 0,-0.87499 -0.67448,-1.29427 -0.65625,-0.43749 -2.64323,-0.67447 l -1.14843,-0.14584 q -4.35677,-0.54687 -6.10677,-2.02343 -1.75,-1.47656 -1.75,-4.48437 0,-3.24479 2.22396,-4.8125 2.22396,-1.56771 6.8177,-1.56771 1.80469,0 3.79167,0.27344 1.98697,0.27344 4.3203,0.85677 z m 35.21872,0 v 4.95833 q -2.09635,-0.875 -4.04687,-1.3125 -1.95052,-0.4375 -3.68229,-0.4375 -1.85937,0 -2.77083,0.47396 -0.89323,0.45573 -0.89323,1.42187 0,0.78386 0.67448,1.20313 0.69271,0.41927 2.46094,0.61979 l 1.14843,0.16406 q 5.01302,0.63802 6.74479,2.09635 1.73177,1.45833 1.73177,4.57552 0,3.26302 -2.40625,4.90364 -2.40625,1.64062 -7.18228,1.64062 -2.02344,0 -4.19271,-0.32812 -2.15104,-0.3099 -4.42968,-0.94792 v -4.95832 q 1.95052,0.94791 3.99218,1.42187 2.0599,0.47396 4.17448,0.47396 1.91406,0 2.8802,-0.52865 0.96615,-0.52864 0.96615,-1.56771 0,-0.87499 -0.67448,-1.29427 -0.65625,-0.43749 -2.64323,-0.67447 l -1.14843,-0.14584 q -4.35677,-0.54687 -6.10677,-2.02343 -1.75,-1.47656 -1.75,-4.48437 0,-3.24479 2.22396,-4.8125 2.22395,-1.56771 6.8177,-1.56771 1.80469,0 3.79166,0.27344 1.98698,0.27344 4.32031,0.85677 z m 13.39843,-6.43489 v 5.79687 h 6.72655 v 4.66666 h -6.72655 v 8.65885 q 0,1.42187 0.5651,1.93229 0.5651,0.49219 2.24219,0.49219 h 3.35416 v 4.66666 h -5.59635 q -3.86458,0 -5.48697,-1.60417 -1.60417,-1.62239 -1.60417,-5.48697 v -8.65885 h -3.24479 v -4.66666 h 3.24479 v -5.79687 z m 20.43488,9.97135 q -2.16927,0 -3.31771,1.5677 -1.1302,1.54948 -1.1302,4.48437 0,2.9349 1.1302,4.5026 1.14844,1.54948 3.31771,1.54948 2.13281,0 3.26302,-1.54948 1.1302,-1.5677 1.1302,-4.5026 0,-2.93489 -1.1302,-4.48437 -1.13021,-1.5677 -3.26302,-1.5677 z m 0,-4.66667 q 5.26822,0 8.22135,2.84375 2.97135,2.84375 2.97135,7.87499 0,5.03125 -2.97135,7.875 -2.95313,2.84374 -8.22135,2.84374 -5.28645,0 -8.27604,-2.84374 -2.97135,-2.84375 -2.97135,-7.875 0,-5.03124 2.97135,-7.87499 2.98959,-2.84375 8.27604,-2.84375 z m 31.09893,6.05208 q -0.85677,-0.40104 -1.71354,-0.58333 -0.83854,-0.20052 -1.69531,-0.20052 -2.51562,0 -3.88281,1.62239 -1.34896,1.60417 -1.34896,4.61198 v 9.40624 h -6.52603 V 355.8516 h 6.52603 v 3.35416 q 1.25781,-2.0052 2.88021,-2.91666 1.64062,-0.92969 3.91927,-0.92969 0.32812,0 0.71093,0.0365 0.38282,0.0182 1.11198,0.10938 z m 23.62498,4.59375 v 1.85937 h -15.2578 q 0.23697,2.29687 1.65885,3.44531 1.42187,1.14844 3.97395,1.14844 2.0599,0 4.21094,-0.60157 2.16927,-0.61979 4.44791,-1.85937 v 5.03125 q -2.3151,0.875 -4.6302,1.3125 -2.31511,0.45572 -4.63021,0.45572 -5.54166,0 -8.62239,-2.80728 -3.06249,-2.82552 -3.06249,-7.91146 0,-4.99478 3.00781,-7.85676 3.02603,-2.86198 8.31249,-2.86198 4.81249,0 7.6927,2.89844 2.89844,2.89843 2.89844,7.74739 z m -6.70833,-2.16927 q 0,-1.85937 -1.09375,-2.98958 -1.07552,-1.14844 -2.82552,-1.14844 -1.89583,0 -3.08073,1.07552 -1.18489,1.05729 -1.47656,3.0625 z m 25.53904,-4.99479 v -10.93749 h 6.5625 v 28.36456 h -6.5625 v -2.95312 q -1.34895,1.80468 -2.97135,2.64322 -1.62239,0.83854 -3.7552,0.83854 -3.77344,0 -6.19791,-2.98958 -2.42448,-3.00781 -2.42448,-7.72916 0,-4.72135 2.42448,-7.71093 2.42447,-3.00781 6.19791,-3.00781 2.11458,0 3.73697,0.85677 1.64063,0.83854 2.98958,2.625 z m -4.30207,13.21614 q 2.09635,0 3.1901,-1.53125 1.11197,-1.53125 1.11197,-4.44792 0,-2.91666 -1.11197,-4.44791 -1.09375,-1.53125 -3.1901,-1.53125 -2.07813,0 -3.19011,1.53125 -1.09375,1.53125 -1.09375,4.44791 0,2.91667 1.09375,4.44792 1.11198,1.53125 3.19011,1.53125 z m 50.6588,-8.22135 v 12.43228 h -6.5625 v -2.02344 -7.45572 q 0,-2.67968 -0.1276,-3.68229 -0.10937,-1.0026 -0.40104,-1.47656 -0.38281,-0.63802 -1.03906,-0.98437 -0.65625,-0.36459 -1.49479,-0.36459 -2.04167,0 -3.20833,1.58594 -1.16667,1.56771 -1.16667,4.35677 v 10.04426 h -6.52603 v -28.36456 h 6.52603 v 10.93749 q 1.47656,-1.78646 3.13542,-2.625 1.65885,-0.85677 3.66405,-0.85677 3.53646,0 5.35938,2.16927 1.84114,2.16927 1.84114,6.30729 z m 26.43228,2.16927 v 1.85937 h -15.2578 q 0.23698,2.29687 1.65885,3.44531 1.42187,1.14844 3.97395,1.14844 2.0599,0 4.21094,-0.60157 2.16927,-0.61979 4.44791,-1.85937 v 5.03125 q -2.3151,0.875 -4.6302,1.3125 -2.31511,0.45572 -4.63021,0.45572 -5.54166,0 -8.62239,-2.80728 -3.06249,-2.82552 -3.06249,-7.91146 0,-4.99478 3.00781,-7.85676 3.02604,-2.86198 8.31249,-2.86198 4.81249,0 7.6927,2.89844 2.89844,2.89843 2.89844,7.74739 z m -6.70833,-2.16927 q 0,-1.85937 -1.09375,-2.98958 -1.07552,-1.14844 -2.82552,-1.14844 -1.89583,0 -3.08073,1.07552 -1.18489,1.05729 -1.47656,3.0625 z m 26.81507,-2.42448 q -0.85677,-0.40104 -1.71354,-0.58333 -0.83854,-0.20052 -1.69531,-0.20052 -2.51562,0 -3.88281,1.62239 -1.34896,1.60417 -1.34896,4.61198 v 9.40624 H 560.1092 V 355.8516 h 6.52603 v 3.35416 q 1.25781,-2.0052 2.88021,-2.91666 1.64062,-0.92969 3.91927,-0.92969 0.32812,0 0.71093,0.0365 0.38282,0.0182 1.11198,0.10938 z m 23.62499,4.59375 v 1.85937 h -15.2578 q 0.23698,2.29687 1.65885,3.44531 1.42188,1.14844 3.97396,1.14844 2.05989,0 4.21093,-0.60157 2.16927,-0.61979 4.44792,-1.85937 v 5.03125 q -2.31511,0.875 -4.63021,1.3125 -2.3151,0.45572 -4.6302,0.45572 -5.54166,0 -8.62239,-2.80728 -3.0625,-2.82552 -3.0625,-7.91146 0,-4.99478 3.00781,-7.85676 3.02604,-2.86198 8.31249,-2.86198 4.8125,0 7.69271,2.89844 2.89843,2.89843 2.89843,7.74739 z m -6.70833,-2.16927 q 0,-1.85937 -1.09375,-2.98958 -1.07552,-1.14844 -2.82551,-1.14844 -1.89584,0 -3.08073,1.07552 -1.1849,1.05729 -1.47656,3.0625 z"
       id="text18108-0-2-2"
       aria-label="is stored here" />
    <g
       id="g3"
       transform="translate(-334.05153,-16.046573)">
      <path
         d="M 1229.6086,23.805346 H 967.7031 c -4.62186,0 -7.7031,3.698983 -7.7031,9.247469 V 421.44744 c 0,5.54849 3.08124,9.2475 7.7031,9.2475 h 261.9055 c 4.6219,0 7.7032,-3.69901 7.7032,-9.2475 V 33.052815 c 0,-5.548486 -3.0813,-9.247469 -7.7032,-9.247469 z m -161.7651,18.494961 h 61.6247 v 18.494994 h -61.6247 z m -15.4063,0 v 27.742486 c 0,5.548486 3.0813,9.247492 7.7031,9.247492 h 77.031 c 4.6219,0 7.7032,-3.699006 7.7032,-9.247492 V 42.300307 h 77.031 V 153.27023 H 975.40622 V 42.300307 Z m 15.4063,258.929723 h 61.6247 v 18.49501 h -61.6247 z M 975.40622,282.73507 V 171.76522 h 77.03098 v 27.74246 c 0,5.54849 3.0813,9.24749 7.7031,9.24749 h 77.031 c 4.6219,0 7.7032,-3.699 7.7032,-9.24749 v -27.74246 h 77.031 v 110.96985 z m 92.43728,-110.96985 h 61.6247 v 18.49496 h -61.6247 z M 975.40622,412.19995 V 301.23001 h 77.03098 v 27.74252 c 0,5.54847 3.0813,9.2475 7.7031,9.2475 h 77.031 c 4.6219,0 7.7032,-3.69903 7.7032,-9.2475 v -27.74252 h 77.031 v 110.96994 z"
         id="path1-9"
         style="stroke-width:8.44005" />
      <path
         style="font-size:32px;line-height:1.25;-inkscape-font-specification:'sans-serif Bold'"
         d="m 1032.8747,106.62787 q -2.4375,0 -3.6719,2.40625 -1.2187,2.39062 -1.2187,7.20312 0,4.79688 1.2187,7.20313 1.2344,2.39062 3.6719,2.39062 2.4531,0 3.6719,-2.39062 1.2343,-2.40625 1.2343,-7.20313 0,-4.8125 -1.2343,-7.20312 -1.2188,-2.40625 -3.6719,-2.40625 z m 0,-2.5 q 3.9219,0 5.9844,3.10937 2.0781,3.09375 2.0781,9 0,5.89063 -2.0781,9 -2.0625,3.09375 -5.9844,3.09375 -3.9219,0 -6,-3.09375 -2.0625,-3.10937 -2.0625,-9 0,-5.90625 2.0625,-9 2.0781,-3.10937 6,-3.10937 z m 27.75,6.25 -6.3281,8.51562 6.6562,8.98438 h -3.3906 l -5.0938,-6.875 -5.0937,6.875 h -3.3906 l 6.7968,-9.15625 -6.2187,-8.34375 h 3.3906 l 4.6406,6.23437 4.6407,-6.23437 z m 11.9375,4.57812 q -2.125,0 -3.375,1.45313 -1.2344,1.45312 -1.2344,3.98437 0,2.51563 1.2344,3.98438 1.25,1.45312 3.375,1.45312 2.125,0 3.3594,-1.45312 1.25,-1.46875 1.25,-3.98438 0,-2.53125 -1.25,-3.98437 -1.2344,-1.45313 -3.3594,-1.45313 z m 6.2656,-9.89062 v 2.875 q -1.1875,-0.5625 -2.4062,-0.85938 -1.2032,-0.29687 -2.3907,-0.29687 -3.125,0 -4.7812,2.10937 -1.6406,2.10938 -1.875,6.375 0.9219,-1.35937 2.3125,-2.07812 1.3906,-0.73438 3.0625,-0.73438 3.5156,0 5.5469,2.14063 2.0468,2.125 2.0468,5.79687 0,3.59375 -2.125,5.76563 -2.125,2.17187 -5.6562,2.17187 -4.0469,0 -6.1875,-3.09375 -2.1406,-3.10937 -2.1406,-9 0,-5.53125 2.625,-8.8125 2.625,-3.29687 7.0468,-3.29687 1.1875,0 2.3907,0.23437 1.2187,0.23438 2.5312,0.70313 z m 18.0625,7.96875 v -9.46875 h 2.875 v 24.3125 h -2.875 v -2.625 q -0.9062,1.5625 -2.2969,2.32812 -1.375,0.75 -3.3125,0.75 -3.1718,0 -5.1718,-2.53125 -1.9844,-2.53125 -1.9844,-6.65625 0,-4.125 1.9844,-6.65625 2,-2.53125 5.1718,-2.53125 1.9375,0 3.3125,0.76563 1.3907,0.75 2.2969,2.3125 z m -9.7969,6.10937 q 0,3.17188 1.2969,4.98438 1.3125,1.79687 3.5938,1.79687 2.2812,0 3.5937,-1.79687 1.3125,-1.8125 1.3125,-4.98438 0,-3.17187 -1.3125,-4.96875 -1.3125,-1.8125 -3.5937,-1.8125 -2.2813,0 -3.5938,1.8125 -1.2969,1.79688 -1.2969,4.96875 z m 27.4532,-15.57812 v 2.39062 h -2.75 q -1.5469,0 -2.1563,0.625 -0.5937,0.625 -0.5937,2.25 v 1.54688 h 4.7343 v 2.23437 h -4.7343 v 15.26563 h -2.8907 v -15.26563 h -2.75 v -2.23437 h 2.75 v -1.21875 q 0,-2.92188 1.3594,-4.25 1.3594,-1.34375 4.3125,-1.34375 z m 17.375,14.84375 v 1.40625 h -13.2188 q 0.1875,2.96875 1.7813,4.53125 1.6093,1.54687 4.4687,1.54687 1.6563,0 3.2031,-0.40625 1.5625,-0.40625 3.0938,-1.21875 v 2.71875 q -1.5469,0.65625 -3.1719,1 -1.625,0.34375 -3.2969,0.34375 -4.1875,0 -6.6406,-2.4375 -2.4375,-2.4375 -2.4375,-6.59375 0,-4.29687 2.3125,-6.8125 2.3281,-2.53125 6.2656,-2.53125 3.5313,0 5.5782,2.28125 2.0625,2.26563 2.0625,6.17188 z m -2.875,-0.84375 q -0.031,-2.35938 -1.3282,-3.76563 -1.2812,-1.40625 -3.4062,-1.40625 -2.4063,0 -3.8594,1.35938 -1.4375,1.35937 -1.6562,3.82812 z m 19.1093,-4.53125 v -9.46875 h 2.875 v 24.3125 h -2.875 v -2.625 q -0.9062,1.5625 -2.2968,2.32812 -1.375,0.75 -3.3125,0.75 -3.1719,0 -5.1719,-2.53125 -1.9844,-2.53125 -1.9844,-6.65625 0,-4.125 1.9844,-6.65625 2,-2.53125 5.1719,-2.53125 1.9375,0 3.3125,0.76563 1.3906,0.75 2.2968,2.3125 z m -9.7968,6.10937 q 0,3.17188 1.2968,4.98438 1.3125,1.79687 3.5938,1.79687 2.2812,0 3.5937,-1.79687 1.3125,-1.8125 1.3125,-4.98438 0,-3.17187 -1.3125,-4.96875 -1.3125,-1.8125 -3.5937,-1.8125 -2.2813,0 -3.5938,1.8125 -1.2968,1.79688 -1.2968,4.96875 z m 27.6718,-11.84375 -7.9687,12.45313 h 7.9687 z m -0.8281,-2.75 h 3.9688 v 15.20313 h 3.3281 v 2.625 h -3.3281 v 5.5 h -3.1407 v -5.5 h -10.5312 v -3.04688 z"
         id="text18108-06"
         aria-label="0x6dfed4" />
      <path
         style="font-size:32px;line-height:1.25;-inkscape-font-specification:'sans-serif Bold'"
         d="m 1030.9684,231.40475 q -2.4375,0 -3.6719,2.40625 -1.2187,2.39063 -1.2187,7.20313 0,4.79687 1.2187,7.20312 1.2344,2.39063 3.6719,2.39063 2.4531,0 3.6719,-2.39063 1.2343,-2.40625 1.2343,-7.20312 0,-4.8125 -1.2343,-7.20313 -1.2188,-2.40625 -3.6719,-2.40625 z m 0,-2.5 q 3.9219,0 5.9844,3.10938 2.0781,3.09375 2.0781,9 0,5.89062 -2.0781,9 -2.0625,3.09375 -5.9844,3.09375 -3.9219,0 -6,-3.09375 -2.0625,-3.10938 -2.0625,-9 0,-5.90625 2.0625,-9 2.0781,-3.10938 6,-3.10938 z m 27.75,6.25 -6.3281,8.51563 6.6562,8.98437 h -3.3906 l -5.0938,-6.875 -5.0937,6.875 h -3.3906 l 6.7968,-9.15625 -6.2187,-8.34375 h 3.3906 l 4.6406,6.23438 4.6407,-6.23438 z m 4.2812,-6.8125 h 2.8907 v 14.35938 l 8.5781,-7.54688 h 3.6719 l -9.2813,8.1875 9.6719,9.3125 h -3.75 l -8.8906,-8.54687 v 8.54687 h -2.8907 z m 18.6407,6.8125 h 2.875 v 17.5 h -2.875 z m 0,-6.8125 h 2.875 v 3.64063 h -2.875 z m 12.0156,21.65625 h 11.0156 v 2.65625 h -14.8125 v -2.65625 q 1.7969,-1.85937 4.8906,-4.98437 3.1094,-3.14063 3.9063,-4.04688 1.5156,-1.70312 2.1094,-2.875 0.6093,-1.1875 0.6093,-2.32812 0,-1.85938 -1.3125,-3.03125 -1.2968,-1.17188 -3.3906,-1.17188 -1.4844,0 -3.1406,0.51563 -1.6406,0.51562 -3.5156,1.5625 v -3.1875 q 1.9062,-0.76563 3.5625,-1.15625 1.6562,-0.39063 3.0312,-0.39063 3.625,0 5.7813,1.8125 2.1562,1.8125 2.1562,4.84375 0,1.4375 -0.5469,2.73438 -0.5312,1.28125 -1.9531,3.03125 -0.3906,0.45312 -2.4844,2.625 -2.0937,2.15625 -5.9062,6.04687 z m 15.9844,-14.84375 h 13.6562 v 2.625 l -10.8125,12.57813 h 10.8125 v 2.29687 h -14.0469 v -2.625 l 10.8125,-12.57812 h -10.4218 z m 31.6718,3.35938 q 1.0782,-1.9375 2.5782,-2.85938 1.5,-0.92187 3.5312,-0.92187 2.7344,0 4.2188,1.92187 1.4843,1.90625 1.4843,5.4375 v 10.5625 h -2.8906 V 242.186 q 0,-2.51562 -0.8906,-3.73437 -0.8906,-1.21875 -2.7188,-1.21875 -2.2343,0 -3.5312,1.48437 -1.2969,1.48438 -1.2969,4.04688 v 9.89062 h -2.8906 V 242.186 q 0,-2.53125 -0.8906,-3.73437 -0.8907,-1.21875 -2.75,-1.21875 -2.2032,0 -3.5,1.5 -1.2969,1.48437 -1.2969,4.03125 v 9.89062 h -2.8906 v -17.5 h 2.8906 v 2.71875 q 0.9844,-1.60937 2.3594,-2.375 1.375,-0.76562 3.2656,-0.76562 1.9062,0 3.2344,0.96875 1.3437,0.96875 1.9843,2.8125 z m 30.1094,5.40625 q 0,-3.17188 -1.3125,-4.96875 -1.2969,-1.8125 -3.5781,-1.8125 -2.2813,0 -3.5938,1.8125 -1.2968,1.79687 -1.2968,4.96875 0,3.17187 1.2968,4.98437 1.3125,1.79688 3.5938,1.79688 2.2812,0 3.5781,-1.79688 1.3125,-1.8125 1.3125,-4.98437 z m -9.7812,-6.10938 q 0.9062,-1.5625 2.2812,-2.3125 1.3906,-0.76562 3.3125,-0.76562 3.1875,0 5.1719,2.53125 2,2.53125 2,6.65625 0,4.125 -2,6.65625 -1.9844,2.53125 -5.1719,2.53125 -1.9219,0 -3.3125,-0.75 -1.375,-0.76563 -2.2812,-2.32813 v 2.625 h -2.8907 v -24.3125 h 2.8907 z"
         id="text18108-0-5"
         aria-label="0xki2zmb" />
      <path
         style="font-weight:bold;font-size:32px;line-height:1.25;-inkscape-font-specification:'sans-serif Bold';text-align:end;text-anchor:end;fill:#025099"
         d="m 997.23401,360.47852 v 4.5625 q -1.14063,-0.78125 -2.29688,-1.15625 -1.14062,-0.375 -2.375,-0.375 -2.34375,0 -3.65625,1.375 -1.29687,1.35937 -1.29687,3.8125 0,2.45312 1.29687,3.82812 1.3125,1.35938 3.65625,1.35938 1.3125,0 2.48438,-0.39063 1.1875,-0.39062 2.1875,-1.15625 v 4.57813 q -1.3125,0.48437 -2.67188,0.71875 -1.34375,0.25 -2.70312,0.25 -4.73438,0 -7.40625,-2.42188 -2.67188,-2.4375 -2.67188,-6.76562 0,-4.32813 2.67188,-6.75 2.67187,-2.4375 7.40625,-2.4375 1.375,0 2.70312,0.25 1.34375,0.23437 2.67188,0.71875 z m 4.82809,-7.35938 h 5.5938 v 24.3125 h -5.5938 z m 18.8125,16.4375 q -1.75,0 -2.6406,0.59375 -0.875,0.59375 -0.875,1.75 0,1.0625 0.7031,1.67188 0.7188,0.59375 1.9844,0.59375 1.5781,0 2.6563,-1.125 1.0781,-1.14063 1.0781,-2.84375 v -0.64063 z m 8.5469,-2.10937 v 9.98437 h -5.6406 v -2.59375 q -1.125,1.59375 -2.5313,2.32813 -1.4062,0.71875 -3.4218,0.71875 -2.7188,0 -4.4219,-1.57813 -1.6875,-1.59375 -1.6875,-4.125 0,-3.07812 2.1094,-4.51562 2.125,-1.4375 6.6562,-1.4375 h 3.2969 v -0.4375 q 0,-1.32813 -1.0469,-1.9375 -1.0469,-0.625 -3.2656,-0.625 -1.7969,0 -3.3438,0.35937 -1.5468,0.35938 -2.875,1.07813 v -4.26563 q 1.7969,-0.4375 3.6094,-0.65625 1.8125,-0.23437 3.625,-0.23437 4.7344,0 6.8281,1.875 2.1094,1.85937 2.1094,6.0625 z m 18.875,-6.96875 v 4.25 q -1.7969,-0.75 -3.4687,-1.125 -1.6719,-0.375 -3.1563,-0.375 -1.5937,0 -2.375,0.40625 -0.7656,0.39062 -0.7656,1.21875 0,0.67187 0.5781,1.03125 0.5938,0.35937 2.1094,0.53125 l 0.9844,0.14062 q 4.2968,0.54688 5.7812,1.79688 1.4844,1.25 1.4844,3.92187 0,2.79688 -2.0625,4.20313 -2.0625,1.40625 -6.1563,1.40625 -1.7343,0 -3.5937,-0.28125 -1.8438,-0.26563 -3.7969,-0.8125 v -4.25 q 1.6719,0.8125 3.4219,1.21875 1.7656,0.40625 3.5781,0.40625 1.6406,0 2.4688,-0.45313 0.8281,-0.45312 0.8281,-1.34375 0,-0.75 -0.5781,-1.10937 -0.5625,-0.375 -2.2657,-0.57813 l -0.9843,-0.125 q -3.7344,-0.46875 -5.2344,-1.73437 -1.5,-1.26563 -1.5,-3.84375 0,-2.78125 1.9062,-4.125 1.9063,-1.34375 5.8438,-1.34375 1.5469,0 3.25,0.23437 1.7031,0.23438 3.7031,0.73438 z m 19.0469,0 v 4.25 q -1.7969,-0.75 -3.4688,-1.125 -1.6718,-0.375 -3.1562,-0.375 -1.5938,0 -2.375,0.40625 -0.7656,0.39062 -0.7656,1.21875 0,0.67187 0.5781,1.03125 0.5937,0.35937 2.1094,0.53125 l 0.9843,0.14062 q 4.2969,0.54688 5.7813,1.79688 1.4844,1.25 1.4844,3.92187 0,2.79688 -2.0625,4.20313 -2.0625,1.40625 -6.1563,1.40625 -1.7344,0 -3.5937,-0.28125 -1.8438,-0.26563 -3.7969,-0.8125 v -4.25 q 1.6719,0.8125 3.4219,1.21875 1.7656,0.40625 3.5781,0.40625 1.6406,0 2.4687,-0.45313 0.8282,-0.45312 0.8282,-1.34375 0,-0.75 -0.5782,-1.10937 -0.5625,-0.375 -2.2656,-0.57813 l -0.9844,-0.125 q -3.7343,-0.46875 -5.2343,-1.73437 -1.5,-1.26563 -1.5,-3.84375 0,-2.78125 1.9062,-4.125 1.9063,-1.34375 5.8438,-1.34375 1.5468,0 3.25,0.23437 1.7031,0.23438 3.7031,0.73438 z m 18.6875,21.53125 v 2.96875 h -16 v -2.96875 z m 18.9062,-19.17188 q 1.0625,-1.625 2.5157,-2.46875 1.4687,-0.85937 3.2187,-0.85937 3.0156,0 4.5938,1.85937 1.5781,1.85938 1.5781,5.40625 v 10.65625 h -5.625 v -9.125 q 0.016,-0.20312 0.016,-0.42187 0.016,-0.21875 0.016,-0.625 0,-1.85938 -0.5468,-2.6875 -0.5469,-0.84375 -1.7657,-0.84375 -1.5937,0 -2.4687,1.3125 -0.8594,1.3125 -0.8906,3.79687 v 8.59375 h -5.625 v -9.125 q 0,-2.90625 -0.5,-3.73437 -0.5,-0.84375 -1.7813,-0.84375 -1.6094,0 -2.4844,1.32812 -0.875,1.3125 -0.875,3.76563 v 8.60937 h -5.625 v -17.5 h 5.625 v 2.5625 q 1.0313,-1.48437 2.3594,-2.23437 1.3438,-0.75 2.9531,-0.75 1.8125,0 3.2032,0.875 1.3906,0.875 2.1093,2.45312 z m 24.9688,6.71875 q -1.75,0 -2.6406,0.59375 -0.875,0.59375 -0.875,1.75 0,1.0625 0.7031,1.67188 0.7187,0.59375 1.9844,0.59375 1.5781,0 2.6562,-1.125 1.0781,-1.14063 1.0781,-2.84375 v -0.64063 z m 8.5469,-2.10937 v 9.98437 h -5.6407 v -2.59375 q -1.125,1.59375 -2.5312,2.32813 -1.4063,0.71875 -3.4219,0.71875 -2.7187,0 -4.4219,-1.57813 -1.6875,-1.59375 -1.6875,-4.125 0,-3.07812 2.1094,-4.51562 2.125,-1.4375 6.6563,-1.4375 h 3.2968 v -0.4375 q 0,-1.32813 -1.0468,-1.9375 -1.0469,-0.625 -3.2657,-0.625 -1.7968,0 -3.3437,0.35937 -1.5469,0.35938 -2.875,1.07813 v -4.26563 q 1.7969,-0.4375 3.6094,-0.65625 1.8125,-0.23437 3.625,-0.23437 4.7343,0 6.8281,1.875 2.1094,1.85937 2.1094,6.0625 z m 18.875,-6.96875 v 4.25 q -1.7969,-0.75 -3.4688,-1.125 -1.6719,-0.375 -3.1562,-0.375 -1.5938,0 -2.375,0.40625 -0.7657,0.39062 -0.7657,1.21875 0,0.67187 0.5782,1.03125 0.5937,0.35937 2.1093,0.53125 l 0.9844,0.14062 q 4.2969,0.54688 5.7813,1.79688 1.4843,1.25 1.4843,3.92187 0,2.79688 -2.0625,4.20313 -2.0625,1.40625 -6.1562,1.40625 -1.7344,0 -3.5938,-0.28125 -1.8437,-0.26563 -3.7968,-0.8125 v -4.25 q 1.6718,0.8125 3.4218,1.21875 1.7657,0.40625 3.5782,0.40625 1.6406,0 2.4687,-0.45313 0.8281,-0.45312 0.8281,-1.34375 0,-0.75 -0.5781,-1.10937 -0.5625,-0.375 -2.2656,-0.57813 l -0.9844,-0.125 q -3.7344,-0.46875 -5.2344,-1.73437 -1.5,-1.26563 -1.5,-3.84375 0,-2.78125 1.9063,-4.125 1.9062,-1.34375 5.8437,-1.34375 1.5469,0 3.25,0.23437 1.7032,0.23438 3.7032,0.73438 z m 19.5156,0 v 4.5625 q -1.1406,-0.78125 -2.2969,-1.15625 -1.1406,-0.375 -2.375,-0.375 -2.3437,0 -3.6562,1.375 -1.2969,1.35937 -1.2969,3.8125 0,2.45312 1.2969,3.82812 1.3125,1.35938 3.6562,1.35938 1.3125,0 2.4844,-0.39063 1.1875,-0.39062 2.1875,-1.15625 v 4.57813 q -1.3125,0.48437 -2.6719,0.71875 -1.3437,0.25 -2.7031,0.25 -4.7344,0 -7.4063,-2.42188 -2.6718,-2.4375 -2.6718,-6.76562 0,-4.32813 2.6718,-6.75 2.6719,-2.4375 7.4063,-2.4375 1.375,0 2.7031,0.25 1.3438,0.23437 2.6719,0.71875 z m 13.1562,3.03125 q -1.8593,0 -2.8437,1.34375 -0.9688,1.32812 -0.9688,3.84375 0,2.51562 0.9688,3.85937 0.9844,1.32813 2.8437,1.32813 1.8282,0 2.7969,-1.32813 0.9688,-1.34375 0.9688,-3.85937 0,-2.51563 -0.9688,-3.84375 -0.9687,-1.34375 -2.7969,-1.34375 z m 0,-4 q 4.5157,0 7.0469,2.4375 2.5469,2.4375 2.5469,6.75 0,4.3125 -2.5469,6.75 -2.5312,2.4375 -7.0469,2.4375 -4.5312,0 -7.0937,-2.4375 -2.5469,-2.4375 -2.5469,-6.75 0,-4.3125 2.5469,-6.75 2.5625,-2.4375 7.0937,-2.4375 z m 19.7657,-4.54688 v 4.96875 h 5.7656 v 4 h -5.7656 v 7.42188 q 0,1.21875 0.4843,1.65625 0.4844,0.42187 1.9219,0.42187 h 2.875 v 4 h -4.7969 q -3.3125,0 -4.7031,-1.375 -1.375,-1.39062 -1.375,-4.70312 v -7.42188 h -2.7812 v -4 h 2.7812 v -4.96875 z"
         id="text18108-0-2-2-9"
         aria-label="class_mascot" />
    </g>
    <g
       id="g2"
       transform="translate(-366.12802,-4.7558723)">
      <path
         d="m 642.40329,11.422539 h -261.9055 c -4.62186,0 -7.7031,3.69898 -7.7031,9.24747 V 409.06463 c 0,5.54849 3.08124,9.2475 7.7031,9.2475 h 261.9055 c 4.6219,0 7.7032,-3.69901 7.7032,-9.2475 V 20.670009 c 0,-5.54849 -3.0813,-9.24747 -7.7032,-9.24747 z m -161.7651,18.494959 h 61.6247 v 18.494991 h -61.6247 z m -15.4063,0 v 27.74248 c 0,5.54849 3.0813,9.2475 7.7031,9.2475 h 77.031 c 4.6219,0 7.7032,-3.69901 7.7032,-9.2475 v -27.74248 h 77.031 V 140.88742 H 388.20091 V 29.917498 Z m 15.4063,258.929722 h 61.6247 v 18.49501 h -61.6247 z M 388.20091,270.35226 V 159.38241 h 77.03098 v 27.74246 c 0,5.54849 3.0813,9.24749 7.7031,9.24749 h 77.031 c 4.6219,0 7.7032,-3.699 7.7032,-9.24749 v -27.74246 h 77.031 v 110.96985 z m 92.43728,-110.96985 h 61.6247 v 18.49496 h -61.6247 z M 388.20091,399.81714 V 288.8472 h 77.03098 v 27.74252 c 0,5.54847 3.0813,9.2475 7.7031,9.2475 h 77.031 c 4.6219,0 7.7032,-3.69903 7.7032,-9.2475 V 288.8472 h 77.031 v 110.96994 z"
         id="path1-9-7"
         style="stroke-width:8.44005" />
      <path
         style="font-size:32px;line-height:1.25;-inkscape-font-specification:'sans-serif Bold'"
         d="m 445.6694,94.245064 q -2.4375,0 -3.67187,2.40625 -1.21875,2.390625 -1.21875,7.203126 0,4.79687 1.21875,7.20312 1.23437,2.39063 3.67187,2.39063 2.45313,0 3.67188,-2.39063 1.23437,-2.40625 1.23437,-7.20312 0,-4.812501 -1.23437,-7.203126 -1.21875,-2.40625 -3.67188,-2.40625 z m 0,-2.5 q 3.92188,0 5.98438,3.109375 2.07812,3.09375 2.07812,9.000001 0,5.89062 -2.07812,9 -2.0625,3.09375 -5.98438,3.09375 -3.92187,0 -6,-3.09375 -2.0625,-3.10938 -2.0625,-9 0,-5.906251 2.0625,-9.000001 2.07813,-3.109375 6,-3.109375 z m 27.75,6.25 -6.32812,8.515626 6.65625,8.98437 h -3.39063 l -5.09375,-6.875 -5.09375,6.875 h -3.39062 l 6.79687,-9.15625 -6.21875,-8.343746 h 3.39063 l 4.64062,6.234376 4.64063,-6.234376 z m 11.9375,4.578126 q -2.125,0 -3.375,1.45312 -1.23437,1.45313 -1.23437,3.98438 0,2.51562 1.23437,3.98437 1.25,1.45313 3.375,1.45313 2.125,0 3.35938,-1.45313 1.25,-1.46875 1.25,-3.98437 0,-2.53125 -1.25,-3.98438 -1.23438,-1.45312 -3.35938,-1.45312 z m 6.26563,-9.890626 v 2.875 q -1.1875,-0.5625 -2.40625,-0.859375 -1.20313,-0.296875 -2.39063,-0.296875 -3.125,0 -4.78125,2.109375 -1.64062,2.109375 -1.875,6.375001 0.92188,-1.35938 2.3125,-2.07813 1.39063,-0.73437 3.0625,-0.73437 3.51563,0 5.54688,2.14062 2.04687,2.125 2.04687,5.79688 0,3.59375 -2.125,5.76562 -2.125,2.17188 -5.65625,2.17188 -4.04687,0 -6.1875,-3.09375 -2.14062,-3.10938 -2.14062,-9 0,-5.531251 2.625,-8.812501 2.625,-3.296875 7.04687,-3.296875 1.1875,0 2.39063,0.234375 1.21875,0.234375 2.53125,0.703125 z m 18.0625,7.968746 v -9.468746 h 2.875 v 24.312496 h -2.875 v -2.625 q -0.90625,1.5625 -2.29688,2.32813 -1.375,0.75 -3.3125,0.75 -3.17187,0 -5.17187,-2.53125 -1.98438,-2.53125 -1.98438,-6.65625 0,-4.125 1.98438,-6.65625 2,-2.531251 5.17187,-2.531251 1.9375,0 3.3125,0.765625 1.39063,0.75 2.29688,2.312496 z m -9.79688,6.10938 q 0,3.17187 1.29688,4.98437 1.3125,1.79688 3.59375,1.79688 2.28125,0 3.59375,-1.79688 1.3125,-1.8125 1.3125,-4.98437 0,-3.17188 -1.3125,-4.96875 -1.3125,-1.812501 -3.59375,-1.812501 -2.28125,0 -3.59375,1.812501 -1.29688,1.79687 -1.29688,4.96875 z m 27.45313,-15.578126 v 2.390625 h -2.75 q -1.54688,0 -2.15625,0.625 -0.59375,0.625 -0.59375,2.25 v 1.546875 h 4.73437 v 2.234376 h -4.73437 v 15.26562 h -2.89063 v -15.26562 h -2.75 v -2.234376 h 2.75 v -1.21875 q 0,-2.921875 1.35938,-4.25 1.35937,-1.34375 4.3125,-1.34375 z m 17.375,14.843746 v 1.40625 h -13.21875 q 0.1875,2.96875 1.78125,4.53125 1.60937,1.54688 4.46875,1.54688 1.65625,0 3.20312,-0.40625 1.5625,-0.40625 3.09375,-1.21875 v 2.71875 q -1.54687,0.65625 -3.17187,1 -1.625,0.34375 -3.29688,0.34375 -4.1875,0 -6.64062,-2.4375 -2.4375,-2.4375 -2.4375,-6.59375 0,-4.29688 2.3125,-6.8125 2.32812,-2.531251 6.26562,-2.531251 3.53125,0 5.57813,2.28125 2.0625,2.265621 2.0625,6.171871 z m -2.875,-0.84375 q -0.0312,-2.35937 -1.32813,-3.76562 -1.28125,-1.40625 -3.40625,-1.40625 -2.40625,0 -3.85937,1.35937 -1.4375,1.35938 -1.65625,3.82813 z m 19.10937,-4.53125 v -9.468746 h 2.875 v 24.312496 h -2.875 v -2.625 q -0.90625,1.5625 -2.29687,2.32813 -1.375,0.75 -3.3125,0.75 -3.17188,0 -5.17188,-2.53125 -1.98437,-2.53125 -1.98437,-6.65625 0,-4.125 1.98437,-6.65625 2,-2.531251 5.17188,-2.531251 1.9375,0 3.3125,0.765625 1.39062,0.75 2.29687,2.312496 z m -9.79687,6.10938 q 0,3.17187 1.29687,4.98437 1.3125,1.79688 3.59375,1.79688 2.28125,0 3.59375,-1.79688 1.3125,-1.8125 1.3125,-4.98437 0,-3.17188 -1.3125,-4.96875 -1.3125,-1.812501 -3.59375,-1.812501 -2.28125,0 -3.59375,1.812501 -1.29687,1.79687 -1.29687,4.96875 z m 27.67187,-11.843751 -7.96875,12.453121 h 7.96875 z m -0.82812,-2.75 h 3.96875 v 15.203121 h 3.32812 v 2.625 h -3.32812 v 5.5 h -3.14063 v -5.5 H 568.2944 v -3.04687 z"
         id="text18108-06-7"
         aria-label="0x6dfed4" />
      <path
         style="font-size:32px;line-height:1.25;-inkscape-font-specification:'sans-serif Bold'"
         d="m 443.76309,219.02194 q -2.4375,0 -3.67187,2.40625 -1.21875,2.39063 -1.21875,7.20313 0,4.79687 1.21875,7.20312 1.23437,2.39063 3.67187,2.39063 2.45313,0 3.67188,-2.39063 1.23437,-2.40625 1.23437,-7.20312 0,-4.8125 -1.23437,-7.20313 -1.21875,-2.40625 -3.67188,-2.40625 z m 0,-2.5 q 3.92188,0 5.98438,3.10938 2.07812,3.09375 2.07812,9 0,5.89062 -2.07812,9 -2.0625,3.09375 -5.98438,3.09375 -3.92187,0 -6,-3.09375 -2.0625,-3.10938 -2.0625,-9 0,-5.90625 2.0625,-9 2.07813,-3.10938 6,-3.10938 z m 27.75,6.25 -6.32812,8.51563 6.65625,8.98437 h -3.39063 l -5.09375,-6.875 -5.09375,6.875 h -3.39062 l 6.79687,-9.15625 -6.21875,-8.34375 h 3.39063 l 4.64062,6.23438 4.64063,-6.23438 z m 4.28125,-6.8125 h 2.89063 v 14.35938 l 8.57812,-7.54688 h 3.67188 l -9.28125,8.1875 9.67187,9.3125 h -3.75 l -8.89062,-8.54687 v 8.54687 h -2.89063 z m 18.64063,6.8125 h 2.875 v 17.5 h -2.875 z m 0,-6.8125 h 2.875 v 3.64063 h -2.875 z m 12.01562,21.65625 h 11.01563 v 2.65625 h -14.8125 v -2.65625 q 1.79687,-1.85937 4.89062,-4.98437 3.10938,-3.14063 3.90625,-4.04688 1.51563,-1.70312 2.10938,-2.875 0.60937,-1.1875 0.60937,-2.32812 0,-1.85938 -1.3125,-3.03125 -1.29687,-1.17188 -3.39062,-1.17188 -1.48438,0 -3.14063,0.51563 -1.64062,0.51562 -3.51562,1.5625 v -3.1875 q 1.90625,-0.76563 3.5625,-1.15625 1.65625,-0.39063 3.03125,-0.39063 3.625,0 5.78125,1.8125 2.15625,1.8125 2.15625,4.84375 0,1.4375 -0.54688,2.73438 -0.53125,1.28125 -1.95312,3.03125 -0.39063,0.45312 -2.48438,2.625 -2.09375,2.15625 -5.90625,6.04687 z m 15.98438,-14.84375 h 13.65625 v 2.625 l -10.8125,12.57813 h 10.8125 v 2.29687 h -14.04688 v -2.625 l 10.8125,-12.57812 h -10.42187 z m 31.67187,3.35938 q 1.07813,-1.9375 2.57813,-2.85938 1.5,-0.92187 3.53125,-0.92187 2.73437,0 4.21875,1.92187 1.48437,1.90625 1.48437,5.4375 v 10.5625 h -2.89062 v -10.46875 q 0,-2.51562 -0.89063,-3.73437 -0.89062,-1.21875 -2.71875,-1.21875 -2.23437,0 -3.53125,1.48437 -1.29687,1.48438 -1.29687,4.04688 v 9.89062 h -2.89063 v -10.46875 q 0,-2.53125 -0.89062,-3.73437 -0.89063,-1.21875 -2.75,-1.21875 -2.20313,0 -3.5,1.5 -1.29688,1.48437 -1.29688,4.03125 v 9.89062 h -2.89062 v -17.5 h 2.89062 v 2.71875 q 0.98438,-1.60937 2.35938,-2.375 1.375,-0.76562 3.26562,-0.76562 1.90625,0 3.23438,0.96875 1.34375,0.96875 1.98437,2.8125 z m 30.10938,5.40625 q 0,-3.17188 -1.3125,-4.96875 -1.29688,-1.8125 -3.57813,-1.8125 -2.28125,0 -3.59375,1.8125 -1.29687,1.79687 -1.29687,4.96875 0,3.17187 1.29687,4.98437 1.3125,1.79688 3.59375,1.79688 2.28125,0 3.57813,-1.79688 1.3125,-1.8125 1.3125,-4.98437 z m -9.78125,-6.10938 q 0.90625,-1.5625 2.28125,-2.3125 1.39062,-0.76562 3.3125,-0.76562 3.1875,0 5.17187,2.53125 2,2.53125 2,6.65625 0,4.125 -2,6.65625 -1.98437,2.53125 -5.17187,2.53125 -1.92188,0 -3.3125,-0.75 -1.375,-0.76563 -2.28125,-2.32813 v 2.625 h -2.89063 v -24.3125 h 2.89063 z"
         id="text18108-0-5-1"
         aria-label="0xki2zmb" />
      <path
         style="font-weight:bold;font-size:32px;line-height:1.25;-inkscape-font-specification:'sans-serif Bold';text-align:end;text-anchor:end;fill:#025099"
         d="m 437.7865,353.36133 q 0,-4.375 -0.82813,-6.15625 -0.8125,-1.79688 -2.75,-1.79688 -1.9375,0 -2.76562,1.79688 -0.82813,1.78125 -0.82813,6.15625 0,4.42187 0.82813,6.23437 0.82812,1.8125 2.76562,1.8125 1.92188,0 2.75,-1.8125 0.82813,-1.8125 0.82813,-6.23437 z m 6.01562,0.0469 q 0,5.79688 -2.5,8.95313 -2.5,3.14062 -7.09375,3.14062 -4.60937,0 -7.10937,-3.14062 -2.5,-3.15625 -2.5,-8.95313 0,-5.8125 2.5,-8.95312 2.5,-3.15625 7.10937,-3.15625 4.59375,0 7.09375,3.15625 2.5,3.14062 2.5,8.95312 z m 8.64063,2.6875 -6.3125,-8.54687 h 5.92187 l 3.57813,5.1875 3.625,-5.1875 h 5.92187 l -6.3125,8.51562 6.625,8.98438 h -5.92187 l -3.9375,-5.53125 -3.89063,5.53125 h -5.92187 z m 33.6875,0.15625 v 1.59375 h -13.07813 q 0.20313,1.96875 1.42188,2.95313 1.21875,0.98437 3.40625,0.98437 1.76562,0 3.60937,-0.51562 1.85938,-0.53125 3.8125,-1.59375 v 4.3125 q -1.98437,0.75 -3.96875,1.125 -1.98437,0.39062 -3.96875,0.39062 -4.75,0 -7.39062,-2.40625 -2.625,-2.42187 -2.625,-6.78125 0,-4.28125 2.57812,-6.73437 2.59375,-2.45313 7.125,-2.45313 4.125,0 6.59375,2.48438 2.48438,2.48437 2.48438,6.64062 z m -5.75,-1.85937 q 0,-1.59375 -0.9375,-2.5625 -0.92188,-0.98438 -2.42188,-0.98438 -1.625,0 -2.64062,0.92188 -1.01563,0.90625 -1.26563,2.625 z m 21.89062,7.6875 q -1.15625,1.53125 -2.54687,2.25 -1.39063,0.71875 -3.21875,0.71875 -3.20313,0 -5.29688,-2.51563 -2.09375,-2.53125 -2.09375,-6.4375 0,-3.92187 2.09375,-6.42187 2.09375,-2.51563 5.29688,-2.51563 1.82812,0 3.21875,0.71875 1.39062,0.71875 2.54687,2.26563 v -2.59375 h 5.625 v 15.73437 q 0,4.21875 -2.67187,6.4375 -2.65625,2.23438 -7.71875,2.23438 -1.64063,0 -3.17188,-0.25 -1.53125,-0.25 -3.07812,-0.76563 v -4.35937 q 1.46875,0.84375 2.875,1.25 1.40625,0.42187 2.82812,0.42187 2.75,0 4.03125,-1.20312 1.28125,-1.20313 1.28125,-3.76563 z m -3.6875,-10.89063 q -1.73437,0 -2.70312,1.28125 -0.96875,1.28125 -0.96875,3.625 0,2.40625 0.9375,3.65625 0.9375,1.23438 2.73437,1.23438 1.75,0 2.71875,-1.28125 0.96875,-1.28125 0.96875,-3.60938 0,-2.34375 -0.96875,-3.625 -0.96875,-1.28125 -2.71875,-1.28125 z m 26.90625,1.28125 q 2.35938,0.60938 3.57813,2.125 1.23437,1.5 1.23437,3.82813 0,3.46875 -2.65625,5.28125 -2.65625,1.79687 -7.75,1.79687 -1.79687,0 -3.60937,-0.29687 -1.79688,-0.28125 -3.5625,-0.85938 v -4.64062 q 1.6875,0.84375 3.34375,1.28125 1.67187,0.42187 3.28125,0.42187 2.39062,0 3.65625,-0.82812 1.28125,-0.82813 1.28125,-2.375 0,-1.59375 -1.3125,-2.40625 -1.29688,-0.82813 -3.84375,-0.82813 H 516.724 v -3.875 h 2.53125 q 2.26562,0 3.375,-0.70312 1.10937,-0.71875 1.10937,-2.17188 0,-1.34375 -1.07812,-2.07812 -1.07813,-0.73438 -3.04688,-0.73438 -1.45312,0 -2.9375,0.32813 -1.48437,0.32812 -2.95312,0.96875 v -4.40625 q 1.78125,-0.5 3.53125,-0.75 1.75,-0.25 3.4375,-0.25 4.54687,0 6.79687,1.5 2.26563,1.48437 2.26563,4.48437 0,2.04688 -1.07813,3.35938 -1.07812,1.29687 -3.1875,1.82812 z m 18.5,2.14063 q -1.6875,0 -2.59375,0.92187 -0.90625,0.92188 -0.90625,2.64063 0,1.71875 0.90625,2.64062 0.90625,0.90625 2.59375,0.90625 1.67188,0 2.5625,-0.90625 0.89063,-0.92187 0.89063,-2.64062 0,-1.73438 -0.89063,-2.64063 -0.89062,-0.92187 -2.5625,-0.92187 z m -4.39062,-1.98438 q -2.125,-0.64062 -3.20313,-1.96875 -1.07812,-1.32812 -1.07812,-3.3125 0,-2.95312 2.20312,-4.5 2.20313,-1.54687 6.46875,-1.54687 4.23438,0 6.4375,1.54687 2.20313,1.53125 2.20313,4.5 0,1.98438 -1.09375,3.3125 -1.07813,1.32813 -3.20313,1.96875 2.375,0.65625 3.57813,2.14063 1.21875,1.46875 1.21875,3.71875 0,3.46875 -2.3125,5.25 -2.29688,1.76562 -6.82813,1.76562 -4.54687,0 -6.875,-1.76562 -2.3125,-1.78125 -2.3125,-5.25 0,-2.25 1.20313,-3.71875 1.21875,-1.48438 3.59375,-2.14063 z m 1.40625,-4.67187 q 0,1.39062 0.76562,2.14062 0.78125,0.75 2.21875,0.75 1.40625,0 2.17188,-0.75 0.76562,-0.75 0.76562,-2.14062 0,-1.39063 -0.76562,-2.125 -0.76563,-0.75 -2.17188,-0.75 -1.4375,0 -2.21875,0.75 -0.76562,0.75 -0.76562,2.125 z m 28.70312,2.15625 v -9.375 h 5.625 v 24.3125 h -5.625 v -2.53125 q -1.15625,1.54687 -2.54687,2.26562 -1.39063,0.71875 -3.21875,0.71875 -3.23438,0 -5.3125,-2.5625 -2.07813,-2.57812 -2.07813,-6.625 0,-4.04687 2.07813,-6.60937 2.07812,-2.57813 5.3125,-2.57813 1.8125,0 3.20312,0.73438 1.40625,0.71875 2.5625,2.25 z m -3.6875,11.32812 q 1.79688,0 2.73438,-1.3125 0.95312,-1.3125 0.95312,-3.8125 0,-2.5 -0.95312,-3.8125 -0.9375,-1.3125 -2.73438,-1.3125 -1.78125,0 -2.73437,1.3125 -0.9375,1.3125 -0.9375,3.8125 0,2.5 0.9375,3.8125 0.95312,1.3125 2.73437,1.3125 z m 23.14063,-6.82812 q -1.6875,0 -2.59375,0.92187 -0.90625,0.92188 -0.90625,2.64063 0,1.71875 0.90625,2.64062 0.90625,0.90625 2.59375,0.90625 1.67187,0 2.5625,-0.90625 0.89062,-0.92187 0.89062,-2.64062 0,-1.73438 -0.89062,-2.64063 -0.89063,-0.92187 -2.5625,-0.92187 z m -4.39063,-1.98438 q -2.125,-0.64062 -3.20312,-1.96875 -1.07813,-1.32812 -1.07813,-3.3125 0,-2.95312 2.20313,-4.5 2.20312,-1.54687 6.46875,-1.54687 4.23437,0 6.4375,1.54687 2.20312,1.53125 2.20312,4.5 0,1.98438 -1.09375,3.3125 -1.07812,1.32813 -3.20312,1.96875 2.375,0.65625 3.57812,2.14063 1.21875,1.46875 1.21875,3.71875 0,3.46875 -2.3125,5.25 -2.29687,1.76562 -6.82812,1.76562 -4.54688,0 -6.875,-1.76562 -2.3125,-1.78125 -2.3125,-5.25 0,-2.25 1.20312,-3.71875 1.21875,-1.48438 3.59375,-2.14063 z m 1.40625,-4.67187 q 0,1.39062 0.76563,2.14062 0.78125,0.75 2.21875,0.75 1.40625,0 2.17187,-0.75 0.76563,-0.75 0.76563,-2.14062 0,-1.39063 -0.76563,-2.125 -0.76562,-0.75 -2.17187,-0.75 -1.4375,0 -2.21875,0.75 -0.76563,0.75 -0.76563,2.125 z"
         id="text18108-0-2-2-9-9"
         aria-label="0xeg38d8" />
      <g
         id="g2108"
         transform="matrix(0.09950484,0,0,0.09950484,746.65799,273.56745)">
        <path
           class="fil3"
           d="m 212.70341,55.70254 c -9.76765,-12.989736 1.0795,-24.25858 17.53102,-35.060927 l 25.15267,0.380319 28.54946,26.670357 c -23.74358,2.669287 -52.26234,21.024696 -71.23315,8.010201 z"
           id="path37"
           style="clip-rule:evenodd;fill:#d0372f;fill-rule:evenodd;stroke-width:0.999995;image-rendering:optimizeQuality;shape-rendering:geometricPrecision;text-rendering:geometricPrecision" />
        <path
           class="fil4"
           d="m 369.92262,134.68615 c -123.85437,278.27462 -24.67907,453.55775 148.85627,534.51536 84.44848,39.3967 186.61407,55.67692 288.65556,49.96865 101.8815,-5.69997 204.08895,-33.29754 288.80555,-81.66231 187.4641,-107.02247 290.5425,-312.79744 123.7044,-605.033995 l 0.028,-0.0827 c -6.2421,-10.933446 -20.1672,-14.736527 -31.1007,-8.494448 -3.7677,2.15078 -6.6896,5.215724 -8.6432,8.754297 -2.7508,4.277939 -5.0563,7.807051 -6.9035,10.570847 -66.3328,99.273609 -139.2553,156.593269 -218.36094,173.762189 -73.91663,16.04282 -154.71523,-2.72479 -242.00084,-54.83018 24.19598,-19.6027 44.65728,-43.64158 60.14034,-70.880047 20.707,-36.427419 32.53454,-78.475611 32.53454,-123.192389 0,-68.963054 -27.95536,-131.401344 -73.15247,-176.600124 -45.19708,-45.19588 -107.63647,-73.15124 -176.60013,-73.15124 -59.4234,0 -114.06943,20.844 -157.04122,55.64033 -41.86149,33.89753 -72.54054,81.11069 -85.64477,135.227326 l 14.79192,161.137201 c 5.59847,12.432238 12.22084,24.376679 19.7645,35.729423 6.69087,10.06885 14.10583,19.6334 22.16679,28.62156 z"
           id="path39"
           style="clip-rule:evenodd;fill:#ffdb01;fill-opacity:1;fill-rule:evenodd;stroke-width:0.999995;image-rendering:optimizeQuality;shape-rendering:geometricPrecision;text-rendering:geometricPrecision" />
        <path
           class="fil5"
           d="m 185.95355,-71.563829 c -1.7575,-4.588567 5.70117,-6.832646 11.03734,-1.378343 33.82193,34.580128 84.46858,18.05541 116.20942,-17.859412 18.6507,12.888136 12.44873,51.445045 20.0479,74.241432 22.71488,19.3204041 48.72615,77.692615 -6.47007,73.659135 C 217.21969,49.094682 173.48491,1.0972603 185.95385,-71.563379 Z"
           id="path41"
           style="clip-rule:evenodd;fill:#e35525;fill-rule:evenodd;stroke-width:0.999995;image-rendering:optimizeQuality;shape-rendering:geometricPrecision;text-rendering:geometricPrecision" />
        <ellipse
           class="fil6"
           transform="matrix(-0.90703762,-0.42104959,-0.42104959,0.90703762,0,0)"
           rx="33.767605"
           ry="55.856239"
           id="ellipse43"
           cx="-339.36475"
           cy="-275.35013"
           style="clip-rule:evenodd;fill:#433f3c;fill-rule:evenodd;stroke-width:0.929783;image-rendering:optimizeQuality;shape-rendering:geometricPrecision;text-rendering:geometricPrecision" />
        <ellipse
           class="fil7"
           transform="matrix(-0.93852061,-0.34522321,-0.34522321,0.93852061,0,0)"
           rx="17.297634"
           ry="28.61268"
           id="ellipse45"
           cx="-352.12164"
           cy="-234.65685"
           style="clip-rule:evenodd;fill:#ffffff;fill-rule:evenodd;stroke-width:0.476287;image-rendering:optimizeQuality;shape-rendering:geometricPrecision;text-rendering:geometricPrecision" />
        <g
           id="Layer_8"
           data-name="Layer 8"
           transform="matrix(-5.9118344,3.4131992,3.4131992,5.9118344,1172.5611,30.016537)"
           style="clip-rule:evenodd;fill-rule:evenodd;image-rendering:optimizeQuality;shape-rendering:geometricPrecision;text-rendering:geometricPrecision">
          <path
             class="cls-1"
             d="m 18.59,50.67 v 6.52 A 2,2 0 0 0 17.41,55.54 6.34,6.34 0 0 0 12.78,55.1 3.05,3.05 0 0 1 10.54,54.84 v -6.52 a 3.09,3.09 0 0 0 2.25,0.26 6.31,6.31 0 0 1 4.61,0.42 2,2 0 0 1 1.19,1.67 z"
             id="path82"
             style="fill:url(#linearGradient1)" />
          <path
             class="cls-2"
             d="m 45.54,66.23 v 6.52 A 2,2 0 0 0 44.36,71.1 6.28,6.28 0 0 0 39.75,70.67 3.11,3.11 0 0 1 37.49,70.4 v -6.52 a 3.13,3.13 0 0 0 2.25,0.27 6.31,6.31 0 0 1 4.62,0.43 2,2 0 0 1 1.18,1.65 z"
             id="path84"
             style="fill:url(#linear-gradient-2-9)" />
          <path
             class="cls-3"
             d="m 80.42,40.17 v 6.52 a 0.66,0.66 0 0 1 -0.17,0.44 1.59,1.59 0 0 0 -0.42,1 v -6.52 a 1.57,1.57 0 0 1 0.42,-1 0.72,0.72 0 0 0 0.17,-0.44 z"
             id="path86"
             style="fill:url(#linear-gradient-3-1)" />
          <path
             class="cls-4"
             d="m 53.46,24.6 v 6.52 a 0.61,0.61 0 0 1 -0.18,0.44 1.63,1.63 0 0 0 -0.41,1 v -6.52 a 1.63,1.63 0 0 1 0.41,-1 0.68,0.68 0 0 0 0.18,-0.44 z"
             id="path88"
             style="fill:url(#linear-gradient-4-2)" />
          <path
             class="cls-5"
             d="M 76.46,66.05 68,61.13 a 1.56,1.56 0 0 0 -1.41,0 c -0.39,0.23 -0.39,0.59 0,0.82 l 8.51,4.92 a 1.59,1.59 0 0 0 1.41,0 0.43,0.43 0 0 0 0,-0.82"
             id="path90"
             style="fill:url(#linearGradient1052)" />
          <path
             class="cls-6"
             d="m 73,68.05 -8.5,-4.92 a 1.53,1.53 0 0 0 -1.41,0 c -0.4,0.23 -0.39,0.59 0,0.82 l 8.52,4.91 a 1.53,1.53 0 0 0 1.41,0 0.43,0.43 0 0 0 0,-0.81"
             id="path92"
             style="fill:url(#linear-gradient-6-9)" />
          <path
             class="cls-7"
             d="M 69.5,70 61,65.13 a 1.55,1.55 0 0 0 -1.42,0 0.44,0.44 0 0 0 0,0.82 l 8.51,4.92 a 1.61,1.61 0 0 0 1.42,0 0.44,0.44 0 0 0 0,-0.83"
             id="path94"
             style="fill:url(#linear-gradient-7-3)" />
          <path
             class="cls-8"
             d="m 66.1,72.05 -8.51,-4.91 a 1.55,1.55 0 0 0 -1.42,0 0.43,0.43 0 0 0 0,0.81 l 8.51,4.92 a 1.56,1.56 0 0 0 1.41,0 0.43,0.43 0 0 0 0,-0.82"
             id="path96"
             style="fill:url(#linear-gradient-8-6)" />
          <path
             class="cls-9"
             d="m 79.93,64.05 -8.51,-4.91 a 1.58,1.58 0 0 0 -1.42,0 0.44,0.44 0 0 0 0,0.86 l 8.51,4.91 a 1.59,1.59 0 0 0 1.41,0 0.43,0.43 0 0 0 0,-0.82"
             id="path98"
             style="fill:url(#linear-gradient-9-0)" />
          <path
             class="cls-10"
             d="m 83.38,62.05 -8.51,-4.91 a 1.55,1.55 0 0 0 -1.42,0 0.43,0.43 0 0 0 0,0.81 L 82,62.87 a 1.53,1.53 0 0 0 1.41,0 c 0.39,-0.23 0.38,-0.59 0,-0.82"
             id="path100"
             style="fill:url(#linear-gradient-10-6)" />
          <path
             class="cls-11"
             d="m 86.85,60.05 -8.51,-4.92 a 1.56,1.56 0 0 0 -1.41,0 c -0.39,0.23 -0.4,0.6 0,0.82 l 8.51,4.92 a 1.58,1.58 0 0 0 1.42,0 0.43,0.43 0 0 0 0,-0.81"
             id="path102"
             style="fill:url(#linear-gradient-11-2)" />
          <path
             class="cls-12"
             d="M 32.46,36.05 24,31.14 a 1.53,1.53 0 0 0 -1.41,0 0.43,0.43 0 0 0 0,0.81 l 8.51,4.92 a 1.58,1.58 0 0 0 1.42,0 c 0.39,-0.23 0.39,-0.59 0,-0.82"
             id="path104"
             style="fill:url(#linear-gradient-12-6)" />
          <path
             class="cls-13"
             d="m 29,38.05 -8.5,-4.91 a 1.58,1.58 0 0 0 -1.42,0 0.43,0.43 0 0 0 0,0.82 l 8.51,4.92 a 1.59,1.59 0 0 0 1.41,0 0.43,0.43 0 0 0 0,-0.82"
             id="path106"
             style="fill:url(#linear-gradient-13-1)" />
          <path
             class="cls-14"
             d="M 25.5,40.05 17,35.13 a 1.61,1.61 0 0 0 -1.42,0 c -0.39,0.23 -0.38,0.59 0,0.82 l 8.52,4.92 a 1.59,1.59 0 0 0 1.41,0 0.43,0.43 0 0 0 0,-0.82"
             id="path108"
             style="fill:url(#linear-gradient-14-8)" />
          <path
             class="cls-15"
             d="m 22.1,42 -8.51,-4.91 a 1.59,1.59 0 0 0 -1.41,0 c -0.4,0.23 -0.4,0.6 0,0.82 l 8.51,4.92 a 1.57,1.57 0 0 0 1.43,0 0.44,0.44 0 0 0 0,-0.83"
             id="path110"
             style="fill:url(#linear-gradient-15-7)" />
          <path
             class="cls-16"
             d="m 35.93,34.05 -8.51,-4.92 a 1.55,1.55 0 0 0 -1.42,0 c -0.39,0.22 -0.39,0.59 0,0.81 l 8.51,4.92 a 1.59,1.59 0 0 0 1.41,0 0.43,0.43 0 0 0 0,-0.82"
             id="path112"
             style="fill:url(#linear-gradient-16-9)" />
          <path
             class="cls-17"
             d="m 39.38,32.05 -8.51,-4.92 a 1.55,1.55 0 0 0 -1.42,0 c -0.39,0.23 -0.38,0.59 0,0.82 L 38,32.86 a 1.55,1.55 0 0 0 1.42,0 0.43,0.43 0 0 0 0,-0.81"
             id="path114"
             style="fill:url(#linear-gradient-17-2)" />
          <path
             class="cls-18"
             d="m 42.85,30.05 -8.51,-4.92 a 1.56,1.56 0 0 0 -1.41,0 c -0.39,0.23 -0.4,0.59 0,0.82 l 8.51,4.92 a 1.59,1.59 0 0 0 1.41,0 0.43,0.43 0 0 0 0,-0.82"
             id="path116"
             style="fill:url(#linear-gradient-18-0)" />
          <path
             class="cls-19"
             d="m 89.5,44.92 c 1.57,0.91 1.58,2.37 0,3.28 L 52.88,69.5 a 6.29,6.29 0 0 1 -5.67,0 L 45.59,68.56 C 45,68.22 44.75,67.69 45.13,67.25 c 0.74,-0.87 0.48,-2 -0.77,-2.67 A 6.31,6.31 0 0 0 39.74,64.15 3.13,3.13 0 0 1 37.49,63.88 L 18.63,53 c -0.59,-0.34 -0.83,-0.87 -0.46,-1.3 0.75,-0.87 0.49,-1.95 -0.77,-2.67 a 6.31,6.31 0 0 0 -4.62,-0.44 3.09,3.09 0 0 1 -2.25,-0.26 l -3,-1.76 C 5.96,45.66 5.95,44.2 7.53,43.29 L 44.11,22 a 6.29,6.29 0 0 1 5.67,0 l 3,1.76 c 0.59,0.34 0.84,0.87 0.46,1.3 -0.74,0.87 -0.48,2 0.77,2.68 a 6.31,6.31 0 0 0 4.62,0.43 3.08,3.08 0 0 1 2.25,0.27 l 18.9,10.87 c 0.59,0.34 0.83,0.87 0.47,1.3 -0.75,0.87 -0.5,2 0.76,2.67 a 6.31,6.31 0 0 0 4.62,0.44 3.09,3.09 0 0 1 2.25,0.26 z"
             id="path118"
             style="fill:url(#linear-gradient-19-2)" />
          <path
             class="cls-20"
             d="M 77.21,46 49,29.66 a 3.2,3.2 0 0 0 -3,0 L 20.75,44.33 a 0.91,0.91 0 0 0 0,1.71 L 49,62.35 a 3.26,3.26 0 0 0 2.95,0 L 77.21,47.68 a 0.9,0.9 0 0 0 0,-1.71"
             id="path120"
             style="fill:url(#linearGradient1050)" />
          <path
             class="cls-21"
             d="m 71.36,43 a 0.9,0.9 0 0 1 0,1.71 L 51.76,56.1 a 3.26,3.26 0 0 1 -2.95,0 l -22.58,-13 a 0.91,0.91 0 0 1 0,-1.71 L 45.83,30 a 3.2,3.2 0 0 1 3,0 z"
             id="path122"
             style="fill:url(#linear-gradient-21-5)" />
          <path
             class="cls-22"
             d="M 66.62,40.25 48.78,30 a 3.2,3.2 0 0 0 -3,0 L 28.61,40 a 5.53,5.53 0 0 0 1.45,1.21 l 14.06,8.12 a 7,7 0 0 0 3.48,0.89 6.88,6.88 0 0 0 3.48,-0.9 z"
             id="path124" />
          <path
             class="cls-23"
             d="m 6.29,51.43 v -6.52 a 2,2 0 0 0 1.18,1.65 v 6.52 A 2,2 0 0 1 6.29,51.43 Z"
             id="path126"
             style="fill:url(#linear-gradient-22-9)" />
          <path
             class="cls-24"
             d="m 90.69,46.57 v 6.52 a 2,2 0 0 1 -1.17,1.63 V 48.2 a 2,2 0 0 0 1.17,-1.63 z"
             id="path128"
             style="fill:url(#linear-gradient-23-2)" />
          <polygon
             class="cls-25"
             points="7.49,46.56 10.53,48.32 10.52,54.84 7.47,53.08 "
             id="polygon130"
             style="fill:url(#linear-gradient-24-2)" />
          <path
             class="cls-26"
             d="m 18,58.66 v -6.53 a 1.08,1.08 0 0 0 0.64,0.86 v 6.52 A 1.08,1.08 0 0 1 18,58.66 Z"
             id="path132"
             style="fill:url(#linear-gradient-25-8)" />
          <polygon
             class="cls-27"
             points="18.63,52.99 37.49,63.88 37.47,70.4 18.61,59.51 "
             id="polygon134"
             style="fill:url(#linear-gradient-26-9)" />
          <path
             class="cls-28"
             d="m 44.93,74.22 v -6.53 a 1.09,1.09 0 0 0 0.64,0.87 v 6.52 a 1.09,1.09 0 0 1 -0.64,-0.86 z"
             id="path136"
             style="fill:url(#linear-gradient-27-7)" />
          <polygon
             class="cls-29"
             points="52.88,69.5 89.52,48.2 89.5,54.72 52.86,76.02 "
             id="polygon138"
             style="fill:url(#linear-gradient-28-3)" />
          <polygon
             class="cls-30"
             points="45.59,68.56 47.21,69.5 47.2,76.02 45.57,75.08 "
             id="polygon140"
             style="fill:url(#linear-gradient-29-6)" />
          <path
             class="cls-31"
             d="m 52.88,69.5 v 6.52 a 6.27,6.27 0 0 1 -5.66,0 V 69.5 a 6.29,6.29 0 0 0 5.66,0 z"
             id="path142"
             style="fill:url(#linear-gradient-30-1)" />
          <path
             class="cls-32"
             d="m 16.3,42.82 a 1.55,1.55 0 0 0 -1.42,0 c -0.38,0.22 -0.38,0.59 0,0.82 a 1.59,1.59 0 0 0 1.41,0 0.43,0.43 0 0 0 0,-0.82"
             id="path144"
             style="fill:url(#linear-gradient-31-2)" />
          <path
             class="cls-33"
             d="m 19.12,41.18 a 1.55,1.55 0 0 0 -1.42,0 0.43,0.43 0 0 0 0,0.82 1.58,1.58 0 0 0 1.42,0 0.43,0.43 0 0 0 0,-0.82"
             id="path146"
             style="fill:url(#linear-gradient-32-9)" />
          <path
             class="cls-34"
             d="m 21.93,39.54 a 1.59,1.59 0 0 0 -1.41,0 c -0.38,0.22 -0.38,0.59 0,0.82 a 1.56,1.56 0 0 0 1.41,0 c 0.39,-0.23 0.39,-0.59 0,-0.82"
             id="path148"
             style="fill:url(#linear-gradient-33-3)" />
          <path
             class="cls-35"
             d="m 24.75,37.9 a 1.56,1.56 0 0 0 -1.41,0 0.43,0.43 0 0 0 0,0.82 1.55,1.55 0 0 0 1.42,0 c 0.39,-0.23 0.39,-0.59 0,-0.82"
             id="path150"
             style="fill:url(#linear-gradient-34-1)" />
          <path
             class="cls-36"
             d="m 72.93,54.28 a 1.59,1.59 0 0 0 -1.41,0 0.43,0.43 0 0 0 0,0.82 1.53,1.53 0 0 0 1.41,0 0.43,0.43 0 0 0 0,-0.82"
             id="path152"
             style="fill:url(#linear-gradient-35-9)" />
          <path
             class="cls-37"
             d="m 75.75,52.65 a 1.55,1.55 0 0 0 -1.42,0 c -0.38,0.22 -0.38,0.59 0,0.82 a 1.59,1.59 0 0 0 1.41,0 0.43,0.43 0 0 0 0,-0.82"
             id="path154"
             style="fill:url(#linear-gradient-36-4)" />
          <path
             class="cls-38"
             d="m 78.57,51 a 1.53,1.53 0 0 0 -1.41,0 c -0.4,0.23 -0.39,0.59 0,0.82 a 1.59,1.59 0 0 0 1.41,0 0.43,0.43 0 0 0 0,-0.82"
             id="path156"
             style="fill:url(#linear-gradient-37-7)" />
          <path
             class="cls-39"
             d="m 81.38,49.37 a 1.56,1.56 0 0 0 -1.41,0 c -0.39,0.23 -0.38,0.59 0,0.82 a 1.56,1.56 0 0 0 1.41,0 c 0.39,-0.23 0.39,-0.59 0,-0.82"
             id="path158"
             style="fill:url(#linear-gradient-38-8)" />
          <path
             class="cls-40"
             d="M 25.61,45.46 V 42.2 a 1,1 0 0 0 0.61,0.86 v 3.26 a 1,1 0 0 1 -0.61,-0.86 z"
             id="path160"
             style="fill:url(#linear-gradient-39-4)" />
          <path
             class="cls-41"
             d="m 72,43.85 v 3.26 a 1,1 0 0 1 -0.61,0.85 V 44.7 A 1,1 0 0 0 72,43.85 Z"
             id="path162"
             style="fill:url(#linear-gradient-40-5)" />
          <polygon
             class="cls-42"
             points="51.76,56.09 71.37,44.7 71.36,47.96 51.75,59.36 "
             id="polygon164"
             style="fill:url(#linear-gradient-41-0)" />
          <polygon
             class="cls-43"
             points="26.23,43.06 48.81,56.09 48.8,59.36 26.23,46.32 "
             id="polygon166"
             style="fill:url(#linear-gradient-42-3)" />
          <path
             class="cls-44"
             d="m 51.76,56.1 v 3.26 a 3.26,3.26 0 0 1 -3,0 V 56.1 a 3.26,3.26 0 0 0 3,0 z"
             id="path168"
             style="fill:url(#linear-gradient-43-6)" />
          <path
             class="cls-45"
             d="m 51,44.78 c -0.24,-0.14 -0.26,-0.36 -0.05,-0.49 a 0.94,0.94 0 0 1 0.83,0 c 0.24,0.14 0.26,0.36 0.05,0.48 a 0.9,0.9 0 0 1 -0.83,0 m 1.56,-0.91 a 2.89,2.89 0 0 0 -2,-0.26 L 48.7,42.52 a 4.67,4.67 0 0 0 -1.19,-0.45 l -4,-0.89 A 2.69,2.69 0 0 1 42.8,40.92 l -1.35,-0.78 a 0.9,0.9 0 0 0 -0.83,0 c -0.21,0.13 -0.19,0.34 0.06,0.48 l 1.34,0.78 a 4.24,4.24 0 0 0 1.18,0.44 l 4,0.89 A 3.07,3.07 0 0 1 47.92,43 l 1.86,1.08 c -0.27,0.37 -0.12,0.84 0.46,1.17 a 2.74,2.74 0 0 0 2.49,0.08 c 0.64,-0.37 0.58,-1 -0.15,-1.44"
             id="path170"
             style="fill:url(#linear-gradient-44-1)" />
          <path
             class="cls-46"
             d="m 38.66,45.8 c -0.24,-0.14 -0.26,-0.36 0,-0.48 a 0.94,0.94 0 0 1 0.83,0 c 0.24,0.14 0.26,0.35 0.05,0.48 a 0.94,0.94 0 0 1 -0.83,0 m 12,4.23 -4.74,-2.74 a 4.37,4.37 0 0 0 -1.54,-0.51 l -3.32,-0.49 -0.39,-0.23 c 0.27,-0.36 0.11,-0.83 -0.46,-1.17 a 2.79,2.79 0 0 0 -2.5,-0.08 c -0.64,0.37 -0.57,1 0.16,1.44 a 2.9,2.9 0 0 0 2,0.27 l 0.52,0.3 a 0.94,0.94 0 0 0 0.31,0.1 l 3.49,0.51 a 2.62,2.62 0 0 1 0.93,0.31 l 4.75,2.74 a 0.9,0.9 0 0 0 0.83,0 C 50.96,50.36 50.94,50.14 50.69,50"
             id="path172"
             style="fill:url(#linear-gradient-45-0)" />
          <path
             class="cls-47"
             d="m 61.11,47 c -0.25,-0.14 -0.27,-0.36 0,-0.48 a 0.94,0.94 0 0 1 0.83,0 c 0.24,0.14 0.25,0.35 0,0.47 a 0.88,0.88 0 0 1 -0.82,0 m 10,-2.31 L 69.87,44 a 4.56,4.56 0 0 0 -4.14,-0.13 l -3.57,2.07 a 2.66,2.66 0 0 0 -2,0.13 c -0.65,0.38 -0.58,1 0.15,1.44 a 2.72,2.72 0 0 0 2.48,0.08 0.68,0.68 0 0 0 0.21,-1.17 l 3.57,-2.08 a 2.76,2.76 0 0 1 2.5,0.08 l 1.32,0.76 0.52,-0.3 a 2.09,2.09 0 0 0 0.22,-0.16"
             id="path174"
             style="fill:url(#linear-gradient-46-6)" />
          <path
             class="cls-48"
             d="M 51.86,53.42 C 51.61,53.28 51.59,53.06 51.8,52.94 a 1,1 0 0 1 0.84,0 c 0.24,0.14 0.26,0.35 0,0.48 a 0.91,0.91 0 0 1 -0.82,0 M 48,40.37 c -0.24,-0.14 -0.26,-0.36 0,-0.48 a 0.88,0.88 0 0 1 0.82,0 c 0.25,0.14 0.27,0.35 0.06,0.48 a 1,1 0 0 1 -0.84,0 m 1.56,-0.91 a 2.77,2.77 0 0 0 -2.49,-0.08 c -0.64,0.37 -0.57,1 0.16,1.44 a 2.93,2.93 0 0 0 2,0.27 l 5.27,3 a 1.25,1.25 0 0 1 0.54,0.53 l 0.71,1.62 a 2.14,2.14 0 0 0 0.9,0.89 l 0.79,0.45 -1.3,0.76 a 1.22,1.22 0 0 0 -0.73,1.17 l 0.08,0.8 a 0.76,0.76 0 0 1 -0.44,0.7 L 52.9,52.3 a 2.64,2.64 0 0 0 -2,0.14 c -0.64,0.37 -0.58,1 0.15,1.43 a 2.75,2.75 0 0 0 2.48,0.09 0.69,0.69 0 0 0 0.22,-1.15 l 2.16,-1.25 a 1.22,1.22 0 0 0 0.73,-1.17 l -0.09,-0.8 A 0.76,0.76 0 0 1 57,48.89 l 1.3,-0.76 3.52,2 0.78,-0.45 -5.19,-3 a 1.19,1.19 0 0 1 -0.53,-0.54 l -0.73,-1.61 a 2.07,2.07 0 0 0 -0.89,-0.9 l -5.27,-3 c 0.28,-0.37 0.12,-0.83 -0.46,-1.17"
             id="path176"
             style="fill:url(#linear-gradient-47-3)" />
          <path
             class="cls-49"
             d="m 46.32,32.18 c -0.24,-0.14 -0.27,-0.36 0,-0.48 a 0.9,0.9 0 0 1 0.83,0 c 0.24,0.14 0.26,0.36 0,0.49 a 0.94,0.94 0 0 1 -0.83,0 m 9.71,2 -0.87,-0.5 -1.16,0.66 a 2.78,2.78 0 0 1 -2.49,-0.09 l -3.16,-1.82 c 0.27,-0.37 0.11,-0.84 -0.46,-1.17 A 2.74,2.74 0 0 0 45.4,31.19 c -0.64,0.37 -0.58,1 0.15,1.44 a 2.89,2.89 0 0 0 2,0.26 l 3.16,1.83 a 4.56,4.56 0 0 0 4.14,0.13 L 56,34.17"
             id="path178"
             style="fill:url(#linear-gradient-48-2)" />
          <path
             class="cls-50"
             d="M 54.74,41.55 C 54.5,41.41 54.47,41.2 54.69,41.07 a 0.94,0.94 0 0 1 0.83,0 c 0.25,0.14 0.27,0.35 0,0.48 a 0.94,0.94 0 0 1 -0.83,0 m 3,-6.36 -0.88,-0.51 -5.06,2.94 c -1.08,0.63 -1,1.71 0.26,2.41 l 1.39,0.8 c -0.26,0.37 -0.11,0.85 0.46,1.17 a 2.78,2.78 0 0 0 2.49,0.09 c 0.65,-0.38 0.57,-1 -0.15,-1.44 a 3,3 0 0 0 -2,-0.27 L 52.81,39.57 C 52.08,39.15 52,38.51 52.65,38.13 l 5.06,-2.94"
             id="path180"
             style="fill:url(#linear-gradient-49-0)" />
          <path
             class="cls-51"
             d="m 63.07,38.24 -0.88,-0.51 -1.48,0.86 a 2.13,2.13 0 0 1 -0.87,0.25 L 56.75,39.1 56.1,38.73 a 0.9,0.9 0 0 0 -0.83,0 c -0.21,0.12 -0.19,0.34 0,0.48 l 0.88,0.5 a 1,1 0 0 0 0.54,0.12 l 3.41,-0.29 a 3.63,3.63 0 0 0 1.45,-0.41 l 1.47,-0.86"
             id="path182"
             style="fill:url(#linear-gradient-50-6)" />
          <path
             class="cls-52"
             d="m 60.8,44.15 c -0.24,-0.15 -0.27,-0.36 0,-0.48 a 0.91,0.91 0 0 1 0.83,0 c 0.24,0.14 0.27,0.35 0.05,0.47 a 0.9,0.9 0 0 1 -0.83,0 m 4.91,-4.39 -0.87,-0.5 -2.26,1.31 A 1.45,1.45 0 0 0 61.91,41.4 L 61.49,43 a 2.48,2.48 0 0 0 -1.62,0.21 c -0.65,0.37 -0.58,1 0.15,1.44 a 2.74,2.74 0 0 0 2.49,0.08 0.71,0.71 0 0 0 0.08,-1.28 L 63,41.58 a 0.85,0.85 0 0 1 0.42,-0.51 l 2.26,-1.31"
             id="path184"
             style="fill:url(#linear-gradient-51-1)" />
          <path
             class="cls-53"
             d="m 32.81,45.13 c -0.25,-0.14 -0.27,-0.36 -0.06,-0.48 a 0.9,0.9 0 0 1 0.83,0 c 0.24,0.14 0.27,0.35 0.05,0.48 a 0.91,0.91 0 0 1 -0.82,0 m 2.13,-3.29 -4.84,-2.79 -0.78,0.45 4.84,2.8 c 0.73,0.42 0.79,1.07 0.15,1.44 l -0.46,0.27 a 2.67,2.67 0 0 0 -2,0.13 c -0.64,0.37 -0.57,1 0.16,1.44 a 2.74,2.74 0 0 0 2.49,0.08 0.68,0.68 0 0 0 0.21,-1.14 l 0.46,-0.27 c 1.08,-0.62 1,-1.7 -0.25,-2.41"
             id="path186"
             style="fill:url(#linear-gradient-52-5)" />
          <path
             class="cls-54"
             d="M 50.38,47.15 C 50.13,47.01 50.11,46.8 50.32,46.67 a 0.93,0.93 0 0 1 0.84,0 c 0.24,0.14 0.26,0.35 0,0.48 a 0.91,0.91 0 0 1 -0.82,0 m 1.55,-0.9 a 2.82,2.82 0 0 0 -2,-0.27 l -3.63,-2.09 a 4.32,4.32 0 0 0 -1.19,-0.45 l -4,-0.89 a 2.5,2.5 0 0 1 -0.71,-0.27 l -8,-4.59 -0.78,0.46 8,4.59 a 4.2,4.2 0 0 0 1.19,0.44 l 4,0.89 a 2.45,2.45 0 0 1 0.72,0.27 l 3.63,2.09 C 48.84,46.8 49,47.27 49.58,47.6 a 2.72,2.72 0 0 0 2.48,0.08 c 0.65,-0.37 0.58,-1 -0.15,-1.43"
             id="path188"
             style="fill:url(#linear-gradient-53-5)" />
          <path
             class="cls-55"
             d="m 41.75,35.85 c -0.25,-0.14 -0.27,-0.35 0,-0.48 a 0.94,0.94 0 0 1 0.83,0 c 0.24,0.14 0.26,0.36 0,0.48 a 0.91,0.91 0 0 1 -0.83,0 m 1.56,-0.9 A 2.78,2.78 0 0 0 40.82,34.86 0.69,0.69 0 0 0 40.6,36 l -2,1.17 a 2.76,2.76 0 0 1 -2.5,-0.08 l -1.32,-0.76 -0.78,0.45 1.33,0.76 a 4.58,4.58 0 0 0 4.15,0.14 l 2,-1.17 a 2.72,2.72 0 0 0 2,-0.13 c 0.64,-0.38 0.58,-1 -0.15,-1.44"
             id="path190"
             style="fill:url(#linear-gradient-54-4)" />
          <path
             class="cls-56"
             d="m 42.93,39.24 c -0.24,-0.14 -0.27,-0.35 0,-0.48 a 0.94,0.94 0 0 1 0.83,0 c 0.24,0.14 0.26,0.36 0,0.48 a 0.9,0.9 0 0 1 -0.83,0 m 3.74,-5.06 -4.11,-2.37 -0.78,0.45 4.11,2.38 a 1,1 0 0 1 0.59,0.74 l 0.09,0.79 a 0.74,0.74 0 0 1 -0.44,0.7 L 44,38.13 a 2.64,2.64 0 0 0 -2,0.12 c -0.64,0.38 -0.58,1 0.15,1.45 a 2.77,2.77 0 0 0 2.49,0.08 0.69,0.69 0 0 0 0.22,-1.15 L 47,37.38 a 1.22,1.22 0 0 0 0.73,-1.17 l -0.08,-0.79 a 1.76,1.76 0 0 0 -1,-1.24"
             id="path192"
             style="fill:url(#linear-gradient-55-7)" />
          <path
             class="cls-57"
             d="m 30,41.68 a 0.94,0.94 0 0 0 -0.83,0 c -0.21,0.13 -0.19,0.35 0.05,0.49 0.73,0.42 0.8,1.06 0.16,1.44 l -1.17,0.68 0.87,0.5 1.17,-0.68 c 1.08,-0.62 1,-1.7 -0.25,-2.4"
             id="path194"
             style="fill:url(#linear-gradient-56-6)" />
          <path
             class="cls-58"
             d="m 46.68,51.33 c -0.25,-0.14 -0.27,-0.35 0,-0.48 a 0.94,0.94 0 0 1 0.83,0 c 0.24,0.14 0.26,0.36 0,0.48 a 0.94,0.94 0 0 1 -0.83,0 m 1.56,-0.9 a 3,3 0 0 0 -2,-0.27 l -0.52,-0.29 a 0.82,0.82 0 0 0 -0.31,-0.11 l -3.5,-0.51 a 2.63,2.63 0 0 1 -0.92,-0.31 l -1.23,-0.71 a 4.61,4.61 0 0 0 -4.15,-0.14 l -0.39,0.23 0.89,0.51 0.38,-0.23 a 2.79,2.79 0 0 1 2.5,0.08 l 1.22,0.71 a 4.57,4.57 0 0 0 1.55,0.52 l 3.32,0.49 0.38,0.22 c -0.27,0.37 -0.11,0.84 0.46,1.17 a 2.77,2.77 0 0 0 2.49,0.08 c 0.64,-0.37 0.58,-1 -0.15,-1.44"
             id="path196"
             style="fill:url(#linear-gradient-57-5)" />
          <path
             class="cls-59"
             d="m 47.77,53.76 -1.77,-1 a 0.88,0.88 0 0 0 -0.83,0 c -0.22,0.12 -0.19,0.34 0,0.48 l 1.77,1 c 0.56,0.32 0.72,0.8 0.45,1.16 l 0.92,0.53 c 0.68,-0.63 0.47,-1.54 -0.59,-2.15"
             id="path198"
             style="fill:url(#linear-gradient-58-6)" />
          <path
             class="cls-60"
             d="m 66.68,37.23 -1.41,-0.82 -15.51,9 1.42,0.82 a 1.53,1.53 0 0 0 1.41,0 l 3.53,-2.05 a 0.43,0.43 0 0 0 0,-0.82 0.43,0.43 0 0 1 0,-0.82 l 4.23,-2.45 a 1.55,1.55 0 0 1 1.42,0 1.59,1.59 0 0 0 1.41,0 l 3.52,-2.05 c 0.39,-0.23 0.38,-0.59 0,-0.82"
             id="path200"
             style="fill:url(#linear-gradient-59-9)" />
          <path
             class="cls-61"
             d="m 48.24,26.58 -1.42,-0.82 a 1.59,1.59 0 0 0 -1.41,0 l -3.52,2 c -0.4,0.23 -0.39,0.59 0,0.82 a 0.44,0.44 0 0 1 0,0.82 l -4.22,2.5 a 1.55,1.55 0 0 1 -1.42,0 1.59,1.59 0 0 0 -1.41,0 L 31.31,34 a 0.43,0.43 0 0 0 0,0.82 l 1.42,0.82 15.5,-9"
             id="path202"
             style="fill:url(#linear-gradient-60-3)" />
          <path
             class="cls-62"
             d="M 45.52,45.42 32.75,38.05 a 0.87,0.87 0 0 0 0,1.64 l 9.93,5.73 a 3.1,3.1 0 0 0 2.83,0"
             id="path204"
             style="fill:url(#linear-gradient-61-7)" />
          <path
             class="cls-63"
             d="m 65.24,32.31 -9.92,-5.73 a 3.16,3.16 0 0 0 -2.84,0 L 65.25,34 c 0.78,-0.45 0.78,-1.18 0,-1.64"
             id="path206"
             style="fill:url(#linear-gradient-62-4)" />
          <path
             class="cls-64"
             d="M 65.9,34.33 65.25,34 52.48,26.58 51.84,26.21 a 3.2,3.2 0 0 0 -3,0 l -0.65,0.37 -15.5,9 L 32.1,36 a 0.9,0.9 0 0 0 0,1.71 l 0.64,0.38 12.77,7.37 0.65,0.37 a 3.2,3.2 0 0 0 2.95,0 l 0.64,-0.37 15.51,-9 0.64,-0.37 a 0.9,0.9 0 0 0 0,-1.76 z"
             id="path208"
             style="fill:url(#linear-gradient-63-5)" />
          <path
             class="cls-65"
             d="M 63.08,34.33 51.85,27.84 a 3.26,3.26 0 0 0 -3,0 L 34.92,36 a 0.9,0.9 0 0 0 0,1.71 l 11.23,6.49 a 3.23,3.23 0 0 0 3,0 l 14,-8.12 a 0.9,0.9 0 0 0 0,-1.7"
             id="path210"
             style="fill:url(#linear-gradient-64-2)" />
        </g>
        <path
           class="fil8"
           d="M 959.7897,431.87367 C 1041.9339,415.06426 1086.2531,369.29318 1104.74,303.74431 1010.0502,347.83229 917.26991,328.87928 746.20276,252.37486 583.11957,215.12775 436.0703,341.81702 521.44787,501.02563 649.18724,663.20884 899.831,630.51099 1043.5343,498.86894 l -98.64293,2.06339 c 67.06383,-7.11016 108.90743,-34.03683 134.14233,-74.00993 -41.7069,10.95354 -81.51339,12.89283 -119.2434,4.95117 z"
           id="path47"
           style="clip-rule:evenodd;fill:#ffc60c;fill-opacity:1;fill-rule:evenodd;stroke-width:0.999995;image-rendering:optimizeQuality;shape-rendering:geometricPrecision;text-rendering:geometricPrecision" />
      </g>
    </g>
  </g>
  <g
     inkscape:groupmode="layer"
     id="layer2"
     inkscape:label="duck" />
</svg>
